<svg width="154" height="154" viewBox="0 0 154 154" fill="none" xmlns="http://www.w3.org/2000/svg">
<rect width="154" height="154" rx="10" fill="#BDA8DD"/>
<g clip-path="url(#clip0_1252_2018)">
<path d="M58.5 35.5625C58.5 33.8686 59.8779 32.5 61.5833 32.5H64.6667H89.3333H92.4167C94.1221 32.5 95.5 33.8686 95.5 35.5625C95.5 37.2564 94.1221 38.625 92.4167 38.625V39.6777C92.4167 43.7355 90.7883 47.6307 87.8977 50.5018L81.3648 57L87.9073 63.4982C90.7979 66.3693 92.4263 70.2645 92.4263 74.3223V75.375C94.1318 75.375 95.5096 76.7436 95.5096 78.4375C95.5096 80.1314 94.1318 81.5 92.4263 81.5H89.3333H64.6667H61.5833C59.8779 81.5 58.5 80.1314 58.5 78.4375C58.5 76.7436 59.8779 75.375 61.5833 75.375V74.3223C61.5833 70.2645 63.2117 66.3693 66.1023 63.4982L72.6352 57L66.1023 50.5018C63.2117 47.6307 61.5833 43.7355 61.5833 39.6777V38.625C59.8779 38.625 58.5 37.2564 58.5 35.5625ZM67.75 38.625V39.6777C67.75 42.1182 68.7232 44.4533 70.4576 46.176L77 52.6646L83.5424 46.1664C85.2768 44.4438 86.25 42.1086 86.25 39.6682V38.625H67.75ZM67.75 75.375H86.25V74.3223C86.25 71.8818 85.2768 69.5467 83.5424 67.824L77 61.3354L70.4576 67.8336C68.7232 69.5563 67.75 71.8914 67.75 74.3318V75.3846V75.375Z" fill="#F7F4FB"/>
</g>
<path d="M32.7689 106.14V101.46H46.2089V106.14H32.7689ZM42.9209 95.7H48.2009V112.5H42.9209V95.7ZM31.6409 95.7H36.9209V112.5H31.6409V95.7ZM50.7228 97.572C50.7228 96.868 50.9708 96.3 51.4668 95.868C51.9788 95.436 52.5948 95.22 53.3148 95.22C54.0348 95.22 54.6428 95.436 55.1388 95.868C55.6508 96.3 55.9068 96.868 55.9068 97.572C55.9068 98.276 55.6508 98.844 55.1388 99.276C54.6428 99.708 54.0348 99.924 53.3148 99.924C52.5948 99.924 51.9788 99.708 51.4668 99.276C50.9708 98.844 50.7228 98.276 50.7228 97.572ZM51.0588 101.46H55.5468V112.5H51.0588V101.46ZM58.622 108.108C59.39 108.652 60.046 109.052 60.59 109.308C61.15 109.548 61.598 109.7 61.934 109.764C62.286 109.828 62.526 109.86 62.654 109.86C62.91 109.86 63.086 109.812 63.182 109.716C63.294 109.604 63.35 109.468 63.35 109.308C63.35 109.164 63.302 109.036 63.206 108.924C63.126 108.812 62.926 108.692 62.606 108.564C62.286 108.42 61.782 108.244 61.094 108.036C60.55 107.86 60.038 107.644 59.558 107.388C59.094 107.116 58.718 106.748 58.43 106.284C58.142 105.82 57.998 105.22 57.998 104.484C57.998 103.796 58.182 103.212 58.55 102.732C58.918 102.236 59.43 101.86 60.086 101.604C60.758 101.348 61.55 101.22 62.462 101.22C63.134 101.22 63.758 101.284 64.334 101.412C64.91 101.524 65.47 101.676 66.014 101.868C66.558 102.06 67.102 102.284 67.646 102.54L66.494 105.732C65.95 105.268 65.334 104.9 64.646 104.628C63.974 104.34 63.414 104.196 62.966 104.196C62.678 104.196 62.486 104.244 62.39 104.34C62.294 104.436 62.246 104.54 62.246 104.652C62.246 104.86 62.334 105.028 62.51 105.156C62.702 105.268 62.99 105.38 63.374 105.492C63.774 105.604 64.294 105.78 64.934 106.02C65.462 106.212 65.958 106.436 66.422 106.692C66.886 106.948 67.262 107.284 67.55 107.7C67.838 108.116 67.982 108.676 67.982 109.38C67.982 110.692 67.606 111.644 66.854 112.236C66.102 112.812 65.014 113.1 63.59 113.1C62.758 113.1 61.974 113.028 61.238 112.884C60.502 112.756 59.798 112.564 59.126 112.308C58.454 112.052 57.782 111.748 57.11 111.396L58.622 108.108ZM68.5888 101.46H77.1088V105.18H68.5888V101.46ZM70.6288 97.62H75.0688V112.5H70.6288V97.62ZM77.9544 106.98C77.9544 105.78 78.2424 104.748 78.8184 103.884C79.3944 103.02 80.1864 102.356 81.1944 101.892C82.2024 101.428 83.3464 101.196 84.6264 101.196C85.9064 101.196 87.0504 101.428 88.0584 101.892C89.0664 102.356 89.8584 103.02 90.4344 103.884C91.0104 104.748 91.2984 105.78 91.2984 106.98C91.2984 108.164 91.0104 109.188 90.4344 110.052C89.8584 110.916 89.0664 111.58 88.0584 112.044C87.0504 112.508 85.9064 112.74 84.6264 112.74C83.3464 112.74 82.2024 112.508 81.1944 112.044C80.1864 111.58 79.3944 110.916 78.8184 110.052C78.2424 109.188 77.9544 108.164 77.9544 106.98ZM82.7784 106.98C82.7784 107.428 82.8664 107.804 83.0424 108.108C83.2184 108.412 83.4424 108.644 83.7144 108.804C84.0024 108.948 84.3064 109.02 84.6264 109.02C84.9464 109.02 85.2424 108.948 85.5144 108.804C85.8024 108.644 86.0344 108.412 86.2104 108.108C86.3864 107.804 86.4744 107.428 86.4744 106.98C86.4744 106.532 86.3864 106.156 86.2104 105.852C86.0344 105.548 85.8024 105.316 85.5144 105.156C85.2424 104.996 84.9464 104.916 84.6264 104.916C84.3064 104.916 84.0024 104.996 83.7144 105.156C83.4424 105.316 83.2184 105.548 83.0424 105.852C82.8664 106.156 82.7784 106.532 82.7784 106.98ZM92.8634 97.572C92.8634 96.868 93.1114 96.3 93.6074 95.868C94.1194 95.436 94.7354 95.22 95.4554 95.22C96.1754 95.22 96.7834 95.436 97.2794 95.868C97.7914 96.3 98.0474 96.868 98.0474 97.572C98.0474 98.276 97.7914 98.844 97.2794 99.276C96.7834 99.708 96.1754 99.924 95.4554 99.924C94.7354 99.924 94.1194 99.708 93.6074 99.276C93.1114 98.844 92.8634 98.276 92.8634 97.572ZM93.1994 101.46H97.6874V112.5H93.1994V101.46ZM104.651 101.46V112.5H100.091V101.46H104.651ZM107.747 106.212C107.603 106.02 107.419 105.86 107.195 105.732C106.971 105.604 106.699 105.54 106.379 105.54C106.107 105.54 105.835 105.62 105.563 105.78C105.291 105.94 105.067 106.188 104.891 106.524C104.731 106.86 104.651 107.292 104.651 107.82L103.787 105.78C103.787 104.9 103.971 104.116 104.339 103.428C104.707 102.74 105.187 102.196 105.779 101.796C106.387 101.38 107.027 101.172 107.699 101.172C108.099 101.172 108.483 101.276 108.851 101.484C109.235 101.676 109.499 101.908 109.643 102.18L107.747 106.212ZM117.046 112.74C115.606 112.74 114.366 112.508 113.326 112.044C112.302 111.58 111.51 110.924 110.95 110.076C110.406 109.212 110.134 108.18 110.134 106.98C110.134 105.764 110.398 104.732 110.926 103.884C111.454 103.02 112.214 102.364 113.206 101.916C114.198 101.452 115.398 101.22 116.806 101.22C118.198 101.22 119.366 101.436 120.31 101.868C121.27 102.284 121.99 102.908 122.47 103.74C122.966 104.556 123.214 105.564 123.214 106.764C123.214 106.972 123.214 107.18 123.214 107.388C123.214 107.58 123.198 107.764 123.166 107.94H112.678V105.684H118.822L117.91 106.788C118.006 106.644 118.086 106.492 118.15 106.332C118.214 106.172 118.246 106.036 118.246 105.924C118.246 105.54 118.182 105.212 118.054 104.94C117.926 104.668 117.742 104.46 117.502 104.316C117.278 104.172 117.006 104.1 116.686 104.1C116.254 104.1 115.902 104.204 115.63 104.412C115.358 104.604 115.158 104.916 115.03 105.348C114.902 105.764 114.838 106.308 114.838 106.98C114.822 107.54 114.886 108.02 115.03 108.42C115.19 108.804 115.414 109.1 115.702 109.308C116.006 109.516 116.374 109.62 116.806 109.62C117.382 109.62 117.862 109.532 118.246 109.356C118.63 109.164 118.918 108.892 119.11 108.54L123.382 109.212C122.79 110.396 121.966 111.284 120.91 111.876C119.87 112.452 118.582 112.74 117.046 112.74Z" fill="white"/>
<defs>
<clipPath id="clip0_1252_2018">
<rect width="37" height="49" fill="white" transform="translate(58.5 32.5)"/>
</clipPath>
</defs>
</svg>
