<svg width="154" height="154" viewBox="0 0 154 154" fill="none" xmlns="http://www.w3.org/2000/svg">
<rect width="154" height="154" rx="10" fill="#BDA8DD"/>
<g clip-path="url(#clip0_1252_2022)">
<path d="M75.8187 33.2437L54.8187 42.2437C53.5062 42.8062 52.775 44.2125 53.0656 45.6C53.3562 46.9875 54.575 48 56 48V48.75C56 49.9968 57.0031 51 58.25 51H95.75C96.9969 51 98 49.9968 98 48.75V48C99.425 48 100.653 46.9968 100.934 45.6C101.216 44.2031 100.484 42.7968 99.1813 42.2437L78.1813 33.2437C77.4219 32.925 76.5687 32.925 75.8187 33.2437ZM65 54H59V72.4031C58.9437 72.4312 58.8875 72.4687 58.8312 72.5062L54.3312 75.5062C53.2344 76.2375 52.7375 77.6062 53.1219 78.8718C53.5062 80.1375 54.6781 81 56 81H98C99.3219 81 100.484 80.1375 100.869 78.8718C101.253 77.6062 100.766 76.2375 99.6594 75.5062L95.1594 72.5062C95.1031 72.4687 95.0469 72.4406 94.9906 72.4031V54H89V72H85.25V54H79.25V72H74.75V54H68.75V72H65V54ZM77 39C77.7956 39 78.5587 39.316 79.1213 39.8786C79.6839 40.4412 80 41.2043 80 42C80 42.7956 79.6839 43.5587 79.1213 44.1213C78.5587 44.6839 77.7956 45 77 45C76.2044 45 75.4413 44.6839 74.8787 44.1213C74.3161 43.5587 74 42.7956 74 42C74 41.2043 74.3161 40.4412 74.8787 39.8786C75.4413 39.316 76.2044 39 77 39Z" fill="#F7F4FB"/>
</g>
<path d="M39.3295 105.136L38.4655 112H32.8255L35.9455 94.36L43.3855 103.432L50.8255 94.36L53.9455 112H48.3055L47.4415 105.136L43.3855 110.44L39.3295 105.136ZM60.7958 107.68C60.7958 108.176 60.8678 108.568 61.0118 108.856C61.1558 109.128 61.4678 109.264 61.9478 109.264C62.2358 109.264 62.4758 109.208 62.6678 109.096C62.8758 108.984 63.0358 108.816 63.1478 108.592C63.2598 108.352 63.3158 108.048 63.3158 107.68V100.96H67.9958V112H63.3158V110.392C63.0118 110.952 62.5798 111.408 62.0198 111.76C61.4758 112.096 60.7718 112.264 59.9078 112.264C58.4038 112.264 57.3558 111.912 56.7638 111.208C56.1718 110.488 55.8758 109.472 55.8758 108.16V100.96H60.7958V107.68ZM71.079 107.608C71.847 108.152 72.503 108.552 73.047 108.808C73.607 109.048 74.055 109.2 74.391 109.264C74.743 109.328 74.983 109.36 75.111 109.36C75.367 109.36 75.543 109.312 75.639 109.216C75.751 109.104 75.807 108.968 75.807 108.808C75.807 108.664 75.759 108.536 75.663 108.424C75.583 108.312 75.383 108.192 75.063 108.064C74.743 107.92 74.239 107.744 73.551 107.536C73.007 107.36 72.495 107.144 72.015 106.888C71.551 106.616 71.175 106.248 70.887 105.784C70.599 105.32 70.455 104.72 70.455 103.984C70.455 103.296 70.639 102.712 71.007 102.232C71.375 101.736 71.887 101.36 72.543 101.104C73.215 100.848 74.007 100.72 74.919 100.72C75.591 100.72 76.215 100.784 76.791 100.912C77.367 101.024 77.927 101.176 78.471 101.368C79.015 101.56 79.559 101.784 80.103 102.04L78.951 105.232C78.407 104.768 77.791 104.4 77.103 104.128C76.431 103.84 75.871 103.696 75.423 103.696C75.135 103.696 74.943 103.744 74.847 103.84C74.751 103.936 74.703 104.04 74.703 104.152C74.703 104.36 74.791 104.528 74.967 104.656C75.159 104.768 75.447 104.88 75.831 104.992C76.231 105.104 76.751 105.28 77.391 105.52C77.919 105.712 78.415 105.936 78.879 106.192C79.343 106.448 79.719 106.784 80.007 107.2C80.295 107.616 80.439 108.176 80.439 108.88C80.439 110.192 80.063 111.144 79.311 111.736C78.559 112.312 77.471 112.6 76.047 112.6C75.215 112.6 74.431 112.528 73.695 112.384C72.959 112.256 72.255 112.064 71.583 111.808C70.911 111.552 70.239 111.248 69.567 110.896L71.079 107.608ZM84.1898 107.44V105.184H89.7338C89.6858 104.816 89.5978 104.52 89.4698 104.296C89.3578 104.056 89.1978 103.88 88.9898 103.768C88.7818 103.656 88.5178 103.6 88.1978 103.6C87.7978 103.6 87.4618 103.688 87.1898 103.864C86.9338 104.04 86.7338 104.312 86.5898 104.68C86.4618 105.032 86.3978 105.472 86.3978 106L86.3498 106.48C86.3498 107.168 86.4458 107.704 86.6378 108.088C86.8298 108.472 87.0778 108.744 87.3818 108.904C87.6858 109.048 87.9978 109.12 88.3178 109.12C88.7018 109.12 89.0378 109.08 89.3258 109C89.6298 108.92 89.8858 108.8 90.0938 108.64C90.3178 108.48 90.4938 108.28 90.6218 108.04L94.8938 108.712C94.5258 109.432 94.0618 110.056 93.5018 110.584C92.9418 111.112 92.2538 111.52 91.4378 111.808C90.6378 112.096 89.6778 112.24 88.5578 112.24C87.0058 112.24 85.7178 111.992 84.6938 111.496C83.6698 111 82.9018 110.32 82.3898 109.456C81.8938 108.576 81.6458 107.584 81.6458 106.48C81.6458 106.272 81.6538 106.072 81.6698 105.88C81.6858 105.688 81.7098 105.496 81.7418 105.304C81.9018 104.392 82.2378 103.592 82.7498 102.904C83.2778 102.216 83.9978 101.68 84.9098 101.296C85.8378 100.912 86.9738 100.72 88.3178 100.72C89.7578 100.72 90.9498 100.944 91.8938 101.392C92.8378 101.824 93.5418 102.456 94.0058 103.288C94.4858 104.104 94.7258 105.096 94.7258 106.264C94.7258 106.36 94.7258 106.52 94.7258 106.744C94.7258 106.952 94.7098 107.184 94.6778 107.44H84.1898ZM92.6378 95.656L88.3178 99.256L85.6778 98.056L89.2778 94.216L92.6378 95.656ZM103.183 112.24C101.743 112.24 100.503 112.008 99.4628 111.544C98.4388 111.08 97.6468 110.424 97.0868 109.576C96.5428 108.712 96.2708 107.68 96.2708 106.48C96.2708 105.264 96.5348 104.232 97.0628 103.384C97.5908 102.52 98.3508 101.864 99.3428 101.416C100.335 100.952 101.535 100.72 102.943 100.72C104.335 100.72 105.503 100.936 106.447 101.368C107.407 101.784 108.127 102.408 108.607 103.24C109.103 104.056 109.351 105.064 109.351 106.264C109.351 106.472 109.351 106.68 109.351 106.888C109.351 107.08 109.335 107.264 109.303 107.44H98.8148V105.184H104.959L104.047 106.288C104.143 106.144 104.223 105.992 104.287 105.832C104.351 105.672 104.383 105.536 104.383 105.424C104.383 105.04 104.319 104.712 104.191 104.44C104.063 104.168 103.879 103.96 103.639 103.816C103.415 103.672 103.143 103.6 102.823 103.6C102.391 103.6 102.039 103.704 101.767 103.912C101.495 104.104 101.295 104.416 101.167 104.848C101.039 105.264 100.975 105.808 100.975 106.48C100.959 107.04 101.023 107.52 101.167 107.92C101.327 108.304 101.551 108.6 101.839 108.808C102.143 109.016 102.511 109.12 102.943 109.12C103.519 109.12 103.999 109.032 104.383 108.856C104.767 108.664 105.055 108.392 105.247 108.04L109.519 108.712C108.927 109.896 108.103 110.784 107.047 111.376C106.007 111.952 104.719 112.24 103.183 112.24ZM112.048 107.608C112.816 108.152 113.472 108.552 114.016 108.808C114.576 109.048 115.024 109.2 115.36 109.264C115.712 109.328 115.952 109.36 116.08 109.36C116.336 109.36 116.512 109.312 116.608 109.216C116.72 109.104 116.776 108.968 116.776 108.808C116.776 108.664 116.728 108.536 116.632 108.424C116.552 108.312 116.352 108.192 116.032 108.064C115.712 107.92 115.208 107.744 114.52 107.536C113.976 107.36 113.464 107.144 112.984 106.888C112.52 106.616 112.144 106.248 111.856 105.784C111.568 105.32 111.424 104.72 111.424 103.984C111.424 103.296 111.608 102.712 111.976 102.232C112.344 101.736 112.856 101.36 113.512 101.104C114.184 100.848 114.976 100.72 115.888 100.72C116.56 100.72 117.184 100.784 117.76 100.912C118.336 101.024 118.896 101.176 119.44 101.368C119.984 101.56 120.528 101.784 121.072 102.04L119.92 105.232C119.376 104.768 118.76 104.4 118.072 104.128C117.4 103.84 116.84 103.696 116.392 103.696C116.104 103.696 115.912 103.744 115.816 103.84C115.72 103.936 115.672 104.04 115.672 104.152C115.672 104.36 115.76 104.528 115.936 104.656C116.128 104.768 116.416 104.88 116.8 104.992C117.2 105.104 117.72 105.28 118.36 105.52C118.888 105.712 119.384 105.936 119.848 106.192C120.312 106.448 120.688 106.784 120.976 107.2C121.264 107.616 121.408 108.176 121.408 108.88C121.408 110.192 121.032 111.144 120.28 111.736C119.528 112.312 118.44 112.6 117.016 112.6C116.184 112.6 115.4 112.528 114.664 112.384C113.928 112.256 113.224 112.064 112.552 111.808C111.88 111.552 111.208 111.248 110.536 110.896L112.048 107.608Z" fill="white"/>
<defs>
<clipPath id="clip0_1252_2022">
<rect width="48" height="48" fill="white" transform="translate(53 33)"/>
</clipPath>
</defs>
</svg>
