<svg width="154" height="154" viewBox="0 0 154 154" fill="none" xmlns="http://www.w3.org/2000/svg">
<rect width="154" height="154" rx="10" fill="#BDA8DD"/>
<g clip-path="url(#clip0_1252_2040)">
<path d="M100.25 47.8125C102.305 47.8125 104.277 47.0059 105.73 45.57C107.183 44.1342 108 42.1868 108 40.1562C108 38.1257 107.183 36.1783 105.73 34.7425C104.277 33.3066 102.305 32.5 100.25 32.5C98.1946 32.5 96.2233 33.3066 94.7699 34.7425C93.3165 36.1783 92.5 38.1257 92.5 40.1562C92.5 42.1868 93.3165 44.1342 94.7699 45.57C96.2233 47.0059 98.1946 47.8125 100.25 47.8125ZM51.4153 81.5H82.9191H90.1847H102.081C105.355 81.5 108 78.8777 108 75.6525C108 74.5807 107.7 73.5279 107.138 72.6092L94.3503 51.9086C93.9531 51.2674 93.2556 50.875 92.5 50.875C91.7444 50.875 91.0469 51.2674 90.6497 51.899L85.9803 59.4596L73.7837 40.252C73.1444 39.2375 72.0109 38.625 70.8 38.625C69.5891 38.625 68.4653 39.2375 67.8162 40.252L46.8331 73.3078C46.2906 74.1596 46 75.1453 46 76.1502C46 79.1074 48.4219 81.5 51.4153 81.5Z" fill="#F7F4FB"/>
</g>
<path d="M48.8305 95.7H53.8705V113.34L42.9505 104.892V112.5H37.9105V94.86L48.8305 103.308V95.7ZM60.727 109.02C60.727 109.228 60.775 109.404 60.871 109.548C60.983 109.676 61.119 109.78 61.279 109.86C61.455 109.924 61.639 109.956 61.831 109.956C62.135 109.956 62.423 109.892 62.695 109.764C62.983 109.62 63.215 109.404 63.391 109.116C63.583 108.812 63.679 108.42 63.679 107.94L64.063 109.38C64.063 110.084 63.887 110.692 63.535 111.204C63.183 111.7 62.703 112.084 62.095 112.356C61.487 112.612 60.799 112.74 60.031 112.74C59.311 112.74 58.647 112.612 58.039 112.356C57.431 112.1 56.943 111.716 56.575 111.204C56.207 110.676 56.023 110.036 56.023 109.284C56.023 108.228 56.391 107.404 57.127 106.812C57.879 106.204 58.959 105.9 60.367 105.9C60.943 105.9 61.495 105.948 62.023 106.044C62.567 106.14 63.047 106.276 63.463 106.452C63.895 106.612 64.231 106.82 64.471 107.076V108.972C64.199 108.732 63.831 108.54 63.367 108.396C62.919 108.252 62.455 108.18 61.975 108.18C61.671 108.18 61.423 108.212 61.231 108.276C61.055 108.34 60.927 108.436 60.847 108.564C60.767 108.676 60.727 108.828 60.727 109.02ZM58.303 105.348L56.887 102.324C57.655 102.02 58.519 101.74 59.479 101.484C60.455 101.228 61.471 101.1 62.527 101.1C63.567 101.1 64.511 101.244 65.359 101.532C66.207 101.82 66.879 102.244 67.375 102.804C67.871 103.348 68.119 104.02 68.119 104.82V112.5H63.679V105.972C63.679 105.764 63.647 105.572 63.583 105.396C63.519 105.22 63.415 105.068 63.271 104.94C63.127 104.796 62.935 104.692 62.695 104.628C62.455 104.548 62.167 104.508 61.831 104.508C61.383 104.508 60.911 104.564 60.415 104.676C59.919 104.772 59.479 104.892 59.095 105.036C58.711 105.164 58.447 105.268 58.303 105.348ZM69.4442 101.46H77.9642V105.18H69.4442V101.46ZM71.4842 97.62H75.9242V112.5H71.4842V97.62ZM84.2098 108.18C84.2098 108.676 84.2818 109.068 84.4258 109.356C84.5698 109.628 84.8818 109.764 85.3618 109.764C85.6498 109.764 85.8898 109.708 86.0818 109.596C86.2898 109.484 86.4498 109.316 86.5618 109.092C86.6738 108.852 86.7298 108.548 86.7298 108.18V101.46H91.4098V112.5H86.7298V110.892C86.4258 111.452 85.9938 111.908 85.4338 112.26C84.8898 112.596 84.1858 112.764 83.3218 112.764C81.8178 112.764 80.7698 112.412 80.1778 111.708C79.5858 110.988 79.2898 109.972 79.2898 108.66V101.46H84.2098V108.18ZM98.3811 101.46V112.5H93.8211V101.46H98.3811ZM101.477 106.212C101.333 106.02 101.149 105.86 100.925 105.732C100.701 105.604 100.429 105.54 100.109 105.54C99.8371 105.54 99.5651 105.62 99.2931 105.78C99.0211 105.94 98.7971 106.188 98.6211 106.524C98.4611 106.86 98.3811 107.292 98.3811 107.82L97.5171 105.78C97.5171 104.9 97.7011 104.116 98.0691 103.428C98.4371 102.74 98.9171 102.196 99.5091 101.796C100.117 101.38 100.757 101.172 101.429 101.172C101.829 101.172 102.213 101.276 102.581 101.484C102.965 101.676 103.229 101.908 103.373 102.18L101.477 106.212ZM110.777 112.74C109.337 112.74 108.097 112.508 107.057 112.044C106.033 111.58 105.241 110.924 104.681 110.076C104.137 109.212 103.865 108.18 103.865 106.98C103.865 105.764 104.129 104.732 104.657 103.884C105.185 103.02 105.945 102.364 106.937 101.916C107.929 101.452 109.129 101.22 110.537 101.22C111.929 101.22 113.097 101.436 114.041 101.868C115.001 102.284 115.721 102.908 116.201 103.74C116.697 104.556 116.945 105.564 116.945 106.764C116.945 106.972 116.945 107.18 116.945 107.388C116.945 107.58 116.929 107.764 116.897 107.94H106.409V105.684H112.553L111.641 106.788C111.737 106.644 111.817 106.492 111.881 106.332C111.945 106.172 111.977 106.036 111.977 105.924C111.977 105.54 111.913 105.212 111.785 104.94C111.657 104.668 111.473 104.46 111.233 104.316C111.009 104.172 110.737 104.1 110.417 104.1C109.985 104.1 109.633 104.204 109.361 104.412C109.089 104.604 108.889 104.916 108.761 105.348C108.633 105.764 108.569 106.308 108.569 106.98C108.553 107.54 108.617 108.02 108.761 108.42C108.921 108.804 109.145 109.1 109.433 109.308C109.737 109.516 110.105 109.62 110.537 109.62C111.113 109.62 111.593 109.532 111.977 109.356C112.361 109.164 112.649 108.892 112.841 108.54L117.113 109.212C116.521 110.396 115.697 111.284 114.641 111.876C113.601 112.452 112.313 112.74 110.777 112.74Z" fill="white"/>
<defs>
<clipPath id="clip0_1252_2040">
<rect width="62" height="49" fill="white" transform="translate(46 32.5)"/>
</clipPath>
</defs>
</svg>
