<svg width="154" height="154" viewBox="0 0 154 154" fill="none" xmlns="http://www.w3.org/2000/svg">
<rect width="154" height="154" rx="10" fill="#BDA8DD"/>
<g clip-path="url(#clip0_1252_2036)">
<path d="M61.8448 34.6216C62.527 33.281 64.0849 32.6623 65.477 33.1779L77.0004 37.4529L88.5238 33.1779C89.9159 32.6623 91.4738 33.281 92.156 34.6216L99.4204 48.956C102.075 54.1873 100.37 60.4216 95.8712 63.6373L98.7659 71.7185L102.546 70.3123C104.076 69.7498 105.772 70.5466 106.325 72.1029C106.878 73.6591 106.095 75.3842 104.564 75.9467L98.0099 78.3748L91.4554 80.8123C89.9251 81.3842 88.2288 80.5779 87.6757 79.0216C87.1226 77.4654 87.9062 75.7404 89.4365 75.1779L93.2162 73.7716L90.3307 65.6904C84.8548 66.1779 79.6185 62.5029 78.3463 56.7654L77.0004 50.6998L75.6545 56.7654C74.3823 62.5123 69.146 66.1779 63.6701 65.6904L60.7846 73.7716L64.5643 75.1779C66.0946 75.7404 66.8874 77.4654 66.3251 79.0216C65.7627 80.5779 64.0757 81.3842 62.5454 80.8123L56.0001 78.3842L49.4455 75.956C47.9152 75.3842 47.1224 73.6685 47.6848 72.1123C48.2471 70.556 49.9341 69.7498 51.4645 70.3217L55.2441 71.7279L58.1296 63.6466C53.6309 60.4216 51.9346 54.1873 54.5896 48.956L61.8448 34.6216ZM65.901 39.7216L63.3935 44.6716L71.6166 47.7185L72.8243 42.2904L65.901 39.7216ZM88.109 39.7216L81.1857 42.2904L82.3934 47.7185L90.6165 44.6716L88.109 39.7216Z" fill="#F7F4FB"/>
</g>
<path d="M43.0758 103.96V101.8H45.7878C46.1878 101.8 46.5158 101.744 46.7718 101.632C47.0278 101.52 47.2198 101.36 47.3478 101.152C47.4758 100.944 47.5398 100.696 47.5398 100.408C47.5398 99.976 47.3958 99.664 47.1078 99.472C46.8358 99.264 46.3958 99.16 45.7878 99.16H44.4678V108.04H46.2678C46.6678 108.04 47.0358 108.008 47.3718 107.944C47.7078 107.88 47.9798 107.744 48.1878 107.536C48.3958 107.328 48.4998 107 48.4998 106.552C48.4998 106.28 48.4358 106.064 48.3078 105.904C48.1958 105.728 48.0358 105.6 47.8278 105.52C47.6198 105.424 47.3798 105.36 47.1078 105.328C46.8518 105.296 46.5718 105.28 46.2678 105.28H43.0758V102.4H46.9878C47.8038 102.4 48.6198 102.496 49.4358 102.688C50.2678 102.864 51.0278 103.152 51.7158 103.552C52.4038 103.952 52.9558 104.472 53.3718 105.112C53.8038 105.736 54.0198 106.496 54.0198 107.392C54.0198 108.512 53.7398 109.408 53.1798 110.08C52.6358 110.752 51.8358 111.24 50.7798 111.544C49.7398 111.848 48.4758 112 46.9878 112H39.1878V95.2H46.5078C47.7558 95.2 48.8678 95.36 49.8438 95.68C50.8358 96 51.6198 96.48 52.1958 97.12C52.7718 97.76 53.0598 98.56 53.0598 99.52C53.0598 100.464 52.7718 101.272 52.1958 101.944C51.6198 102.6 50.8358 103.104 49.8438 103.456C48.8678 103.792 47.7558 103.96 46.5078 103.96H43.0758ZM60.1528 108.52C60.1528 108.728 60.2008 108.904 60.2968 109.048C60.4088 109.176 60.5448 109.28 60.7048 109.36C60.8808 109.424 61.0648 109.456 61.2568 109.456C61.5608 109.456 61.8488 109.392 62.1208 109.264C62.4088 109.12 62.6408 108.904 62.8168 108.616C63.0088 108.312 63.1048 107.92 63.1048 107.44L63.4888 108.88C63.4888 109.584 63.3128 110.192 62.9608 110.704C62.6088 111.2 62.1288 111.584 61.5208 111.856C60.9128 112.112 60.2248 112.24 59.4568 112.24C58.7368 112.24 58.0728 112.112 57.4648 111.856C56.8568 111.6 56.3688 111.216 56.0008 110.704C55.6328 110.176 55.4488 109.536 55.4488 108.784C55.4488 107.728 55.8168 106.904 56.5527 106.312C57.3048 105.704 58.3848 105.4 59.7928 105.4C60.3688 105.4 60.9208 105.448 61.4488 105.544C61.9928 105.64 62.4728 105.776 62.8888 105.952C63.3208 106.112 63.6568 106.32 63.8968 106.576V108.472C63.6248 108.232 63.2568 108.04 62.7928 107.896C62.3448 107.752 61.8808 107.68 61.4008 107.68C61.0968 107.68 60.8488 107.712 60.6568 107.776C60.4808 107.84 60.3528 107.936 60.2728 108.064C60.1928 108.176 60.1528 108.328 60.1528 108.52ZM57.7288 104.848L56.3128 101.824C57.0808 101.52 57.9448 101.24 58.9048 100.984C59.8808 100.728 60.8968 100.6 61.9528 100.6C62.9928 100.6 63.9368 100.744 64.7848 101.032C65.6328 101.32 66.3048 101.744 66.8008 102.304C67.2968 102.848 67.5448 103.52 67.5448 104.32V112H63.1048V105.472C63.1048 105.264 63.0728 105.072 63.0088 104.896C62.9448 104.72 62.8408 104.568 62.6968 104.44C62.5528 104.296 62.3608 104.192 62.1208 104.128C61.8808 104.048 61.5928 104.008 61.2568 104.008C60.8088 104.008 60.3368 104.064 59.8408 104.176C59.3448 104.272 58.9048 104.392 58.5208 104.536C58.1368 104.664 57.8728 104.768 57.7288 104.848ZM74.51 100.96V112H69.95V100.96H74.51ZM77.606 105.712C77.462 105.52 77.278 105.36 77.054 105.232C76.83 105.104 76.558 105.04 76.238 105.04C75.966 105.04 75.694 105.12 75.422 105.28C75.15 105.44 74.926 105.688 74.75 106.024C74.59 106.36 74.51 106.792 74.51 107.32L73.646 105.28C73.646 104.4 73.83 103.616 74.198 102.928C74.566 102.24 75.046 101.696 75.638 101.296C76.246 100.88 76.886 100.672 77.558 100.672C77.958 100.672 78.342 100.776 78.71 100.984C79.094 101.176 79.358 101.408 79.502 101.68L77.606 105.712ZM85.385 100.96V112H80.825V100.96H85.385ZM88.481 105.712C88.337 105.52 88.153 105.36 87.929 105.232C87.705 105.104 87.433 105.04 87.113 105.04C86.841 105.04 86.569 105.12 86.297 105.28C86.025 105.44 85.801 105.688 85.625 106.024C85.465 106.36 85.385 106.792 85.385 107.32L84.521 105.28C84.521 104.4 84.705 103.616 85.073 102.928C85.441 102.24 85.921 101.696 86.513 101.296C87.121 100.88 87.761 100.672 88.433 100.672C88.833 100.672 89.217 100.776 89.585 100.984C89.969 101.176 90.233 101.408 90.377 101.68L88.481 105.712ZM97.7804 112.24C96.3404 112.24 95.1004 112.008 94.0604 111.544C93.0364 111.08 92.2444 110.424 91.6844 109.576C91.1404 108.712 90.8684 107.68 90.8684 106.48C90.8684 105.264 91.1324 104.232 91.6604 103.384C92.1884 102.52 92.9484 101.864 93.9404 101.416C94.9324 100.952 96.1324 100.72 97.5404 100.72C98.9324 100.72 100.1 100.936 101.044 101.368C102.004 101.784 102.724 102.408 103.204 103.24C103.7 104.056 103.948 105.064 103.948 106.264C103.948 106.472 103.948 106.68 103.948 106.888C103.948 107.08 103.932 107.264 103.9 107.44H93.4124V105.184H99.5564L98.6444 106.288C98.7404 106.144 98.8204 105.992 98.8844 105.832C98.9484 105.672 98.9804 105.536 98.9804 105.424C98.9804 105.04 98.9164 104.712 98.7884 104.44C98.6604 104.168 98.4764 103.96 98.2364 103.816C98.0124 103.672 97.7404 103.6 97.4204 103.6C96.9884 103.6 96.6364 103.704 96.3644 103.912C96.0924 104.104 95.8924 104.416 95.7644 104.848C95.6364 105.264 95.5724 105.808 95.5724 106.48C95.5564 107.04 95.6204 107.52 95.7644 107.92C95.9244 108.304 96.1484 108.6 96.4364 108.808C96.7404 109.016 97.1084 109.12 97.5404 109.12C98.1164 109.12 98.5964 109.032 98.9804 108.856C99.3644 108.664 99.6524 108.392 99.8444 108.04L104.116 108.712C103.524 109.896 102.7 110.784 101.644 111.376C100.604 111.952 99.3164 112.24 97.7804 112.24ZM106.645 107.608C107.413 108.152 108.069 108.552 108.613 108.808C109.173 109.048 109.621 109.2 109.957 109.264C110.309 109.328 110.549 109.36 110.677 109.36C110.933 109.36 111.109 109.312 111.205 109.216C111.317 109.104 111.373 108.968 111.373 108.808C111.373 108.664 111.325 108.536 111.229 108.424C111.149 108.312 110.949 108.192 110.629 108.064C110.309 107.92 109.805 107.744 109.117 107.536C108.573 107.36 108.061 107.144 107.581 106.888C107.117 106.616 106.741 106.248 106.453 105.784C106.165 105.32 106.021 104.72 106.021 103.984C106.021 103.296 106.205 102.712 106.573 102.232C106.941 101.736 107.453 101.36 108.109 101.104C108.781 100.848 109.573 100.72 110.485 100.72C111.157 100.72 111.781 100.784 112.357 100.912C112.933 101.024 113.493 101.176 114.037 101.368C114.581 101.56 115.125 101.784 115.669 102.04L114.517 105.232C113.973 104.768 113.357 104.4 112.669 104.128C111.997 103.84 111.437 103.696 110.989 103.696C110.701 103.696 110.509 103.744 110.413 103.84C110.317 103.936 110.269 104.04 110.269 104.152C110.269 104.36 110.357 104.528 110.533 104.656C110.725 104.768 111.013 104.88 111.397 104.992C111.797 105.104 112.317 105.28 112.957 105.52C113.485 105.712 113.981 105.936 114.445 106.192C114.909 106.448 115.285 106.784 115.573 107.2C115.861 107.616 116.005 108.176 116.005 108.88C116.005 110.192 115.629 111.144 114.877 111.736C114.125 112.312 113.037 112.6 111.613 112.6C110.781 112.6 109.997 112.528 109.261 112.384C108.525 112.256 107.821 112.064 107.149 111.808C106.477 111.552 105.805 111.248 105.133 110.896L106.645 107.608Z" fill="white"/>
<defs>
<clipPath id="clip0_1252_2036">
<rect width="59" height="48" fill="white" transform="translate(47.5 33)"/>
</clipPath>
</defs>
</svg>
