<svg width="154" height="154" viewBox="0 0 154 154" fill="none" xmlns="http://www.w3.org/2000/svg">
<rect width="154" height="154" rx="10" fill="#BDA8DD"/>
<g clip-path="url(#clip0_1252_2026)">
<path d="M54.5 33H66.5C66.9969 33 67.4656 33.2531 67.7469 33.6656L75.35 45.0656C70.7094 45.45 66.5375 47.4656 63.3875 50.5312L53.2531 35.3344C52.9438 34.875 52.9156 34.2844 53.1781 33.7969C53.4406 33.3094 53.9469 33 54.5 33ZM100.747 35.3344L90.6125 50.5406C87.4719 47.475 83.2906 45.4594 78.65 45.075L86.2531 33.6656C86.5344 33.2437 87.0031 33 87.5 33H99.5C100.053 33 100.559 33.3 100.822 33.7969C101.084 34.2938 101.056 34.875 100.747 35.3344ZM93.5 64.5C93.5 73.6125 86.1125 81 77 81C67.8875 81 60.5 73.6125 60.5 64.5C60.5 55.3875 67.8875 48 77 48C86.1125 48 93.5 55.3875 93.5 64.5ZM77.7875 55.6031C77.4688 54.9469 76.5406 54.9469 76.2125 55.6031L74.1125 59.8594C73.9813 60.1219 73.7375 60.3 73.4563 60.3375L68.75 61.0219C68.0281 61.125 67.7469 62.0062 68.2625 62.5219L71.6656 65.8406C71.8719 66.0469 71.9656 66.3281 71.9188 66.6188L71.1125 71.2969C70.9906 72.0094 71.7406 72.5625 72.3875 72.225L76.5875 70.0125C76.8406 69.8812 77.15 69.8812 77.4031 70.0125L81.6031 72.225C82.25 72.5625 83 72.0187 82.8781 71.2969L82.0719 66.6188C82.025 66.3375 82.1188 66.0469 82.325 65.8406L85.7281 62.5219C86.2531 62.0156 85.9625 61.1344 85.2406 61.0219L80.5438 60.3375C80.2625 60.3 80.0094 60.1125 79.8875 59.8594L77.7875 55.6031Z" fill="#F7F4FB"/>
</g>
<path d="M16.0667 95.2H21.5627V112H16.0667V95.2ZM22.6667 112H19.7147V107.44H22.4267C22.8907 107.44 23.3627 107.4 23.8427 107.32C24.3227 107.24 24.7627 107.072 25.1627 106.816C25.5627 106.56 25.8827 106.176 26.1227 105.664C26.3787 105.152 26.5067 104.464 26.5067 103.6C26.5067 102.736 26.3787 102.048 26.1227 101.536C25.8827 101.024 25.5627 100.64 25.1627 100.384C24.7627 100.128 24.3227 99.96 23.8427 99.88C23.3627 99.8 22.8907 99.76 22.4267 99.76H19.7147V95.2H22.6667C24.6187 95.2 26.2907 95.536 27.6827 96.208C29.0907 96.88 30.1627 97.84 30.8987 99.088C31.6507 100.336 32.0267 101.84 32.0267 103.6C32.0267 105.344 31.6507 106.848 30.8987 108.112C30.1627 109.36 29.0907 110.32 27.6827 110.992C26.2907 111.664 24.6187 112 22.6667 112ZM40.3703 112.24C38.9303 112.24 37.6903 112.008 36.6503 111.544C35.6263 111.08 34.8343 110.424 34.2743 109.576C33.7303 108.712 33.4583 107.68 33.4583 106.48C33.4583 105.264 33.7223 104.232 34.2503 103.384C34.7783 102.52 35.5383 101.864 36.5303 101.416C37.5223 100.952 38.7223 100.72 40.1303 100.72C41.5223 100.72 42.6903 100.936 43.6343 101.368C44.5943 101.784 45.3143 102.408 45.7943 103.24C46.2903 104.056 46.5383 105.064 46.5383 106.264C46.5383 106.472 46.5383 106.68 46.5383 106.888C46.5383 107.08 46.5223 107.264 46.4903 107.44H36.0023V105.184H42.1463L41.2343 106.288C41.3303 106.144 41.4103 105.992 41.4743 105.832C41.5383 105.672 41.5703 105.536 41.5703 105.424C41.5703 105.04 41.5063 104.712 41.3783 104.44C41.2503 104.168 41.0663 103.96 40.8263 103.816C40.6023 103.672 40.3303 103.6 40.0103 103.6C39.5783 103.6 39.2263 103.704 38.9543 103.912C38.6823 104.104 38.4823 104.416 38.3543 104.848C38.2263 105.264 38.1623 105.808 38.1623 106.48C38.1463 107.04 38.2103 107.52 38.3543 107.92C38.5143 108.304 38.7383 108.6 39.0263 108.808C39.3303 109.016 39.6983 109.12 40.1303 109.12C40.7063 109.12 41.1863 109.032 41.5703 108.856C41.9543 108.664 42.2423 108.392 42.4343 108.04L46.7063 108.712C46.1143 109.896 45.2903 110.784 44.2343 111.376C43.1943 111.952 41.9063 112.24 40.3703 112.24ZM49.2353 107.608C50.0033 108.152 50.6593 108.552 51.2033 108.808C51.7633 109.048 52.2113 109.2 52.5473 109.264C52.8993 109.328 53.1393 109.36 53.2673 109.36C53.5233 109.36 53.6993 109.312 53.7953 109.216C53.9073 109.104 53.9633 108.968 53.9633 108.808C53.9633 108.664 53.9153 108.536 53.8193 108.424C53.7393 108.312 53.5393 108.192 53.2193 108.064C52.8993 107.92 52.3953 107.744 51.7073 107.536C51.1633 107.36 50.6513 107.144 50.1713 106.888C49.7073 106.616 49.3313 106.248 49.0433 105.784C48.7553 105.32 48.6113 104.72 48.6113 103.984C48.6113 103.296 48.7953 102.712 49.1633 102.232C49.5313 101.736 50.0433 101.36 50.6993 101.104C51.3713 100.848 52.1633 100.72 53.0753 100.72C53.7473 100.72 54.3713 100.784 54.9473 100.912C55.5233 101.024 56.0833 101.176 56.6273 101.368C57.1713 101.56 57.7153 101.784 58.2593 102.04L57.1073 105.232C56.5633 104.768 55.9473 104.4 55.2593 104.128C54.5873 103.84 54.0273 103.696 53.5793 103.696C53.2913 103.696 53.0993 103.744 53.0033 103.84C52.9073 103.936 52.8593 104.04 52.8593 104.152C52.8593 104.36 52.9473 104.528 53.1233 104.656C53.3153 104.768 53.6033 104.88 53.9873 104.992C54.3873 105.104 54.9073 105.28 55.5473 105.52C56.0753 105.712 56.5713 105.936 57.0353 106.192C57.4993 106.448 57.8753 106.784 58.1633 107.2C58.4513 107.616 58.5953 108.176 58.5953 108.88C58.5953 110.192 58.2193 111.144 57.4673 111.736C56.7153 112.312 55.6273 112.6 54.2033 112.6C53.3713 112.6 52.5873 112.528 51.8513 112.384C51.1153 112.256 50.4113 112.064 49.7393 111.808C49.0673 111.552 48.3953 111.248 47.7233 110.896L49.2353 107.608ZM68.1493 107.608C68.9173 108.152 69.5733 108.552 70.1173 108.808C70.6773 109.048 71.1253 109.2 71.4613 109.264C71.8133 109.328 72.0533 109.36 72.1813 109.36C72.4373 109.36 72.6133 109.312 72.7093 109.216C72.8213 109.104 72.8773 108.968 72.8773 108.808C72.8773 108.664 72.8293 108.536 72.7333 108.424C72.6533 108.312 72.4533 108.192 72.1333 108.064C71.8133 107.92 71.3093 107.744 70.6213 107.536C70.0773 107.36 69.5653 107.144 69.0853 106.888C68.6213 106.616 68.2453 106.248 67.9573 105.784C67.6693 105.32 67.5253 104.72 67.5253 103.984C67.5253 103.296 67.7093 102.712 68.0773 102.232C68.4453 101.736 68.9573 101.36 69.6133 101.104C70.2853 100.848 71.0773 100.72 71.9893 100.72C72.6613 100.72 73.2853 100.784 73.8613 100.912C74.4373 101.024 74.9973 101.176 75.5413 101.368C76.0853 101.56 76.6293 101.784 77.1733 102.04L76.0213 105.232C75.4773 104.768 74.8613 104.4 74.1733 104.128C73.5013 103.84 72.9413 103.696 72.4933 103.696C72.2053 103.696 72.0133 103.744 71.9173 103.84C71.8213 103.936 71.7733 104.04 71.7733 104.152C71.7733 104.36 71.8613 104.528 72.0373 104.656C72.2293 104.768 72.5173 104.88 72.9013 104.992C73.3013 105.104 73.8213 105.28 74.4613 105.52C74.9893 105.712 75.4853 105.936 75.9493 106.192C76.4133 106.448 76.7893 106.784 77.0773 107.2C77.3653 107.616 77.5093 108.176 77.5093 108.88C77.5093 110.192 77.1333 111.144 76.3813 111.736C75.6293 112.312 74.5413 112.6 73.1173 112.6C72.2853 112.6 71.5013 112.528 70.7653 112.384C70.0293 112.256 69.3253 112.064 68.6533 111.808C67.9813 111.552 67.3093 111.248 66.6373 110.896L68.1493 107.608ZM83.8761 117.28H79.1961V100.96H83.8761V117.28ZM92.7561 106.48C92.7561 107.824 92.5001 108.944 91.9881 109.84C91.4921 110.72 90.8521 111.384 90.0681 111.832C89.3001 112.264 88.4921 112.48 87.6441 112.48C86.6521 112.48 85.8041 112.232 85.1001 111.736C84.4121 111.224 83.8921 110.52 83.5401 109.624C83.1881 108.712 83.0121 107.664 83.0121 106.48C83.0121 105.28 83.1881 104.232 83.5401 103.336C83.8921 102.44 84.4121 101.744 85.1001 101.248C85.8041 100.736 86.6521 100.48 87.6441 100.48C88.4921 100.48 89.3001 100.704 90.0681 101.152C90.8521 101.584 91.4921 102.24 91.9881 103.12C92.5001 104 92.7561 105.12 92.7561 106.48ZM87.8121 106.48C87.8121 106.064 87.7241 105.72 87.5481 105.448C87.3721 105.16 87.1321 104.944 86.8281 104.8C86.5401 104.64 86.2121 104.56 85.8441 104.56C85.5241 104.56 85.2121 104.632 84.9081 104.776C84.6041 104.904 84.3561 105.112 84.1641 105.4C83.9721 105.672 83.8761 106.032 83.8761 106.48C83.8761 106.928 83.9721 107.296 84.1641 107.584C84.3561 107.856 84.6041 108.064 84.9081 108.208C85.2121 108.336 85.5241 108.4 85.8441 108.4C86.2121 108.4 86.5401 108.328 86.8281 108.184C87.1321 108.024 87.3721 107.8 87.5481 107.512C87.7241 107.224 87.8121 106.88 87.8121 106.48ZM94.1848 106.48C94.1848 105.28 94.4728 104.248 95.0488 103.384C95.6248 102.52 96.4168 101.856 97.4248 101.392C98.4328 100.928 99.5768 100.696 100.857 100.696C102.137 100.696 103.281 100.928 104.289 101.392C105.297 101.856 106.089 102.52 106.665 103.384C107.241 104.248 107.529 105.28 107.529 106.48C107.529 107.664 107.241 108.688 106.665 109.552C106.089 110.416 105.297 111.08 104.289 111.544C103.281 112.008 102.137 112.24 100.857 112.24C99.5768 112.24 98.4328 112.008 97.4248 111.544C96.4168 111.08 95.6248 110.416 95.0488 109.552C94.4728 108.688 94.1848 107.664 94.1848 106.48ZM99.0088 106.48C99.0088 106.928 99.0968 107.304 99.2728 107.608C99.4488 107.912 99.6728 108.144 99.9448 108.304C100.233 108.448 100.537 108.52 100.857 108.52C101.177 108.52 101.473 108.448 101.745 108.304C102.033 108.144 102.265 107.912 102.441 107.608C102.617 107.304 102.705 106.928 102.705 106.48C102.705 106.032 102.617 105.656 102.441 105.352C102.265 105.048 102.033 104.816 101.745 104.656C101.473 104.496 101.177 104.416 100.857 104.416C100.537 104.416 100.233 104.496 99.9448 104.656C99.6728 104.816 99.4488 105.048 99.2728 105.352C99.0968 105.656 99.0088 106.032 99.0088 106.48ZM114.014 100.96V112H109.454V100.96H114.014ZM117.11 105.712C116.966 105.52 116.782 105.36 116.558 105.232C116.334 105.104 116.062 105.04 115.742 105.04C115.47 105.04 115.198 105.12 114.926 105.28C114.654 105.44 114.43 105.688 114.254 106.024C114.094 106.36 114.014 106.792 114.014 107.32L113.15 105.28C113.15 104.4 113.334 103.616 113.702 102.928C114.07 102.24 114.55 101.696 115.142 101.296C115.75 100.88 116.39 100.672 117.062 100.672C117.462 100.672 117.846 100.776 118.214 100.984C118.598 101.176 118.862 101.408 119.006 101.68L117.11 105.712ZM119.249 100.96H127.769V104.68H119.249V100.96ZM121.289 97.12H125.729V112H121.289V97.12ZM129.767 107.608C130.535 108.152 131.191 108.552 131.735 108.808C132.295 109.048 132.743 109.2 133.079 109.264C133.431 109.328 133.671 109.36 133.799 109.36C134.055 109.36 134.231 109.312 134.327 109.216C134.439 109.104 134.495 108.968 134.495 108.808C134.495 108.664 134.447 108.536 134.351 108.424C134.271 108.312 134.071 108.192 133.751 108.064C133.431 107.92 132.927 107.744 132.239 107.536C131.695 107.36 131.183 107.144 130.703 106.888C130.239 106.616 129.863 106.248 129.575 105.784C129.287 105.32 129.143 104.72 129.143 103.984C129.143 103.296 129.327 102.712 129.695 102.232C130.063 101.736 130.575 101.36 131.231 101.104C131.903 100.848 132.695 100.72 133.607 100.72C134.279 100.72 134.903 100.784 135.479 100.912C136.055 101.024 136.615 101.176 137.159 101.368C137.703 101.56 138.247 101.784 138.791 102.04L137.639 105.232C137.095 104.768 136.479 104.4 135.791 104.128C135.119 103.84 134.559 103.696 134.111 103.696C133.823 103.696 133.631 103.744 133.535 103.84C133.439 103.936 133.391 104.04 133.391 104.152C133.391 104.36 133.479 104.528 133.655 104.656C133.847 104.768 134.135 104.88 134.519 104.992C134.919 105.104 135.439 105.28 136.079 105.52C136.607 105.712 137.103 105.936 137.567 106.192C138.031 106.448 138.407 106.784 138.695 107.2C138.983 107.616 139.127 108.176 139.127 108.88C139.127 110.192 138.751 111.144 137.999 111.736C137.247 112.312 136.159 112.6 134.735 112.6C133.903 112.6 133.119 112.528 132.383 112.384C131.647 112.256 130.943 112.064 130.271 111.808C129.599 111.552 128.927 111.248 128.255 110.896L129.767 107.608Z" fill="white"/>
<defs>
<clipPath id="clip0_1252_2026">
<rect width="48" height="48" fill="white" transform="translate(53 33)"/>
</clipPath>
</defs>
</svg>
