<svg width="154" height="154" viewBox="0 0 154 154" fill="none" xmlns="http://www.w3.org/2000/svg">
<rect width="154" height="154" rx="10" fill="#BDA8DD"/>
<path d="M70.3567 32.5298C71.1576 31.8169 72.4 31.8267 73.2009 32.5395C76.0348 35.0687 78.6942 37.7932 81.179 40.7423C82.3085 39.3361 83.592 37.803 84.9781 36.553C85.7893 35.8304 87.042 35.8304 87.8531 36.5628C91.4058 39.7853 94.4143 44.0429 96.5295 48.0857C98.6138 52.0698 100 56.1419 100 59.0129C100 71.4732 89.7527 82 77 82C64.1036 82 54 71.4634 54 59.0031C54 55.2533 55.8277 50.6734 58.6616 46.1424C61.5263 41.543 65.5719 36.7483 70.3567 32.5298ZM77.1746 72.6255C79.7723 72.6255 82.0723 71.9419 84.2388 70.5748C88.5616 67.7038 89.7219 61.9619 87.1241 57.4504C86.6621 56.5716 85.4813 56.513 84.8138 57.2551L82.2263 60.1163C81.5487 60.8585 80.3268 60.8389 79.6902 60.0675C77.996 58.0168 74.967 54.3549 73.242 52.2749C72.5951 51.4937 71.3629 51.4839 70.7058 52.2651C67.2353 56.4153 65.4897 59.0324 65.4897 61.9717C65.5 68.6608 70.6955 72.6255 77.1746 72.6255Z" fill="#F7F4FB"/>
<path d="M40.0592 104.408L43.2992 96.2H49.5392L40.0592 114.2L30.5792 96.2H36.8192L40.0592 104.408ZM55.1359 113.24C53.6959 113.24 52.4559 113.008 51.4159 112.544C50.3919 112.08 49.5999 111.424 49.0399 110.576C48.4959 109.712 48.2239 108.68 48.2239 107.48C48.2239 106.264 48.4879 105.232 49.0159 104.384C49.5439 103.52 50.3039 102.864 51.2959 102.416C52.2879 101.952 53.4879 101.72 54.8959 101.72C56.2879 101.72 57.4559 101.936 58.3999 102.368C59.3599 102.784 60.0799 103.408 60.5599 104.24C61.0559 105.056 61.3039 106.064 61.3039 107.264C61.3039 107.472 61.3039 107.68 61.3039 107.888C61.3039 108.08 61.2879 108.264 61.2559 108.44H50.7679V106.184H56.9119L55.9999 107.288C56.0959 107.144 56.1759 106.992 56.2399 106.832C56.3039 106.672 56.3359 106.536 56.3359 106.424C56.3359 106.04 56.2719 105.712 56.1439 105.44C56.0159 105.168 55.8319 104.96 55.5919 104.816C55.3679 104.672 55.0959 104.6 54.7759 104.6C54.3439 104.6 53.9919 104.704 53.7199 104.912C53.4479 105.104 53.2479 105.416 53.1199 105.848C52.9919 106.264 52.9279 106.808 52.9279 107.48C52.9119 108.04 52.9759 108.52 53.1199 108.92C53.2799 109.304 53.5039 109.6 53.7919 109.808C54.0959 110.016 54.4639 110.12 54.8959 110.12C55.4719 110.12 55.9519 110.032 56.3359 109.856C56.7199 109.664 57.0079 109.392 57.1999 109.04L61.4719 109.712C60.8799 110.896 60.0559 111.784 58.9999 112.376C57.9599 112.952 56.6719 113.24 55.1359 113.24ZM67.8889 101.96V113H63.3289V101.96H67.8889ZM70.9849 106.712C70.8409 106.52 70.6569 106.36 70.4329 106.232C70.2089 106.104 69.9369 106.04 69.6169 106.04C69.3449 106.04 69.0729 106.12 68.8009 106.28C68.5289 106.44 68.3049 106.688 68.1289 107.024C67.9689 107.36 67.8889 107.792 67.8889 108.32L67.0249 106.28C67.0249 105.4 67.2089 104.616 67.5769 103.928C67.9449 103.24 68.4249 102.696 69.0169 102.296C69.6249 101.88 70.2649 101.672 70.9369 101.672C71.3369 101.672 71.7209 101.776 72.0889 101.984C72.4729 102.176 72.7369 102.408 72.8809 102.68L70.9849 106.712ZM80.2843 113.24C78.8443 113.24 77.6043 113.008 76.5643 112.544C75.5403 112.08 74.7483 111.424 74.1883 110.576C73.6443 109.712 73.3723 108.68 73.3723 107.48C73.3723 106.264 73.6363 105.232 74.1643 104.384C74.6923 103.52 75.4523 102.864 76.4443 102.416C77.4363 101.952 78.6363 101.72 80.0443 101.72C81.4363 101.72 82.6043 101.936 83.5483 102.368C84.5083 102.784 85.2283 103.408 85.7083 104.24C86.2043 105.056 86.4523 106.064 86.4523 107.264C86.4523 107.472 86.4523 107.68 86.4523 107.888C86.4523 108.08 86.4363 108.264 86.4043 108.44H75.9163V106.184H82.0603L81.1483 107.288C81.2443 107.144 81.3243 106.992 81.3883 106.832C81.4523 106.672 81.4843 106.536 81.4843 106.424C81.4843 106.04 81.4203 105.712 81.2923 105.44C81.1643 105.168 80.9803 104.96 80.7403 104.816C80.5163 104.672 80.2443 104.6 79.9243 104.6C79.4923 104.6 79.1403 104.704 78.8683 104.912C78.5963 105.104 78.3963 105.416 78.2683 105.848C78.1403 106.264 78.0763 106.808 78.0763 107.48C78.0603 108.04 78.1243 108.52 78.2683 108.92C78.4283 109.304 78.6523 109.6 78.9403 109.808C79.2443 110.016 79.6123 110.12 80.0443 110.12C80.6203 110.12 81.1003 110.032 81.4843 109.856C81.8683 109.664 82.1563 109.392 82.3483 109.04L86.6203 109.712C86.0283 110.896 85.2043 111.784 84.1483 112.376C83.1083 112.952 81.8203 113.24 80.2843 113.24ZM88.1173 98.072C88.1173 97.368 88.3653 96.8 88.8613 96.368C89.3733 95.936 89.9893 95.72 90.7093 95.72C91.4293 95.72 92.0373 95.936 92.5333 96.368C93.0453 96.8 93.3013 97.368 93.3013 98.072C93.3013 98.776 93.0453 99.344 92.5333 99.776C92.0373 100.208 91.4293 100.424 90.7093 100.424C89.9893 100.424 89.3733 100.208 88.8613 99.776C88.3653 99.344 88.1173 98.776 88.1173 98.072ZM88.4533 101.96H92.9413V113H88.4533V101.96ZM102.545 106.28C102.545 105.784 102.473 105.4 102.329 105.128C102.185 104.84 101.873 104.696 101.393 104.696C101.121 104.696 100.881 104.752 100.673 104.864C100.465 104.976 100.305 105.152 100.193 105.392C100.081 105.616 100.025 105.912 100.025 106.28V113H95.3445V101.96H100.025V103.568C100.329 103.008 100.753 102.56 101.297 102.224C101.857 101.872 102.569 101.696 103.433 101.696C104.937 101.696 105.985 102.056 106.577 102.776C107.169 103.48 107.465 104.488 107.465 105.8V113H102.545V106.28ZM116.308 113.24C114.868 113.24 113.628 113.008 112.588 112.544C111.564 112.08 110.772 111.424 110.212 110.576C109.668 109.712 109.396 108.68 109.396 107.48C109.396 106.264 109.66 105.232 110.188 104.384C110.716 103.52 111.476 102.864 112.468 102.416C113.46 101.952 114.66 101.72 116.068 101.72C117.46 101.72 118.628 101.936 119.572 102.368C120.532 102.784 121.252 103.408 121.732 104.24C122.228 105.056 122.476 106.064 122.476 107.264C122.476 107.472 122.476 107.68 122.476 107.888C122.476 108.08 122.46 108.264 122.428 108.44H111.94V106.184H118.084L117.172 107.288C117.268 107.144 117.348 106.992 117.412 106.832C117.476 106.672 117.508 106.536 117.508 106.424C117.508 106.04 117.444 105.712 117.316 105.44C117.188 105.168 117.004 104.96 116.764 104.816C116.54 104.672 116.268 104.6 115.948 104.6C115.516 104.6 115.164 104.704 114.892 104.912C114.62 105.104 114.42 105.416 114.292 105.848C114.164 106.264 114.1 106.808 114.1 107.48C114.084 108.04 114.148 108.52 114.292 108.92C114.452 109.304 114.676 109.6 114.964 109.808C115.268 110.016 115.636 110.12 116.068 110.12C116.644 110.12 117.124 110.032 117.508 109.856C117.892 109.664 118.18 109.392 118.372 109.04L122.644 109.712C122.052 110.896 121.228 111.784 120.172 112.376C119.132 112.952 117.844 113.24 116.308 113.24Z" fill="white"/>
</svg>
