<svg width="154" height="154" viewBox="0 0 154 154" fill="none" xmlns="http://www.w3.org/2000/svg">
<rect width="154" height="154" rx="10" fill="#BDA8DD"/>
<g clip-path="url(#clip0_1252_1950)">
<path d="M58.5 35.5625C58.5 33.8686 59.8779 32.5 61.5833 32.5H64.6667H89.3333H92.4167C94.1221 32.5 95.5 33.8686 95.5 35.5625C95.5 37.2564 94.1221 38.625 92.4167 38.625V39.6777C92.4167 43.7355 90.7883 47.6307 87.8977 50.5018L81.3648 57L87.9073 63.4982C90.7979 66.3693 92.4263 70.2645 92.4263 74.3223V75.375C94.1318 75.375 95.5096 76.7436 95.5096 78.4375C95.5096 80.1314 94.1318 81.5 92.4263 81.5H89.3333H64.6667H61.5833C59.8779 81.5 58.5 80.1314 58.5 78.4375C58.5 76.7436 59.8779 75.375 61.5833 75.375V74.3223C61.5833 70.2645 63.2117 66.3693 66.1023 63.4982L72.6352 57L66.1023 50.5018C63.2117 47.6307 61.5833 43.7355 61.5833 39.6777V38.625C59.8779 38.625 58.5 37.2564 58.5 35.5625ZM67.75 38.625V39.6777C67.75 42.1182 68.7232 44.4533 70.4576 46.176L77 52.6646L83.5424 46.1664C85.2768 44.4438 86.25 42.1086 86.25 39.6682V38.625H67.75ZM67.75 75.375H86.25V74.3223C86.25 71.8818 85.2768 69.5467 83.5424 67.824L77 61.3354L70.4576 67.8336C68.7232 69.5563 67.75 71.8914 67.75 74.3318V75.3846V75.375Z" fill="#F7F4FB"/>
</g>
<path d="M22.6208 106.74V102.9H31.5488C31.6768 104.34 31.5648 105.684 31.2128 106.932C30.8768 108.18 30.3248 109.276 29.5568 110.22C28.7888 111.164 27.8208 111.9 26.6528 112.428C25.4848 112.956 24.1408 113.22 22.6208 113.22C21.2128 113.22 19.9248 113.004 18.7568 112.572C17.5888 112.14 16.5728 111.524 15.7088 110.724C14.8608 109.924 14.1968 108.964 13.7168 107.844C13.2528 106.724 13.0208 105.476 13.0208 104.1C13.0208 102.724 13.2688 101.492 13.7648 100.404C14.2608 99.3 14.9488 98.364 15.8288 97.596C16.7248 96.828 17.7648 96.244 18.9488 95.844C20.1488 95.428 21.4528 95.22 22.8608 95.22C24.1408 95.22 25.2688 95.412 26.2448 95.796C27.2368 96.18 28.1008 96.692 28.8368 97.332C29.5888 97.956 30.2448 98.66 30.8048 99.444L25.8848 101.652C25.5968 101.124 25.2208 100.66 24.7568 100.26C24.2928 99.86 23.6608 99.66 22.8608 99.66C22.0768 99.66 21.3568 99.828 20.7008 100.164C20.0448 100.484 19.5168 100.972 19.1168 101.628C18.7328 102.284 18.5408 103.108 18.5408 104.1C18.5408 105.076 18.7168 105.916 19.0688 106.62C19.4368 107.324 19.9408 107.86 20.5808 108.228C21.2368 108.596 21.9968 108.78 22.8608 108.78C23.3408 108.78 23.7728 108.732 24.1568 108.636C24.5408 108.54 24.8688 108.404 25.1408 108.228C25.4288 108.052 25.6768 107.836 25.8848 107.58C26.0928 107.324 26.2688 107.044 26.4128 106.74H22.6208ZM40.0422 112.74C38.6022 112.74 37.3622 112.508 36.3222 112.044C35.2982 111.58 34.5062 110.924 33.9462 110.076C33.4022 109.212 33.1302 108.18 33.1302 106.98C33.1302 105.764 33.3942 104.732 33.9222 103.884C34.4502 103.02 35.2102 102.364 36.2022 101.916C37.1942 101.452 38.3942 101.22 39.8022 101.22C41.1942 101.22 42.3622 101.436 43.3062 101.868C44.2662 102.284 44.9862 102.908 45.4662 103.74C45.9622 104.556 46.2102 105.564 46.2102 106.764C46.2102 106.972 46.2102 107.18 46.2102 107.388C46.2102 107.58 46.1942 107.764 46.1622 107.94H35.6742V105.684H41.8182L40.9062 106.788C41.0022 106.644 41.0822 106.492 41.1462 106.332C41.2102 106.172 41.2422 106.036 41.2422 105.924C41.2422 105.54 41.1782 105.212 41.0502 104.94C40.9222 104.668 40.7382 104.46 40.4982 104.316C40.2742 104.172 40.0022 104.1 39.6822 104.1C39.2502 104.1 38.8982 104.204 38.6262 104.412C38.3542 104.604 38.1542 104.916 38.0262 105.348C37.8982 105.764 37.8342 106.308 37.8342 106.98C37.8182 107.54 37.8822 108.02 38.0262 108.42C38.1862 108.804 38.4102 109.1 38.6982 109.308C39.0022 109.516 39.3702 109.62 39.8022 109.62C40.3782 109.62 40.8582 109.532 41.2422 109.356C41.6262 109.164 41.9142 108.892 42.1062 108.54L46.3782 109.212C45.7862 110.396 44.9622 111.284 43.9062 111.876C42.8662 112.452 41.5782 112.74 40.0422 112.74ZM48.9072 108.108C49.6752 108.652 50.3312 109.052 50.8752 109.308C51.4352 109.548 51.8832 109.7 52.2192 109.764C52.5712 109.828 52.8112 109.86 52.9392 109.86C53.1952 109.86 53.3712 109.812 53.4672 109.716C53.5792 109.604 53.6352 109.468 53.6352 109.308C53.6352 109.164 53.5872 109.036 53.4912 108.924C53.4112 108.812 53.2112 108.692 52.8912 108.564C52.5712 108.42 52.0672 108.244 51.3792 108.036C50.8352 107.86 50.3232 107.644 49.8432 107.388C49.3792 107.116 49.0032 106.748 48.7152 106.284C48.4272 105.82 48.2832 105.22 48.2832 104.484C48.2832 103.796 48.4672 103.212 48.8352 102.732C49.2032 102.236 49.7152 101.86 50.3712 101.604C51.0432 101.348 51.8352 101.22 52.7472 101.22C53.4192 101.22 54.0432 101.284 54.6192 101.412C55.1952 101.524 55.7552 101.676 56.2992 101.868C56.8432 102.06 57.3872 102.284 57.9312 102.54L56.7792 105.732C56.2352 105.268 55.6192 104.9 54.9312 104.628C54.2592 104.34 53.6992 104.196 53.2512 104.196C52.9632 104.196 52.7712 104.244 52.6752 104.34C52.5792 104.436 52.5312 104.54 52.5312 104.652C52.5312 104.86 52.6192 105.028 52.7952 105.156C52.9872 105.268 53.2752 105.38 53.6592 105.492C54.0592 105.604 54.5792 105.78 55.2192 106.02C55.7472 106.212 56.2432 106.436 56.7072 106.692C57.1712 106.948 57.5472 107.284 57.8352 107.7C58.1232 108.116 58.2672 108.676 58.2672 109.38C58.2672 110.692 57.8912 111.644 57.1392 112.236C56.3872 112.812 55.2992 113.1 53.8752 113.1C53.0432 113.1 52.2592 113.028 51.5232 112.884C50.7872 112.756 50.0832 112.564 49.4112 112.308C48.7392 112.052 48.0672 111.748 47.3952 111.396L48.9072 108.108ZM64.2979 106.98C64.2979 107.46 64.4099 107.868 64.6339 108.204C64.8579 108.524 65.1539 108.772 65.5219 108.948C65.9059 109.108 66.3139 109.188 66.7459 109.188C67.0979 109.188 67.4419 109.14 67.7779 109.044C68.1299 108.948 68.4659 108.796 68.7859 108.588C69.1059 108.38 69.3859 108.108 69.6259 107.772V111.996C69.2419 112.204 68.8019 112.38 68.3059 112.524C67.8259 112.668 67.1459 112.74 66.2659 112.74C64.9539 112.74 63.7859 112.508 62.7619 112.044C61.7379 111.58 60.9299 110.916 60.3379 110.052C59.7619 109.188 59.4739 108.164 59.4739 106.98C59.4739 105.78 59.7619 104.756 60.3379 103.908C60.9299 103.044 61.7379 102.38 62.7619 101.916C63.7859 101.452 64.9539 101.22 66.2659 101.22C67.1459 101.22 67.8259 101.292 68.3059 101.436C68.8019 101.58 69.2419 101.74 69.6259 101.916V106.164C69.3859 105.812 69.0899 105.54 68.7379 105.348C68.3859 105.14 68.0339 104.996 67.6819 104.916C67.3299 104.82 67.0179 104.772 66.7459 104.772C66.3139 104.772 65.9059 104.876 65.5219 105.084C65.1539 105.276 64.8579 105.54 64.6339 105.876C64.4099 106.196 64.2979 106.564 64.2979 106.98ZM76.7042 93.78V112.5H72.0242V93.78H76.7042ZM79.2242 105.78C79.2242 105.284 79.1522 104.9 79.0082 104.628C78.8642 104.34 78.5522 104.196 78.0722 104.196C77.8002 104.196 77.5602 104.252 77.3522 104.364C77.1442 104.476 76.9842 104.652 76.8722 104.892C76.7602 105.116 76.7042 105.412 76.7042 105.78H76.0802C76.0802 104.9 76.2082 104.1 76.4642 103.38C76.7202 102.644 77.1442 102.06 77.7362 101.628C78.3282 101.18 79.1202 100.956 80.1122 100.956C81.1202 100.956 81.8962 101.116 82.4402 101.436C82.9842 101.756 83.3602 102.22 83.5682 102.828C83.7922 103.436 83.9042 104.18 83.9042 105.06V112.5H79.2242V105.78ZM85.9377 97.572C85.9377 96.868 86.1857 96.3 86.6817 95.868C87.1937 95.436 87.8097 95.22 88.5297 95.22C89.2497 95.22 89.8577 95.436 90.3537 95.868C90.8657 96.3 91.1217 96.868 91.1217 97.572C91.1217 98.276 90.8657 98.844 90.3537 99.276C89.8577 99.708 89.2497 99.924 88.5297 99.924C87.8097 99.924 87.1937 99.708 86.6817 99.276C86.1857 98.844 85.9377 98.276 85.9377 97.572ZM86.2737 101.46H90.7617V112.5H86.2737V101.46ZM97.5088 106.98C97.5088 107.46 97.6208 107.868 97.8448 108.204C98.0688 108.524 98.3648 108.772 98.7328 108.948C99.1168 109.108 99.5248 109.188 99.9568 109.188C100.309 109.188 100.653 109.14 100.989 109.044C101.341 108.948 101.677 108.796 101.997 108.588C102.317 108.38 102.597 108.108 102.837 107.772V111.996C102.453 112.204 102.013 112.38 101.517 112.524C101.037 112.668 100.357 112.74 99.4768 112.74C98.1648 112.74 96.9968 112.508 95.9728 112.044C94.9488 111.58 94.1408 110.916 93.5488 110.052C92.9728 109.188 92.6848 108.164 92.6848 106.98C92.6848 105.78 92.9728 104.756 93.5488 103.908C94.1408 103.044 94.9488 102.38 95.9728 101.916C96.9968 101.452 98.1648 101.22 99.4768 101.22C100.357 101.22 101.037 101.292 101.517 101.436C102.013 101.58 102.453 101.74 102.837 101.916V106.164C102.597 105.812 102.301 105.54 101.949 105.348C101.597 105.14 101.245 104.996 100.893 104.916C100.541 104.82 100.229 104.772 99.9568 104.772C99.5248 104.772 99.1168 104.876 98.7328 105.084C98.3648 105.276 98.0688 105.54 97.8448 105.876C97.6208 106.196 97.5088 106.564 97.5088 106.98ZM109.915 93.78V112.5H105.235V93.78H109.915ZM112.435 105.78C112.435 105.284 112.363 104.9 112.219 104.628C112.075 104.34 111.763 104.196 111.283 104.196C111.011 104.196 110.771 104.252 110.563 104.364C110.355 104.476 110.195 104.652 110.083 104.892C109.971 105.116 109.915 105.412 109.915 105.78H109.291C109.291 104.9 109.419 104.1 109.675 103.38C109.931 102.644 110.355 102.06 110.947 101.628C111.539 101.18 112.331 100.956 113.323 100.956C114.331 100.956 115.107 101.116 115.651 101.436C116.195 101.756 116.571 102.22 116.779 102.828C117.003 103.436 117.115 104.18 117.115 105.06V112.5H112.435V105.78ZM118.429 101.46H126.949V105.18H118.429V101.46ZM120.469 97.62H124.909V112.5H120.469V97.62ZM134.706 112.74C133.266 112.74 132.026 112.508 130.986 112.044C129.962 111.58 129.17 110.924 128.61 110.076C128.066 109.212 127.794 108.18 127.794 106.98C127.794 105.764 128.058 104.732 128.586 103.884C129.114 103.02 129.874 102.364 130.866 101.916C131.858 101.452 133.058 101.22 134.466 101.22C135.858 101.22 137.026 101.436 137.97 101.868C138.93 102.284 139.65 102.908 140.13 103.74C140.626 104.556 140.874 105.564 140.874 106.764C140.874 106.972 140.874 107.18 140.874 107.388C140.874 107.58 140.858 107.764 140.826 107.94H130.338V105.684H136.482L135.57 106.788C135.666 106.644 135.746 106.492 135.81 106.332C135.874 106.172 135.906 106.036 135.906 105.924C135.906 105.54 135.842 105.212 135.714 104.94C135.586 104.668 135.402 104.46 135.162 104.316C134.938 104.172 134.666 104.1 134.346 104.1C133.914 104.1 133.562 104.204 133.29 104.412C133.018 104.604 132.818 104.916 132.69 105.348C132.562 105.764 132.498 106.308 132.498 106.98C132.482 107.54 132.546 108.02 132.69 108.42C132.85 108.804 133.074 109.1 133.362 109.308C133.666 109.516 134.034 109.62 134.466 109.62C135.042 109.62 135.522 109.532 135.906 109.356C136.29 109.164 136.578 108.892 136.77 108.54L141.042 109.212C140.45 110.396 139.626 111.284 138.57 111.876C137.53 112.452 136.242 112.74 134.706 112.74Z" fill="white"/>
<defs>
<clipPath id="clip0_1252_1950">
<rect width="37" height="49" fill="white" transform="translate(58.5 32.5)"/>
</clipPath>
</defs>
</svg>
