<svg width="154" height="154" viewBox="0 0 154 154" fill="none" xmlns="http://www.w3.org/2000/svg">
<rect width="154" height="154" rx="10" fill="#BDA8DD"/>
<g clip-path="url(#clip0_1252_1954)">
<path d="M75.8187 33.2438L54.8187 42.2438C53.5062 42.8063 52.775 44.2125 53.0656 45.6C53.3562 46.9875 54.575 48 56 48V48.75C56 49.9969 57.0031 51 58.25 51H95.75C96.9969 51 98 49.9969 98 48.75V48C99.425 48 100.653 46.9969 100.934 45.6C101.216 44.2031 100.484 42.7969 99.1813 42.2438L78.1813 33.2438C77.4219 32.925 76.5687 32.925 75.8187 33.2438ZM65 54H59V72.4031C58.9437 72.4313 58.8875 72.4688 58.8312 72.5063L54.3312 75.5063C53.2344 76.2375 52.7375 77.6063 53.1219 78.8719C53.5062 80.1375 54.6781 81 56 81H98C99.3219 81 100.484 80.1375 100.869 78.8719C101.253 77.6063 100.766 76.2375 99.6594 75.5063L95.1594 72.5063C95.1031 72.4688 95.0469 72.4406 94.9906 72.4031V54H89V72H85.25V54H79.25V72H74.75V54H68.75V72H65V54ZM77 39C77.7956 39 78.5587 39.3161 79.1213 39.8787C79.6839 40.4413 80 41.2044 80 42C80 42.7957 79.6839 43.5587 79.1213 44.1213C78.5587 44.6839 77.7956 45 77 45C76.2044 45 75.4413 44.6839 74.8787 44.1213C74.3161 43.5587 74 42.7957 74 42C74 41.2044 74.3161 40.4413 74.8787 39.8787C75.4413 39.3161 76.2044 39 77 39Z" fill="#F7F4FB"/>
</g>
<path d="M37.9232 105.136L37.0592 112H31.4192L34.5392 94.36L41.9792 103.432L49.4192 94.36L52.5392 112H46.8992L46.0352 105.136L41.9792 110.44L37.9232 105.136ZM59.3895 107.68C59.3895 108.176 59.4615 108.568 59.6055 108.856C59.7495 109.128 60.0615 109.264 60.5415 109.264C60.8295 109.264 61.0695 109.208 61.2615 109.096C61.4695 108.984 61.6295 108.816 61.7415 108.592C61.8535 108.352 61.9095 108.048 61.9095 107.68V100.96H66.5895V112H61.9095V110.392C61.6055 110.952 61.1735 111.408 60.6135 111.76C60.0695 112.096 59.3655 112.264 58.5015 112.264C56.9975 112.264 55.9495 111.912 55.3575 111.208C54.7655 110.488 54.4695 109.472 54.4695 108.16V100.96H59.3895V107.68ZM69.6728 107.608C70.4408 108.152 71.0968 108.552 71.6408 108.808C72.2008 109.048 72.6488 109.2 72.9848 109.264C73.3368 109.328 73.5768 109.36 73.7048 109.36C73.9608 109.36 74.1368 109.312 74.2328 109.216C74.3448 109.104 74.4008 108.968 74.4008 108.808C74.4008 108.664 74.3528 108.536 74.2568 108.424C74.1768 108.312 73.9768 108.192 73.6568 108.064C73.3368 107.92 72.8328 107.744 72.1448 107.536C71.6008 107.36 71.0888 107.144 70.6088 106.888C70.1448 106.616 69.7688 106.248 69.4808 105.784C69.1928 105.32 69.0488 104.72 69.0488 103.984C69.0488 103.296 69.2328 102.712 69.6008 102.232C69.9688 101.736 70.4808 101.36 71.1368 101.104C71.8088 100.848 72.6008 100.72 73.5128 100.72C74.1848 100.72 74.8088 100.784 75.3848 100.912C75.9608 101.024 76.5208 101.176 77.0648 101.368C77.6088 101.56 78.1528 101.784 78.6968 102.04L77.5448 105.232C77.0008 104.768 76.3848 104.4 75.6968 104.128C75.0248 103.84 74.4648 103.696 74.0168 103.696C73.7288 103.696 73.5368 103.744 73.4408 103.84C73.3448 103.936 73.2968 104.04 73.2968 104.152C73.2968 104.36 73.3848 104.528 73.5608 104.656C73.7528 104.768 74.0408 104.88 74.4248 104.992C74.8248 105.104 75.3448 105.28 75.9848 105.52C76.5128 105.712 77.0088 105.936 77.4728 106.192C77.9368 106.448 78.3128 106.784 78.6008 107.2C78.8888 107.616 79.0328 108.176 79.0328 108.88C79.0328 110.192 78.6568 111.144 77.9048 111.736C77.1528 112.312 76.0648 112.6 74.6408 112.6C73.8088 112.6 73.0248 112.528 72.2888 112.384C71.5528 112.256 70.8488 112.064 70.1768 111.808C69.5048 111.552 68.8328 111.248 68.1608 110.896L69.6728 107.608ZM87.1515 112.24C85.7115 112.24 84.4715 112.008 83.4315 111.544C82.4075 111.08 81.6155 110.424 81.0555 109.576C80.5115 108.712 80.2395 107.68 80.2395 106.48C80.2395 105.264 80.5035 104.232 81.0315 103.384C81.5595 102.52 82.3195 101.864 83.3115 101.416C84.3035 100.952 85.5035 100.72 86.9115 100.72C88.3035 100.72 89.4715 100.936 90.4155 101.368C91.3755 101.784 92.0955 102.408 92.5755 103.24C93.0715 104.056 93.3195 105.064 93.3195 106.264C93.3195 106.472 93.3195 106.68 93.3195 106.888C93.3195 107.08 93.3035 107.264 93.2715 107.44H82.7835V105.184H88.9275L88.0155 106.288C88.1115 106.144 88.1915 105.992 88.2555 105.832C88.3195 105.672 88.3515 105.536 88.3515 105.424C88.3515 105.04 88.2875 104.712 88.1595 104.44C88.0315 104.168 87.8475 103.96 87.6075 103.816C87.3835 103.672 87.1115 103.6 86.7915 103.6C86.3595 103.6 86.0075 103.704 85.7355 103.912C85.4635 104.104 85.2635 104.416 85.1355 104.848C85.0075 105.264 84.9435 105.808 84.9435 106.48C84.9275 107.04 84.9915 107.52 85.1355 107.92C85.2955 108.304 85.5195 108.6 85.8075 108.808C86.1115 109.016 86.4795 109.12 86.9115 109.12C87.4875 109.12 87.9675 109.032 88.3515 108.856C88.7355 108.664 89.0235 108.392 89.2155 108.04L93.4875 108.712C92.8955 109.896 92.0715 110.784 91.0155 111.376C89.9755 111.952 88.6875 112.24 87.1515 112.24ZM101.777 112.24C100.337 112.24 99.0965 112.008 98.0565 111.544C97.0325 111.08 96.2405 110.424 95.6805 109.576C95.1365 108.712 94.8645 107.68 94.8645 106.48C94.8645 105.264 95.1285 104.232 95.6565 103.384C96.1845 102.52 96.9445 101.864 97.9365 101.416C98.9285 100.952 100.129 100.72 101.537 100.72C102.929 100.72 104.097 100.936 105.041 101.368C106.001 101.784 106.721 102.408 107.201 103.24C107.697 104.056 107.945 105.064 107.945 106.264C107.945 106.472 107.945 106.68 107.945 106.888C107.945 107.08 107.929 107.264 107.897 107.44H97.4085V105.184H103.553L102.641 106.288C102.737 106.144 102.817 105.992 102.881 105.832C102.945 105.672 102.977 105.536 102.977 105.424C102.977 105.04 102.913 104.712 102.785 104.44C102.657 104.168 102.473 103.96 102.233 103.816C102.009 103.672 101.737 103.6 101.417 103.6C100.985 103.6 100.633 103.704 100.361 103.912C100.089 104.104 99.8885 104.416 99.7605 104.848C99.6325 105.264 99.5685 105.808 99.5685 106.48C99.5525 107.04 99.6165 107.52 99.7605 107.92C99.9205 108.304 100.145 108.6 100.433 108.808C100.737 109.016 101.105 109.12 101.537 109.12C102.113 109.12 102.593 109.032 102.977 108.856C103.361 108.664 103.649 108.392 103.841 108.04L108.113 108.712C107.521 109.896 106.697 110.784 105.641 111.376C104.601 111.952 103.313 112.24 101.777 112.24ZM117.17 105.28C117.17 104.784 117.098 104.4 116.954 104.128C116.81 103.84 116.498 103.696 116.018 103.696C115.746 103.696 115.506 103.752 115.298 103.864C115.09 103.976 114.93 104.152 114.818 104.392C114.706 104.616 114.65 104.912 114.65 105.28V112H109.97V100.96H114.65V102.568C114.954 102.008 115.378 101.56 115.922 101.224C116.482 100.872 117.194 100.696 118.058 100.696C119.562 100.696 120.61 101.056 121.202 101.776C121.794 102.48 122.09 103.488 122.09 104.8V112H117.17V105.28Z" fill="white"/>
<defs>
<clipPath id="clip0_1252_1954">
<rect width="48" height="48" fill="white" transform="translate(53 33)"/>
</clipPath>
</defs>
</svg>
