<svg width="154" height="154" viewBox="0 0 154 154" fill="none" xmlns="http://www.w3.org/2000/svg">
<rect width="154" height="154" rx="10" fill="#BDA8DD"/>
<g clip-path="url(#clip0_1252_1972)">
<path d="M100.25 47.8125C102.305 47.8125 104.277 47.0059 105.73 45.57C107.183 44.1342 108 42.1868 108 40.1562C108 38.1257 107.183 36.1783 105.73 34.7425C104.277 33.3066 102.305 32.5 100.25 32.5C98.1946 32.5 96.2233 33.3066 94.7699 34.7425C93.3165 36.1783 92.5 38.1257 92.5 40.1562C92.5 42.1868 93.3165 44.1342 94.7699 45.57C96.2233 47.0059 98.1946 47.8125 100.25 47.8125ZM51.4153 81.5H82.9191H90.1847H102.081C105.355 81.5 108 78.8777 108 75.6525C108 74.5807 107.7 73.5279 107.138 72.6092L94.3503 51.9086C93.9531 51.2674 93.2556 50.875 92.5 50.875C91.7444 50.875 91.0469 51.2674 90.6497 51.899L85.9803 59.4596L73.7837 40.252C73.1444 39.2375 72.0109 38.625 70.8 38.625C69.5891 38.625 68.4653 39.2375 67.8162 40.252L46.8331 73.3078C46.2906 74.1596 46 75.1453 46 76.1502C46 79.1074 48.4219 81.5 51.4153 81.5Z" fill="#F7F4FB"/>
</g>
<path d="M55.9672 95.7H61.0072V113.34L50.0872 104.892V112.5H45.0472V94.86L55.9672 103.308V95.7ZM67.8637 109.02C67.8637 109.228 67.9117 109.404 68.0077 109.548C68.1197 109.676 68.2557 109.78 68.4157 109.86C68.5917 109.924 68.7757 109.956 68.9677 109.956C69.2717 109.956 69.5597 109.892 69.8317 109.764C70.1197 109.62 70.3517 109.404 70.5277 109.116C70.7197 108.812 70.8157 108.42 70.8157 107.94L71.1997 109.38C71.1997 110.084 71.0237 110.692 70.6717 111.204C70.3197 111.7 69.8397 112.084 69.2317 112.356C68.6237 112.612 67.9357 112.74 67.1677 112.74C66.4477 112.74 65.7837 112.612 65.1757 112.356C64.5677 112.1 64.0797 111.716 63.7117 111.204C63.3437 110.676 63.1597 110.036 63.1597 109.284C63.1597 108.228 63.5277 107.404 64.2637 106.812C65.0157 106.204 66.0957 105.9 67.5037 105.9C68.0797 105.9 68.6317 105.948 69.1597 106.044C69.7037 106.14 70.1837 106.276 70.5997 106.452C71.0317 106.612 71.3677 106.82 71.6077 107.076V108.972C71.3357 108.732 70.9677 108.54 70.5037 108.396C70.0557 108.252 69.5917 108.18 69.1117 108.18C68.8077 108.18 68.5597 108.212 68.3677 108.276C68.1917 108.34 68.0637 108.436 67.9837 108.564C67.9037 108.676 67.8637 108.828 67.8637 109.02ZM65.4397 105.348L64.0237 102.324C64.7917 102.02 65.6557 101.74 66.6157 101.484C67.5917 101.228 68.6077 101.1 69.6637 101.1C70.7037 101.1 71.6477 101.244 72.4957 101.532C73.3437 101.82 74.0157 102.244 74.5117 102.804C75.0077 103.348 75.2557 104.02 75.2557 104.82V112.5H70.8157V105.972C70.8157 105.764 70.7837 105.572 70.7197 105.396C70.6557 105.22 70.5517 105.068 70.4077 104.94C70.2637 104.796 70.0717 104.692 69.8317 104.628C69.5917 104.548 69.3037 104.508 68.9677 104.508C68.5197 104.508 68.0477 104.564 67.5517 104.676C67.0557 104.772 66.6157 104.892 66.2317 105.036C65.8477 105.164 65.5837 105.268 65.4397 105.348ZM76.5809 101.46H85.1009V105.18H76.5809V101.46ZM78.6209 97.62H83.0609V112.5H78.6209V97.62ZM91.3466 108.18C91.3466 108.676 91.4186 109.068 91.5626 109.356C91.7066 109.628 92.0186 109.764 92.4986 109.764C92.7866 109.764 93.0266 109.708 93.2186 109.596C93.4266 109.484 93.5866 109.316 93.6986 109.092C93.8106 108.852 93.8666 108.548 93.8666 108.18V101.46H98.5466V112.5H93.8666V110.892C93.5626 111.452 93.1306 111.908 92.5706 112.26C92.0266 112.596 91.3226 112.764 90.4586 112.764C88.9546 112.764 87.9066 112.412 87.3146 111.708C86.7226 110.988 86.4266 109.972 86.4266 108.66V101.46H91.3466V108.18ZM105.518 101.46V112.5H100.958V101.46H105.518ZM108.614 106.212C108.47 106.02 108.286 105.86 108.062 105.732C107.838 105.604 107.566 105.54 107.246 105.54C106.974 105.54 106.702 105.62 106.43 105.78C106.158 105.94 105.934 106.188 105.758 106.524C105.598 106.86 105.518 107.292 105.518 107.82L104.654 105.78C104.654 104.9 104.838 104.116 105.206 103.428C105.574 102.74 106.054 102.196 106.646 101.796C107.254 101.38 107.894 101.172 108.566 101.172C108.966 101.172 109.35 101.276 109.718 101.484C110.102 101.676 110.366 101.908 110.51 102.18L108.614 106.212Z" fill="white"/>
<defs>
<clipPath id="clip0_1252_1972">
<rect width="62" height="49" fill="white" transform="translate(46 32.5)"/>
</clipPath>
</defs>
</svg>
