<svg width="154" height="154" viewBox="0 0 154 154" fill="none" xmlns="http://www.w3.org/2000/svg">
<rect width="154" height="154" rx="10" fill="#BDA8DD"/>
<g clip-path="url(#clip0_1252_1968)">
<path d="M61.8448 34.6216C62.527 33.281 64.0849 32.6622 65.477 33.1778L77.0004 37.4528L88.5238 33.1778C89.9159 32.6622 91.4738 33.281 92.156 34.6216L99.4204 48.956C102.075 54.1872 100.37 60.4216 95.8712 63.6372L98.7659 71.7185L102.546 70.3122C104.076 69.7497 105.772 70.5466 106.325 72.1028C106.878 73.6591 106.095 75.3841 104.564 75.9466L98.0099 78.3747L91.4554 80.8122C89.9251 81.3841 88.2288 80.5778 87.6757 79.0216C87.1226 77.4653 87.9062 75.7403 89.4365 75.1778L93.2162 73.7716L90.3307 65.6903C84.8548 66.1778 79.6185 62.5028 78.3463 56.7653L77.0004 50.6997L75.6545 56.7653C74.3823 62.5122 69.146 66.1778 63.6701 65.6903L60.7846 73.7716L64.5643 75.1778C66.0946 75.7403 66.8874 77.4653 66.3251 79.0216C65.7627 80.5778 64.0757 81.3841 62.5454 80.8122L56.0001 78.3841L49.4455 75.956C47.9152 75.3841 47.1224 73.6685 47.6848 72.1122C48.2471 70.556 49.9341 69.7497 51.4645 70.3216L55.2441 71.7278L58.1296 63.6466C53.6309 60.4216 51.9346 54.1872 54.5896 48.956L61.8448 34.6216ZM65.901 39.7216L63.3935 44.6716L71.6166 47.7185L72.8243 42.2903L65.901 39.7216ZM88.109 39.7216L81.1857 42.2903L82.3934 47.7185L90.6165 44.6716L88.109 39.7216Z" fill="#F7F4FB"/>
</g>
<path d="M45.9828 104.8H51.3828L56.1828 112H50.0628L45.9828 104.8ZM41.0628 95.2H46.3428V112H41.0628V95.2ZM44.4708 99.64V95.2H48.1428C49.7908 95.2 51.1268 95.448 52.1508 95.944C53.1908 96.44 53.9508 97.12 54.4308 97.984C54.9268 98.848 55.1748 99.84 55.1748 100.96C55.1748 102.064 54.9268 103.056 54.4308 103.936C53.9508 104.8 53.1908 105.48 52.1508 105.976C51.1268 106.472 49.7908 106.72 48.1428 106.72H44.4708V102.76H47.6628C48.1108 102.76 48.4788 102.704 48.7668 102.592C49.0548 102.464 49.2708 102.28 49.4148 102.04C49.5748 101.8 49.6548 101.52 49.6548 101.2C49.6548 100.864 49.5748 100.584 49.4148 100.36C49.2708 100.12 49.0548 99.944 48.7668 99.832C48.4788 99.704 48.1108 99.64 47.6628 99.64H44.4708ZM57.0275 97.072C57.0275 96.368 57.2755 95.8 57.7715 95.368C58.2835 94.936 58.8995 94.72 59.6195 94.72C60.3395 94.72 60.9475 94.936 61.4435 95.368C61.9555 95.8 62.2115 96.368 62.2115 97.072C62.2115 97.776 61.9555 98.344 61.4435 98.776C60.9475 99.208 60.3395 99.424 59.6195 99.424C58.8995 99.424 58.2835 99.208 57.7715 98.776C57.2755 98.344 57.0275 97.776 57.0275 97.072ZM57.3635 100.96H61.8515V112H57.3635V100.96ZM70.6867 112.24C69.2467 112.24 68.0067 112.008 66.9667 111.544C65.9427 111.08 65.1507 110.424 64.5907 109.576C64.0467 108.712 63.7747 107.68 63.7747 106.48C63.7747 105.264 64.0387 104.232 64.5667 103.384C65.0947 102.52 65.8547 101.864 66.8467 101.416C67.8387 100.952 69.0387 100.72 70.4467 100.72C71.8387 100.72 73.0067 100.936 73.9507 101.368C74.9107 101.784 75.6307 102.408 76.1107 103.24C76.6067 104.056 76.8547 105.064 76.8547 106.264C76.8547 106.472 76.8547 106.68 76.8547 106.888C76.8547 107.08 76.8387 107.264 76.8067 107.44H66.3187V105.184H72.4627L71.5507 106.288C71.6467 106.144 71.7267 105.992 71.7907 105.832C71.8547 105.672 71.8867 105.536 71.8867 105.424C71.8867 105.04 71.8227 104.712 71.6947 104.44C71.5667 104.168 71.3827 103.96 71.1427 103.816C70.9187 103.672 70.6467 103.6 70.3267 103.6C69.8947 103.6 69.5427 103.704 69.2707 103.912C68.9987 104.104 68.7987 104.416 68.6707 104.848C68.5427 105.264 68.4787 105.808 68.4787 106.48C68.4627 107.04 68.5267 107.52 68.6707 107.92C68.8307 108.304 69.0547 108.6 69.3427 108.808C69.6467 109.016 70.0147 109.12 70.4467 109.12C71.0227 109.12 71.5027 109.032 71.8867 108.856C72.2707 108.664 72.5587 108.392 72.7507 108.04L77.0227 108.712C76.4307 109.896 75.6067 110.784 74.5507 111.376C73.5107 111.952 72.2227 112.24 70.6867 112.24ZM78.6397 112.84H83.1277C83.1917 113.24 83.3117 113.544 83.4877 113.752C83.6637 113.96 83.8797 114.096 84.1357 114.16C84.4077 114.24 84.7037 114.28 85.0237 114.28C85.5037 114.28 85.9117 114.176 86.2477 113.968C86.5837 113.776 86.8397 113.488 87.0157 113.104C87.1917 112.736 87.2797 112.288 87.2797 111.76V100.96H91.7197V111.76C91.7197 113.264 91.4397 114.464 90.8797 115.36C90.3197 116.256 89.5517 116.896 88.5757 117.28C87.6157 117.68 86.5117 117.88 85.2637 117.88C83.7117 117.88 82.4717 117.664 81.5437 117.232C80.6317 116.816 79.9517 116.224 79.5037 115.456C79.0717 114.704 78.7837 113.832 78.6397 112.84ZM78.3997 106.24C78.3997 104.96 78.6477 103.92 79.1437 103.12C79.6557 102.304 80.3037 101.704 81.0877 101.32C81.8717 100.92 82.6797 100.72 83.5117 100.72C84.4397 100.72 85.2637 100.936 85.9837 101.368C86.7197 101.784 87.3037 102.4 87.7357 103.216C88.1677 104.032 88.3837 105.04 88.3837 106.24C88.3837 107.424 88.1677 108.432 87.7357 109.264C87.3037 110.08 86.7197 110.704 85.9837 111.136C85.2637 111.552 84.4397 111.76 83.5117 111.76C82.6797 111.76 81.8717 111.568 81.0877 111.184C80.3037 110.784 79.6557 110.176 79.1437 109.36C78.6477 108.544 78.3997 107.504 78.3997 106.24ZM83.3437 106.24C83.3437 106.64 83.4317 106.984 83.6077 107.272C83.7837 107.56 84.0237 107.784 84.3277 107.944C84.6317 108.088 84.9597 108.16 85.3117 108.16C85.6317 108.16 85.9437 108.096 86.2477 107.968C86.5517 107.824 86.7997 107.616 86.9917 107.344C87.1837 107.056 87.2797 106.688 87.2797 106.24C87.2797 105.904 87.2237 105.616 87.1117 105.376C86.9997 105.136 86.8477 104.936 86.6557 104.776C86.4637 104.616 86.2477 104.504 86.0077 104.44C85.7837 104.36 85.5517 104.32 85.3117 104.32C84.9597 104.32 84.6317 104.4 84.3277 104.56C84.0237 104.704 83.7837 104.92 83.6077 105.208C83.4317 105.48 83.3437 105.824 83.3437 106.24ZM100.546 112.24C99.1061 112.24 97.8661 112.008 96.8261 111.544C95.8021 111.08 95.0101 110.424 94.4501 109.576C93.9061 108.712 93.6341 107.68 93.6341 106.48C93.6341 105.264 93.8981 104.232 94.4261 103.384C94.9541 102.52 95.7141 101.864 96.7061 101.416C97.6981 100.952 98.8981 100.72 100.306 100.72C101.698 100.72 102.866 100.936 103.81 101.368C104.77 101.784 105.49 102.408 105.97 103.24C106.466 104.056 106.714 105.064 106.714 106.264C106.714 106.472 106.714 106.68 106.714 106.888C106.714 107.08 106.698 107.264 106.666 107.44H96.1781V105.184H102.322L101.41 106.288C101.506 106.144 101.586 105.992 101.65 105.832C101.714 105.672 101.746 105.536 101.746 105.424C101.746 105.04 101.682 104.712 101.554 104.44C101.426 104.168 101.242 103.96 101.002 103.816C100.778 103.672 100.506 103.6 100.186 103.6C99.7541 103.6 99.4021 103.704 99.1301 103.912C98.8581 104.104 98.6581 104.416 98.5301 104.848C98.4021 105.264 98.3381 105.808 98.3381 106.48C98.3221 107.04 98.3861 107.52 98.5301 107.92C98.6901 108.304 98.9141 108.6 99.2021 108.808C99.5061 109.016 99.8741 109.12 100.306 109.12C100.882 109.12 101.362 109.032 101.746 108.856C102.13 108.664 102.418 108.392 102.61 108.04L106.882 108.712C106.29 109.896 105.466 110.784 104.41 111.376C103.37 111.952 102.082 112.24 100.546 112.24ZM108.739 93.28H113.419V112H108.739V93.28Z" fill="white"/>
<defs>
<clipPath id="clip0_1252_1968">
<rect width="59" height="48" fill="white" transform="translate(47.5 33)"/>
</clipPath>
</defs>
</svg>
