<svg width="154" height="154" viewBox="0 0 154 154" fill="none" xmlns="http://www.w3.org/2000/svg">
<rect width="154" height="154" rx="10" fill="#BDA8DD"/>
<g clip-path="url(#clip0_1252_1958)">
<path d="M54.5 33H66.5C66.9969 33 67.4656 33.2531 67.7469 33.6656L75.35 45.0656C70.7094 45.45 66.5375 47.4656 63.3875 50.5312L53.2531 35.3344C52.9438 34.875 52.9156 34.2844 53.1781 33.7969C53.4406 33.3094 53.9469 33 54.5 33ZM100.747 35.3344L90.6125 50.5406C87.4719 47.475 83.2906 45.4594 78.65 45.075L86.2531 33.6656C86.5344 33.2437 87.0031 33 87.5 33H99.5C100.053 33 100.559 33.3 100.822 33.7969C101.084 34.2938 101.056 34.875 100.747 35.3344ZM93.5 64.5C93.5 73.6125 86.1125 81 77 81C67.8875 81 60.5 73.6125 60.5 64.5C60.5 55.3875 67.8875 48 77 48C86.1125 48 93.5 55.3875 93.5 64.5ZM77.7875 55.6031C77.4688 54.9469 76.5406 54.9469 76.2125 55.6031L74.1125 59.8594C73.9813 60.1219 73.7375 60.3 73.4563 60.3375L68.75 61.0219C68.0281 61.125 67.7469 62.0062 68.2625 62.5219L71.6656 65.8406C71.8719 66.0469 71.9656 66.3281 71.9188 66.6188L71.1125 71.2969C70.9906 72.0094 71.7406 72.5625 72.3875 72.225L76.5875 70.0125C76.8406 69.8812 77.15 69.8812 77.4031 70.0125L81.6031 72.225C82.25 72.5625 83 72.0187 82.8781 71.2969L82.0719 66.6188C82.025 66.3375 82.1188 66.0469 82.325 65.8406L85.7281 62.5219C86.2531 62.0156 85.9625 61.1344 85.2406 61.0219L80.5438 60.3375C80.2625 60.3 80.0094 60.1125 79.8875 59.8594L77.7875 55.6031Z" fill="#F7F4FB"/>
</g>
<path d="M48.2603 105.616C48.5803 106.176 48.9483 106.664 49.3643 107.08C49.7803 107.48 50.2283 107.784 50.7083 107.992C51.2043 108.2 51.7003 108.304 52.1963 108.304C52.6123 108.304 52.9643 108.224 53.2523 108.064C53.5403 107.888 53.6843 107.616 53.6843 107.248C53.6843 107.024 53.6043 106.832 53.4443 106.672C53.3003 106.512 53.0043 106.328 52.5563 106.12C52.1083 105.912 51.4283 105.632 50.5163 105.28C50.1163 105.12 49.6523 104.904 49.1243 104.632C48.6123 104.36 48.1163 104.008 47.6363 103.576C47.1723 103.144 46.7803 102.616 46.4603 101.992C46.1563 101.368 46.0043 100.632 46.0043 99.784C46.0043 98.68 46.3003 97.752 46.8923 97C47.4843 96.248 48.2683 95.68 49.2443 95.296C50.2203 94.912 51.2923 94.72 52.4603 94.72C53.7243 94.72 54.8043 94.912 55.7003 95.296C56.6123 95.68 57.3563 96.16 57.9323 96.736C58.5243 97.312 58.9723 97.888 59.2763 98.464L55.3643 100.624C55.1083 100.224 54.8203 99.912 54.5003 99.688C54.1963 99.448 53.8843 99.272 53.5643 99.16C53.2443 99.048 52.9323 98.992 52.6283 98.992C52.2603 98.992 51.9563 99.056 51.7163 99.184C51.4923 99.312 51.3803 99.512 51.3803 99.784C51.3803 100.12 51.5403 100.4 51.8603 100.624C52.1963 100.832 52.6363 101.032 53.1803 101.224C53.7243 101.4 54.3243 101.608 54.9803 101.848C55.6523 102.088 56.2523 102.376 56.7803 102.712C57.3083 103.032 57.7563 103.408 58.1243 103.84C58.5083 104.272 58.7963 104.76 58.9883 105.304C59.1803 105.832 59.2763 106.424 59.2763 107.08C59.2763 108.008 59.0843 108.832 58.7003 109.552C58.3163 110.256 57.7963 110.84 57.1403 111.304C56.5003 111.768 55.7723 112.12 54.9563 112.36C54.1403 112.6 53.3003 112.72 52.4363 112.72C51.2363 112.72 50.1163 112.52 49.0763 112.12C48.0523 111.736 47.1643 111.2 46.4123 110.512C45.6603 109.824 45.0923 109.056 44.7083 108.208L48.2603 105.616ZM65.9933 117.28H61.3133V100.96H65.9933V117.28ZM74.8733 106.48C74.8733 107.824 74.6173 108.944 74.1053 109.84C73.6093 110.72 72.9693 111.384 72.1853 111.832C71.4173 112.264 70.6093 112.48 69.7613 112.48C68.7693 112.48 67.9213 112.232 67.2173 111.736C66.5293 111.224 66.0093 110.52 65.6573 109.624C65.3053 108.712 65.1293 107.664 65.1293 106.48C65.1293 105.28 65.3053 104.232 65.6573 103.336C66.0093 102.44 66.5293 101.744 67.2173 101.248C67.9213 100.736 68.7693 100.48 69.7613 100.48C70.6093 100.48 71.4173 100.704 72.1853 101.152C72.9693 101.584 73.6093 102.24 74.1053 103.12C74.6173 104 74.8733 105.12 74.8733 106.48ZM69.9293 106.48C69.9293 106.064 69.8413 105.72 69.6653 105.448C69.4893 105.16 69.2493 104.944 68.9453 104.8C68.6573 104.64 68.3293 104.56 67.9613 104.56C67.6413 104.56 67.3293 104.632 67.0253 104.776C66.7213 104.904 66.4733 105.112 66.2813 105.4C66.0893 105.672 65.9933 106.032 65.9933 106.48C65.9933 106.928 66.0893 107.296 66.2813 107.584C66.4733 107.856 66.7213 108.064 67.0253 108.208C67.3293 108.336 67.6413 108.4 67.9613 108.4C68.3293 108.4 68.6573 108.328 68.9453 108.184C69.2493 108.024 69.4893 107.8 69.6653 107.512C69.8413 107.224 69.9293 106.88 69.9293 106.48ZM76.302 106.48C76.302 105.28 76.59 104.248 77.166 103.384C77.742 102.52 78.534 101.856 79.542 101.392C80.55 100.928 81.694 100.696 82.974 100.696C84.254 100.696 85.398 100.928 86.406 101.392C87.414 101.856 88.206 102.52 88.782 103.384C89.358 104.248 89.646 105.28 89.646 106.48C89.646 107.664 89.358 108.688 88.782 109.552C88.206 110.416 87.414 111.08 86.406 111.544C85.398 112.008 84.254 112.24 82.974 112.24C81.694 112.24 80.55 112.008 79.542 111.544C78.534 111.08 77.742 110.416 77.166 109.552C76.59 108.688 76.302 107.664 76.302 106.48ZM81.126 106.48C81.126 106.928 81.214 107.304 81.39 107.608C81.566 107.912 81.79 108.144 82.062 108.304C82.35 108.448 82.654 108.52 82.974 108.52C83.294 108.52 83.59 108.448 83.862 108.304C84.15 108.144 84.382 107.912 84.558 107.608C84.734 107.304 84.822 106.928 84.822 106.48C84.822 106.032 84.734 105.656 84.558 105.352C84.382 105.048 84.15 104.816 83.862 104.656C83.59 104.496 83.294 104.416 82.974 104.416C82.654 104.416 82.35 104.496 82.062 104.656C81.79 104.816 81.566 105.048 81.39 105.352C81.214 105.656 81.126 106.032 81.126 106.48ZM96.1311 100.96V112H91.5711V100.96H96.1311ZM99.2271 105.712C99.0831 105.52 98.8991 105.36 98.6751 105.232C98.4511 105.104 98.1791 105.04 97.8591 105.04C97.5871 105.04 97.3151 105.12 97.0431 105.28C96.7711 105.44 96.5471 105.688 96.3711 106.024C96.2111 106.36 96.1311 106.792 96.1311 107.32L95.2671 105.28C95.2671 104.4 95.4511 103.616 95.8191 102.928C96.1871 102.24 96.6671 101.696 97.2591 101.296C97.8671 100.88 98.5071 100.672 99.1791 100.672C99.5791 100.672 99.9631 100.776 100.331 100.984C100.715 101.176 100.979 101.408 101.123 101.68L99.2271 105.712ZM101.366 100.96H109.886V104.68H101.366V100.96ZM103.406 97.12H107.846V112H103.406V97.12Z" fill="white"/>
<defs>
<clipPath id="clip0_1252_1958">
<rect width="48" height="48" fill="white" transform="translate(53 33)"/>
</clipPath>
</defs>
</svg>
