<svg width="154" height="154" viewBox="0 0 154 154" fill="none" xmlns="http://www.w3.org/2000/svg">
<rect width="154" height="154" rx="10" fill="#BDA8DD"/>
<path d="M70.3567 32.5298C71.1576 31.8169 72.4 31.8267 73.2009 32.5395C76.0348 35.0687 78.6942 37.7932 81.179 40.7423C82.3085 39.3361 83.592 37.803 84.9781 36.553C85.7893 35.8304 87.042 35.8304 87.8531 36.5628C91.4058 39.7853 94.4143 44.0429 96.5295 48.0857C98.6138 52.0698 100 56.1419 100 59.0129C100 71.4732 89.7527 82 77 82C64.1036 82 54 71.4634 54 59.0031C54 55.2533 55.8277 50.6734 58.6616 46.1424C61.5263 41.543 65.5719 36.7483 70.3567 32.5298ZM77.1746 72.6255C79.7723 72.6255 82.0723 71.9419 84.2388 70.5748C88.5616 67.7038 89.7219 61.9619 87.1241 57.4504C86.6621 56.5716 85.4813 56.513 84.8138 57.2551L82.2263 60.1163C81.5487 60.8585 80.3268 60.8389 79.6902 60.0675C77.996 58.0168 74.967 54.3549 73.242 52.2749C72.5951 51.4937 71.3629 51.4839 70.7058 52.2651C67.2353 56.4153 65.4897 59.0324 65.4897 61.9717C65.5 68.6608 70.6955 72.6255 77.1746 72.6255Z" fill="#F7F4FB"/>
<path d="M56.4694 104.6C56.4694 105.464 56.6614 106.192 57.0454 106.784C57.4454 107.36 57.9654 107.792 58.6054 108.08C59.2614 108.368 59.9814 108.512 60.7654 108.512C61.5654 108.512 62.2534 108.408 62.8294 108.2C63.4054 107.992 63.9094 107.736 64.3414 107.432C64.7894 107.112 65.1894 106.784 65.5414 106.448V111.872C64.8854 112.32 64.1654 112.696 63.3814 113C62.6134 113.32 61.6134 113.48 60.3814 113.48C58.9254 113.48 57.5974 113.272 56.3974 112.856C55.1974 112.44 54.1734 111.84 53.3254 111.056C52.4774 110.272 51.8214 109.336 51.3574 108.248C50.8934 107.16 50.6614 105.944 50.6614 104.6C50.6614 103.256 50.8934 102.04 51.3574 100.952C51.8214 99.864 52.4774 98.928 53.3254 98.144C54.1734 97.36 55.1974 96.76 56.3974 96.344C57.5974 95.928 58.9254 95.72 60.3814 95.72C61.6134 95.72 62.6134 95.872 63.3814 96.176C64.1654 96.48 64.8854 96.864 65.5414 97.328V102.752C65.1894 102.416 64.7894 102.088 64.3414 101.768C63.9094 101.448 63.4054 101.192 62.8294 101C62.2534 100.792 61.5654 100.688 60.7654 100.688C59.9814 100.688 59.2614 100.832 58.6054 101.12C57.9654 101.408 57.4454 101.848 57.0454 102.44C56.6614 103.016 56.4694 103.736 56.4694 104.6ZM68.1805 94.28H72.8605V113H68.1805V94.28ZM80.1786 108.68C80.1786 109.176 80.2506 109.568 80.3946 109.856C80.5386 110.128 80.8506 110.264 81.3306 110.264C81.6186 110.264 81.8586 110.208 82.0506 110.096C82.2586 109.984 82.4186 109.816 82.5306 109.592C82.6426 109.352 82.6986 109.048 82.6986 108.68V101.96H87.3786V113H82.6986V111.392C82.3946 111.952 81.9626 112.408 81.4026 112.76C80.8586 113.096 80.1546 113.264 79.2906 113.264C77.7866 113.264 76.7386 112.912 76.1466 112.208C75.5546 111.488 75.2586 110.472 75.2586 109.16V101.96H80.1786V108.68ZM94.4698 94.28V113H89.7898V94.28H94.4698ZM103.35 107.48C103.35 108.744 103.094 109.808 102.582 110.672C102.086 111.52 101.446 112.16 100.662 112.592C99.8938 113.024 99.0858 113.24 98.2378 113.24C97.3258 113.24 96.5018 113.008 95.7658 112.544C95.0298 112.08 94.4458 111.416 94.0138 110.552C93.5818 109.688 93.3658 108.664 93.3658 107.48C93.3658 106.28 93.5818 105.256 94.0138 104.408C94.4458 103.544 95.0298 102.88 95.7658 102.416C96.5018 101.952 97.3258 101.72 98.2378 101.72C99.0858 101.72 99.8938 101.936 100.662 102.368C101.446 102.8 102.086 103.44 102.582 104.288C103.094 105.136 103.35 106.2 103.35 107.48ZM98.4058 107.48C98.4058 107.064 98.3178 106.696 98.1418 106.376C97.9658 106.056 97.7258 105.8 97.4218 105.608C97.1338 105.416 96.8058 105.32 96.4378 105.32C96.1178 105.32 95.8058 105.408 95.5018 105.584C95.1978 105.76 94.9498 106.008 94.7578 106.328C94.5658 106.648 94.4698 107.032 94.4698 107.48C94.4698 107.928 94.5658 108.312 94.7578 108.632C94.9498 108.952 95.1978 109.2 95.5018 109.376C95.8058 109.552 96.1178 109.64 96.4378 109.64C96.8058 109.64 97.1338 109.544 97.4218 109.352C97.7258 109.16 97.9658 108.904 98.1418 108.584C98.3178 108.248 98.4058 107.88 98.4058 107.48Z" fill="white"/>
</svg>
