<svg width="154" height="154" viewBox="0 0 154 154" fill="none" xmlns="http://www.w3.org/2000/svg">
<rect width="154" height="154" rx="10" fill="#BDA8DD"/>
<g clip-path="url(#clip0_1252_1984)">
<path d="M58.5 35.5625C58.5 33.8686 59.8779 32.5 61.5833 32.5H64.6667H89.3333H92.4167C94.1221 32.5 95.5 33.8686 95.5 35.5625C95.5 37.2564 94.1221 38.625 92.4167 38.625V39.6777C92.4167 43.7355 90.7883 47.6307 87.8977 50.5018L81.3648 57L87.9073 63.4982C90.7979 66.3693 92.4263 70.2645 92.4263 74.3223V75.375C94.1318 75.375 95.5096 76.7436 95.5096 78.4375C95.5096 80.1314 94.1318 81.5 92.4263 81.5H89.3333H64.6667H61.5833C59.8779 81.5 58.5 80.1314 58.5 78.4375C58.5 76.7436 59.8779 75.375 61.5833 75.375V74.3223C61.5833 70.2645 63.2117 66.3693 66.1023 63.4982L72.6352 57L66.1023 50.5018C63.2117 47.6307 61.5833 43.7355 61.5833 39.6777V38.625C59.8779 38.625 58.5 37.2564 58.5 35.5625ZM67.75 38.625V39.6777C67.75 42.1182 68.7232 44.4533 70.4576 46.176L77 52.6646L83.5424 46.1664C85.2768 44.4438 86.25 42.1086 86.25 39.6682V38.625H67.75ZM67.75 75.375H86.25V74.3223C86.25 71.8818 85.2768 69.5467 83.5424 67.824L77 61.3354L70.4576 67.8336C68.7232 69.5563 67.75 71.8914 67.75 74.3318V75.3846V75.375Z" fill="#F7F4FB"/>
</g>
<path d="M45.6704 106.116C45.9904 106.676 46.3584 107.164 46.7744 107.58C47.1904 107.98 47.6384 108.284 48.1184 108.492C48.6144 108.7 49.1104 108.804 49.6064 108.804C50.0224 108.804 50.3744 108.724 50.6624 108.564C50.9504 108.388 51.0944 108.116 51.0944 107.748C51.0944 107.524 51.0144 107.332 50.8544 107.172C50.7104 107.012 50.4144 106.828 49.9664 106.62C49.5184 106.412 48.8384 106.132 47.9264 105.78C47.5264 105.62 47.0624 105.404 46.5344 105.132C46.0224 104.86 45.5264 104.508 45.0464 104.076C44.5824 103.644 44.1904 103.116 43.8704 102.492C43.5664 101.868 43.4144 101.132 43.4144 100.284C43.4144 99.18 43.7104 98.252 44.3024 97.5C44.8944 96.748 45.6784 96.18 46.6544 95.796C47.6304 95.412 48.7024 95.22 49.8704 95.22C51.1344 95.22 52.2144 95.412 53.1104 95.796C54.0224 96.18 54.7664 96.66 55.3424 97.236C55.9344 97.812 56.3824 98.388 56.6864 98.964L52.7744 101.124C52.5184 100.724 52.2304 100.412 51.9104 100.188C51.6064 99.948 51.2944 99.772 50.9744 99.66C50.6544 99.548 50.3424 99.492 50.0384 99.492C49.6704 99.492 49.3664 99.556 49.1264 99.684C48.9024 99.812 48.7904 100.012 48.7904 100.284C48.7904 100.62 48.9504 100.9 49.2704 101.124C49.6064 101.332 50.0464 101.532 50.5904 101.724C51.1344 101.9 51.7344 102.108 52.3904 102.348C53.0624 102.588 53.6624 102.876 54.1904 103.212C54.7184 103.532 55.1664 103.908 55.5344 104.34C55.9184 104.772 56.2064 105.26 56.3984 105.804C56.5904 106.332 56.6864 106.924 56.6864 107.58C56.6864 108.508 56.4944 109.332 56.1104 110.052C55.7264 110.756 55.2064 111.34 54.5504 111.804C53.9104 112.268 53.1824 112.62 52.3664 112.86C51.5504 113.1 50.7104 113.22 49.8464 113.22C48.6464 113.22 47.5264 113.02 46.4864 112.62C45.4624 112.236 44.5744 111.7 43.8224 111.012C43.0704 110.324 42.5024 109.556 42.1184 108.708L45.6704 106.116ZM57.6434 101.46H66.1634V105.18H57.6434V101.46ZM59.6834 97.62H64.1234V112.5H59.6834V97.62ZM67.0091 106.98C67.0091 105.78 67.2971 104.748 67.8731 103.884C68.4491 103.02 69.2411 102.356 70.2491 101.892C71.2571 101.428 72.4011 101.196 73.6811 101.196C74.9611 101.196 76.1051 101.428 77.1131 101.892C78.1211 102.356 78.9131 103.02 79.4891 103.884C80.0651 104.748 80.3531 105.78 80.3531 106.98C80.3531 108.164 80.0651 109.188 79.4891 110.052C78.9131 110.916 78.1211 111.58 77.1131 112.044C76.1051 112.508 74.9611 112.74 73.6811 112.74C72.4011 112.74 71.2571 112.508 70.2491 112.044C69.2411 111.58 68.4491 110.916 67.8731 110.052C67.2971 109.188 67.0091 108.164 67.0091 106.98ZM71.8331 106.98C71.8331 107.428 71.9211 107.804 72.0971 108.108C72.2731 108.412 72.4971 108.644 72.7691 108.804C73.0571 108.948 73.3611 109.02 73.6811 109.02C74.0011 109.02 74.2971 108.948 74.5691 108.804C74.8571 108.644 75.0891 108.412 75.2651 108.108C75.4411 107.804 75.5291 107.428 75.5291 106.98C75.5291 106.532 75.4411 106.156 75.2651 105.852C75.0891 105.548 74.8571 105.316 74.5691 105.156C74.2971 104.996 74.0011 104.916 73.6811 104.916C73.3611 104.916 73.0571 104.996 72.7691 105.156C72.4971 105.316 72.2731 105.548 72.0971 105.852C71.9211 106.156 71.8331 106.532 71.8331 106.98ZM86.8381 101.46V112.5H82.2781V101.46H86.8381ZM89.9341 106.212C89.7901 106.02 89.6061 105.86 89.3821 105.732C89.1581 105.604 88.8861 105.54 88.5661 105.54C88.2941 105.54 88.0221 105.62 87.7501 105.78C87.4781 105.94 87.2541 106.188 87.0781 106.524C86.9181 106.86 86.8381 107.292 86.8381 107.82L85.9741 105.78C85.9741 104.9 86.1581 104.116 86.5261 103.428C86.8941 102.74 87.3741 102.196 87.9661 101.796C88.5741 101.38 89.2141 101.172 89.8861 101.172C90.2861 101.172 90.6701 101.276 91.0381 101.484C91.4221 101.676 91.6861 101.908 91.8301 102.18L89.9341 106.212ZM92.7931 97.572C92.7931 96.868 93.0411 96.3 93.5371 95.868C94.0491 95.436 94.6651 95.22 95.3851 95.22C96.1051 95.22 96.7131 95.436 97.2091 95.868C97.7211 96.3 97.9771 96.868 97.9771 97.572C97.9771 98.276 97.7211 98.844 97.2091 99.276C96.7131 99.708 96.1051 99.924 95.3851 99.924C94.6651 99.924 94.0491 99.708 93.5371 99.276C93.0411 98.844 92.7931 98.276 92.7931 97.572ZM93.1291 101.46H97.6171V112.5H93.1291V101.46ZM104.004 109.02C104.004 109.228 104.052 109.404 104.148 109.548C104.26 109.676 104.396 109.78 104.556 109.86C104.732 109.924 104.916 109.956 105.108 109.956C105.412 109.956 105.7 109.892 105.972 109.764C106.26 109.62 106.492 109.404 106.668 109.116C106.86 108.812 106.956 108.42 106.956 107.94L107.34 109.38C107.34 110.084 107.164 110.692 106.812 111.204C106.46 111.7 105.98 112.084 105.372 112.356C104.764 112.612 104.076 112.74 103.308 112.74C102.588 112.74 101.924 112.612 101.316 112.356C100.708 112.1 100.22 111.716 99.8523 111.204C99.4843 110.676 99.3003 110.036 99.3003 109.284C99.3003 108.228 99.6683 107.404 100.404 106.812C101.156 106.204 102.236 105.9 103.644 105.9C104.22 105.9 104.772 105.948 105.3 106.044C105.844 106.14 106.324 106.276 106.74 106.452C107.172 106.612 107.508 106.82 107.748 107.076V108.972C107.476 108.732 107.108 108.54 106.644 108.396C106.196 108.252 105.732 108.18 105.252 108.18C104.948 108.18 104.7 108.212 104.508 108.276C104.332 108.34 104.204 108.436 104.124 108.564C104.044 108.676 104.004 108.828 104.004 109.02ZM101.58 105.348L100.164 102.324C100.932 102.02 101.796 101.74 102.756 101.484C103.732 101.228 104.748 101.1 105.804 101.1C106.844 101.1 107.788 101.244 108.636 101.532C109.484 101.82 110.156 102.244 110.652 102.804C111.148 103.348 111.396 104.02 111.396 104.82V112.5H106.956V105.972C106.956 105.764 106.924 105.572 106.86 105.396C106.796 105.22 106.692 105.068 106.548 104.94C106.404 104.796 106.212 104.692 105.972 104.628C105.732 104.548 105.444 104.508 105.108 104.508C104.66 104.508 104.188 104.564 103.692 104.676C103.196 104.772 102.756 104.892 102.372 105.036C101.988 105.164 101.724 105.268 101.58 105.348Z" fill="white"/>
<defs>
<clipPath id="clip0_1252_1984">
<rect width="37" height="49" fill="white" transform="translate(58.5 32.5)"/>
</clipPath>
</defs>
</svg>
