<svg width="154" height="154" viewBox="0 0 154 154" fill="none" xmlns="http://www.w3.org/2000/svg">
<rect width="154" height="154" rx="10" fill="#BDA8DD"/>
<g clip-path="url(#clip0_1252_1988)">
<path d="M75.8187 33.2438L54.8187 42.2438C53.5062 42.8063 52.775 44.2125 53.0656 45.6C53.3562 46.9875 54.575 48 56 48V48.75C56 49.9969 57.0031 51 58.25 51H95.75C96.9969 51 98 49.9969 98 48.75V48C99.425 48 100.653 46.9969 100.934 45.6C101.216 44.2031 100.484 42.7969 99.1813 42.2438L78.1813 33.2438C77.4219 32.925 76.5687 32.925 75.8187 33.2438ZM65 54H59V72.4031C58.9437 72.4313 58.8875 72.4688 58.8312 72.5063L54.3312 75.5063C53.2344 76.2375 52.7375 77.6063 53.1219 78.8719C53.5062 80.1375 54.6781 81 56 81H98C99.3219 81 100.484 80.1375 100.869 78.8719C101.253 77.6063 100.766 76.2375 99.6594 75.5063L95.1594 72.5063C95.1031 72.4688 95.0469 72.4406 94.9906 72.4031V54H89V72H85.25V54H79.25V72H74.75V54H68.75V72H65V54ZM77 39C77.7956 39 78.5587 39.3161 79.1213 39.8787C79.6839 40.4413 80 41.2044 80 42C80 42.7957 79.6839 43.5587 79.1213 44.1213C78.5587 44.6839 77.7956 45 77 45C76.2044 45 75.4413 44.6839 74.8787 44.1213C74.3161 43.5587 74 42.7957 74 42C74 41.2044 74.3161 40.4413 74.8787 39.8787C75.4413 39.3161 76.2044 39 77 39Z" fill="#F7F4FB"/>
</g>
<path d="M49.0678 105.136L48.2038 112H42.5638L45.6838 94.36L53.1238 103.432L60.5638 94.36L63.6838 112H58.0438L57.1798 105.136L53.1238 110.44L49.0678 105.136ZM70.5341 107.68C70.5341 108.176 70.6061 108.568 70.7501 108.856C70.8941 109.128 71.2061 109.264 71.6861 109.264C71.9741 109.264 72.2141 109.208 72.4061 109.096C72.6141 108.984 72.7741 108.816 72.8861 108.592C72.9981 108.352 73.0541 108.048 73.0541 107.68V100.96H77.7341V112H73.0541V110.392C72.7501 110.952 72.3181 111.408 71.7581 111.76C71.2141 112.096 70.5101 112.264 69.6461 112.264C68.1421 112.264 67.0941 111.912 66.5021 111.208C65.9101 110.488 65.6141 109.472 65.6141 108.16V100.96H70.5341V107.68ZM80.8173 107.608C81.5853 108.152 82.2413 108.552 82.7853 108.808C83.3453 109.048 83.7933 109.2 84.1293 109.264C84.4813 109.328 84.7213 109.36 84.8493 109.36C85.1053 109.36 85.2813 109.312 85.3773 109.216C85.4893 109.104 85.5453 108.968 85.5453 108.808C85.5453 108.664 85.4973 108.536 85.4013 108.424C85.3213 108.312 85.1213 108.192 84.8013 108.064C84.4813 107.92 83.9773 107.744 83.2893 107.536C82.7453 107.36 82.2333 107.144 81.7533 106.888C81.2893 106.616 80.9133 106.248 80.6253 105.784C80.3373 105.32 80.1933 104.72 80.1933 103.984C80.1933 103.296 80.3773 102.712 80.7453 102.232C81.1133 101.736 81.6253 101.36 82.2813 101.104C82.9533 100.848 83.7453 100.72 84.6573 100.72C85.3293 100.72 85.9533 100.784 86.5293 100.912C87.1053 101.024 87.6653 101.176 88.2093 101.368C88.7533 101.56 89.2973 101.784 89.8413 102.04L88.6893 105.232C88.1453 104.768 87.5293 104.4 86.8413 104.128C86.1693 103.84 85.6093 103.696 85.1613 103.696C84.8733 103.696 84.6813 103.744 84.5853 103.84C84.4893 103.936 84.4413 104.04 84.4413 104.152C84.4413 104.36 84.5293 104.528 84.7053 104.656C84.8973 104.768 85.1853 104.88 85.5693 104.992C85.9693 105.104 86.4893 105.28 87.1293 105.52C87.6573 105.712 88.1533 105.936 88.6173 106.192C89.0813 106.448 89.4573 106.784 89.7453 107.2C90.0333 107.616 90.1773 108.176 90.1773 108.88C90.1773 110.192 89.8013 111.144 89.0493 111.736C88.2973 112.312 87.2093 112.6 85.7853 112.6C84.9533 112.6 84.1693 112.528 83.4333 112.384C82.6973 112.256 81.9933 112.064 81.3213 111.808C80.6493 111.552 79.9773 111.248 79.3053 110.896L80.8173 107.608ZM98.2961 112.24C96.8561 112.24 95.6161 112.008 94.5761 111.544C93.5521 111.08 92.7601 110.424 92.2001 109.576C91.6561 108.712 91.3841 107.68 91.3841 106.48C91.3841 105.264 91.6481 104.232 92.1761 103.384C92.7041 102.52 93.4641 101.864 94.4561 101.416C95.4481 100.952 96.6481 100.72 98.0561 100.72C99.4481 100.72 100.616 100.936 101.56 101.368C102.52 101.784 103.24 102.408 103.72 103.24C104.216 104.056 104.464 105.064 104.464 106.264C104.464 106.472 104.464 106.68 104.464 106.888C104.464 107.08 104.448 107.264 104.416 107.44H93.9281V105.184H100.072L99.1601 106.288C99.2561 106.144 99.3361 105.992 99.4001 105.832C99.4641 105.672 99.4961 105.536 99.4961 105.424C99.4961 105.04 99.4321 104.712 99.3041 104.44C99.1761 104.168 98.9921 103.96 98.7521 103.816C98.5281 103.672 98.2561 103.6 97.9361 103.6C97.5041 103.6 97.1521 103.704 96.8801 103.912C96.6081 104.104 96.4081 104.416 96.2801 104.848C96.1521 105.264 96.0881 105.808 96.0881 106.48C96.0721 107.04 96.1361 107.52 96.2801 107.92C96.4401 108.304 96.6641 108.6 96.9521 108.808C97.2561 109.016 97.6241 109.12 98.0561 109.12C98.6321 109.12 99.1121 109.032 99.4961 108.856C99.8801 108.664 100.168 108.392 100.36 108.04L104.632 108.712C104.04 109.896 103.216 110.784 102.16 111.376C101.12 111.952 99.8321 112.24 98.2961 112.24ZM106.129 97.072C106.129 96.368 106.377 95.8 106.873 95.368C107.385 94.936 108.001 94.72 108.721 94.72C109.441 94.72 110.049 94.936 110.545 95.368C111.057 95.8 111.313 96.368 111.313 97.072C111.313 97.776 111.057 98.344 110.545 98.776C110.049 99.208 109.441 99.424 108.721 99.424C108.001 99.424 107.385 99.208 106.873 98.776C106.377 98.344 106.129 97.776 106.129 97.072ZM106.465 100.96H110.953V112H106.465V100.96Z" fill="white"/>
<defs>
<clipPath id="clip0_1252_1988">
<rect width="48" height="48" fill="white" transform="translate(53 33)"/>
</clipPath>
</defs>
</svg>
