<svg width="154" height="154" viewBox="0 0 154 154" fill="none" xmlns="http://www.w3.org/2000/svg">
<rect width="154" height="154" rx="10" fill="#BDA8DD"/>
<g clip-path="url(#clip0_1252_2006)">
<path d="M100.25 47.8125C102.305 47.8125 104.277 47.0059 105.73 45.57C107.183 44.1342 108 42.1868 108 40.1562C108 38.1257 107.183 36.1783 105.73 34.7425C104.277 33.3066 102.305 32.5 100.25 32.5C98.1946 32.5 96.2233 33.3066 94.7699 34.7425C93.3165 36.1783 92.5 38.1257 92.5 40.1562C92.5 42.1868 93.3165 44.1342 94.7699 45.57C96.2233 47.0059 98.1946 47.8125 100.25 47.8125ZM51.4153 81.5H82.9191H90.1847H102.081C105.355 81.5 108 78.8777 108 75.6525C108 74.5807 107.7 73.5279 107.138 72.6092L94.3503 51.9086C93.9531 51.2674 93.2556 50.875 92.5 50.875C91.7444 50.875 91.0469 51.2674 90.6497 51.899L85.9803 59.4596L73.7837 40.252C73.1444 39.2375 72.0109 38.625 70.8 38.625C69.5891 38.625 68.4653 39.2375 67.8162 40.252L46.8331 73.3078C46.2906 74.1596 46 75.1453 46 76.1502C46 79.1074 48.4219 81.5 51.4153 81.5Z" fill="#F7F4FB"/>
</g>
<path d="M49.0766 95.7H54.1166V113.34L43.1966 104.892V112.5H38.1566V94.86L49.0766 103.308V95.7ZM60.9731 109.02C60.9731 109.228 61.0211 109.404 61.1171 109.548C61.2291 109.676 61.3651 109.78 61.5251 109.86C61.7011 109.924 61.8851 109.956 62.0771 109.956C62.3811 109.956 62.6691 109.892 62.9411 109.764C63.2291 109.62 63.4611 109.404 63.6371 109.116C63.8291 108.812 63.9251 108.42 63.9251 107.94L64.3091 109.38C64.3091 110.084 64.1331 110.692 63.7811 111.204C63.4291 111.7 62.9491 112.084 62.3411 112.356C61.7331 112.612 61.0451 112.74 60.2771 112.74C59.5571 112.74 58.8931 112.612 58.2851 112.356C57.6771 112.1 57.1891 111.716 56.8211 111.204C56.4531 110.676 56.2691 110.036 56.2691 109.284C56.2691 108.228 56.6371 107.404 57.3731 106.812C58.1251 106.204 59.2051 105.9 60.6131 105.9C61.1891 105.9 61.7411 105.948 62.2691 106.044C62.8131 106.14 63.2931 106.276 63.7091 106.452C64.1411 106.612 64.4771 106.82 64.7171 107.076V108.972C64.4451 108.732 64.0771 108.54 63.6131 108.396C63.1651 108.252 62.7011 108.18 62.2211 108.18C61.9171 108.18 61.6691 108.212 61.4771 108.276C61.3011 108.34 61.1731 108.436 61.0931 108.564C61.0131 108.676 60.9731 108.828 60.9731 109.02ZM58.5491 105.348L57.1331 102.324C57.9011 102.02 58.7651 101.74 59.7251 101.484C60.7011 101.228 61.7171 101.1 62.7731 101.1C63.8131 101.1 64.7571 101.244 65.6051 101.532C66.4531 101.82 67.1251 102.244 67.6211 102.804C68.1171 103.348 68.3651 104.02 68.3651 104.82V112.5H63.9251V105.972C63.9251 105.764 63.8931 105.572 63.8291 105.396C63.7651 105.22 63.6611 105.068 63.5171 104.94C63.3731 104.796 63.1811 104.692 62.9411 104.628C62.7011 104.548 62.4131 104.508 62.0771 104.508C61.6291 104.508 61.1571 104.564 60.6611 104.676C60.1651 104.772 59.7251 104.892 59.3411 105.036C58.9571 105.164 58.6931 105.268 58.5491 105.348ZM69.6903 101.46H78.2103V105.18H69.6903V101.46ZM71.7303 97.62H76.1703V112.5H71.7303V97.62ZM84.4559 108.18C84.4559 108.676 84.5279 109.068 84.6719 109.356C84.8159 109.628 85.1279 109.764 85.6079 109.764C85.8959 109.764 86.1359 109.708 86.3279 109.596C86.5359 109.484 86.6959 109.316 86.8079 109.092C86.9199 108.852 86.9759 108.548 86.9759 108.18V101.46H91.6559V112.5H86.9759V110.892C86.6719 111.452 86.2399 111.908 85.6799 112.26C85.1359 112.596 84.4319 112.764 83.5679 112.764C82.0639 112.764 81.0159 112.412 80.4239 111.708C79.8319 110.988 79.5359 109.972 79.5359 108.66V101.46H84.4559V108.18ZM98.6272 101.46V112.5H94.0672V101.46H98.6272ZM101.723 106.212C101.579 106.02 101.395 105.86 101.171 105.732C100.947 105.604 100.675 105.54 100.355 105.54C100.083 105.54 99.8112 105.62 99.5392 105.78C99.2672 105.94 99.0432 106.188 98.8672 106.524C98.7072 106.86 98.6272 107.292 98.6272 107.82L97.7632 105.78C97.7632 104.9 97.9472 104.116 98.3152 103.428C98.6832 102.74 99.1632 102.196 99.7552 101.796C100.363 101.38 101.003 101.172 101.675 101.172C102.075 101.172 102.459 101.276 102.827 101.484C103.211 101.676 103.475 101.908 103.619 102.18L101.723 106.212ZM108.926 109.02C108.926 109.228 108.974 109.404 109.07 109.548C109.182 109.676 109.318 109.78 109.478 109.86C109.654 109.924 109.838 109.956 110.03 109.956C110.334 109.956 110.622 109.892 110.894 109.764C111.182 109.62 111.414 109.404 111.59 109.116C111.782 108.812 111.878 108.42 111.878 107.94L112.262 109.38C112.262 110.084 112.086 110.692 111.734 111.204C111.382 111.7 110.902 112.084 110.294 112.356C109.686 112.612 108.998 112.74 108.23 112.74C107.51 112.74 106.846 112.612 106.238 112.356C105.63 112.1 105.142 111.716 104.774 111.204C104.406 110.676 104.222 110.036 104.222 109.284C104.222 108.228 104.59 107.404 105.326 106.812C106.078 106.204 107.158 105.9 108.566 105.9C109.142 105.9 109.694 105.948 110.222 106.044C110.766 106.14 111.246 106.276 111.662 106.452C112.094 106.612 112.43 106.82 112.67 107.076V108.972C112.398 108.732 112.03 108.54 111.566 108.396C111.118 108.252 110.654 108.18 110.174 108.18C109.87 108.18 109.622 108.212 109.43 108.276C109.254 108.34 109.126 108.436 109.046 108.564C108.966 108.676 108.926 108.828 108.926 109.02ZM106.502 105.348L105.086 102.324C105.854 102.02 106.718 101.74 107.678 101.484C108.654 101.228 109.67 101.1 110.726 101.1C111.766 101.1 112.71 101.244 113.558 101.532C114.406 101.82 115.078 102.244 115.574 102.804C116.07 103.348 116.318 104.02 116.318 104.82V112.5H111.878V105.972C111.878 105.764 111.846 105.572 111.782 105.396C111.718 105.22 111.614 105.068 111.47 104.94C111.326 104.796 111.134 104.692 110.894 104.628C110.654 104.548 110.366 104.508 110.03 104.508C109.582 104.508 109.11 104.564 108.614 104.676C108.118 104.772 107.678 104.892 107.294 105.036C106.91 105.164 106.646 105.268 106.502 105.348Z" fill="white"/>
<defs>
<clipPath id="clip0_1252_2006">
<rect width="62" height="49" fill="white" transform="translate(46 32.5)"/>
</clipPath>
</defs>
</svg>
