<svg width="154" height="154" viewBox="0 0 154 154" fill="none" xmlns="http://www.w3.org/2000/svg">
<rect width="154" height="154" rx="10" fill="#BDA8DD"/>
<g clip-path="url(#clip0_1252_2002)">
<path d="M61.8448 34.6216C62.527 33.281 64.0849 32.6623 65.477 33.1779L77.0004 37.4529L88.5238 33.1779C89.9159 32.6623 91.4738 33.281 92.156 34.6216L99.4204 48.956C102.075 54.1873 100.37 60.4216 95.8712 63.6373L98.7659 71.7185L102.546 70.3123C104.076 69.7498 105.772 70.5466 106.325 72.1029C106.878 73.6591 106.095 75.3842 104.564 75.9467L98.0099 78.3748L91.4554 80.8123C89.9251 81.3842 88.2288 80.5779 87.6757 79.0216C87.1226 77.4654 87.9062 75.7404 89.4365 75.1779L93.2162 73.7716L90.3307 65.6904C84.8548 66.1779 79.6185 62.5029 78.3463 56.7654L77.0004 50.6998L75.6545 56.7654C74.3823 62.5123 69.146 66.1779 63.6701 65.6904L60.7846 73.7716L64.5643 75.1779C66.0946 75.7404 66.8874 77.4654 66.3251 79.0216C65.7627 80.5779 64.0757 81.3842 62.5454 80.8123L56.0001 78.3842L49.4455 75.956C47.9152 75.3842 47.1224 73.6685 47.6848 72.1123C48.2471 70.556 49.9341 69.7498 51.4645 70.3217L55.2441 71.7279L58.1296 63.6466C53.6309 60.4216 51.9346 54.1873 54.5896 48.956L61.8448 34.6216ZM65.901 39.7216L63.3935 44.6716L71.6166 47.7185L72.8243 42.2904L65.901 39.7216ZM88.109 39.7216L81.1857 42.2904L82.3934 47.7185L90.6165 44.6716L88.109 39.7216Z" fill="#F7F4FB"/>
</g>
<path d="M48.9352 103.96V101.8H51.6472C52.0472 101.8 52.3752 101.744 52.6312 101.632C52.8872 101.52 53.0792 101.36 53.2072 101.152C53.3352 100.944 53.3992 100.696 53.3992 100.408C53.3992 99.976 53.2552 99.664 52.9672 99.472C52.6952 99.264 52.2552 99.16 51.6472 99.16H50.3272V108.04H52.1272C52.5272 108.04 52.8952 108.008 53.2312 107.944C53.5672 107.88 53.8392 107.744 54.0472 107.536C54.2552 107.328 54.3592 107 54.3592 106.552C54.3592 106.28 54.2952 106.064 54.1672 105.904C54.0552 105.728 53.8952 105.6 53.6872 105.52C53.4792 105.424 53.2392 105.36 52.9672 105.328C52.7112 105.296 52.4312 105.28 52.1272 105.28H48.9352V102.4H52.8472C53.6632 102.4 54.4792 102.496 55.2952 102.688C56.1272 102.864 56.8872 103.152 57.5752 103.552C58.2632 103.952 58.8152 104.472 59.2312 105.112C59.6632 105.736 59.8792 106.496 59.8792 107.392C59.8792 108.512 59.5992 109.408 59.0392 110.08C58.4952 110.752 57.6952 111.24 56.6392 111.544C55.5992 111.848 54.3352 112 52.8472 112H45.0472V95.2H52.3672C53.6152 95.2 54.7272 95.36 55.7032 95.68C56.6952 96 57.4792 96.48 58.0552 97.12C58.6312 97.76 58.9192 98.56 58.9192 99.52C58.9192 100.464 58.6312 101.272 58.0552 101.944C57.4792 102.6 56.6952 103.104 55.7032 103.456C54.7272 103.792 53.6152 103.96 52.3672 103.96H48.9352ZM66.0121 108.52C66.0121 108.728 66.0601 108.904 66.1561 109.048C66.2681 109.176 66.4041 109.28 66.5641 109.36C66.7401 109.424 66.9241 109.456 67.1161 109.456C67.4201 109.456 67.7081 109.392 67.9801 109.264C68.2681 109.12 68.5001 108.904 68.6761 108.616C68.8681 108.312 68.9641 107.92 68.9641 107.44L69.3481 108.88C69.3481 109.584 69.1721 110.192 68.8201 110.704C68.4681 111.2 67.9881 111.584 67.3801 111.856C66.7721 112.112 66.0841 112.24 65.3161 112.24C64.5961 112.24 63.9321 112.112 63.3241 111.856C62.7161 111.6 62.2281 111.216 61.8601 110.704C61.4921 110.176 61.3081 109.536 61.3081 108.784C61.3081 107.728 61.6761 106.904 62.4121 106.312C63.1641 105.704 64.2441 105.4 65.6521 105.4C66.2281 105.4 66.7801 105.448 67.3081 105.544C67.8521 105.64 68.3321 105.776 68.7481 105.952C69.1801 106.112 69.5161 106.32 69.7561 106.576V108.472C69.4841 108.232 69.1161 108.04 68.6521 107.896C68.2041 107.752 67.7401 107.68 67.2601 107.68C66.9561 107.68 66.7081 107.712 66.5161 107.776C66.3401 107.84 66.2121 107.936 66.1321 108.064C66.0521 108.176 66.0121 108.328 66.0121 108.52ZM63.5881 104.848L62.1721 101.824C62.9401 101.52 63.8041 101.24 64.7641 100.984C65.7401 100.728 66.7561 100.6 67.8121 100.6C68.8521 100.6 69.7961 100.744 70.6441 101.032C71.4921 101.32 72.1641 101.744 72.6601 102.304C73.1561 102.848 73.4041 103.52 73.4041 104.32V112H68.9641V105.472C68.9641 105.264 68.9321 105.072 68.8681 104.896C68.8041 104.72 68.7001 104.568 68.5561 104.44C68.4121 104.296 68.2201 104.192 67.9801 104.128C67.7401 104.048 67.4521 104.008 67.1161 104.008C66.6681 104.008 66.1961 104.064 65.7001 104.176C65.2041 104.272 64.7641 104.392 64.3801 104.536C63.9961 104.664 63.7321 104.768 63.5881 104.848ZM80.3694 100.96V112H75.8094V100.96H80.3694ZM83.4654 105.712C83.3214 105.52 83.1374 105.36 82.9134 105.232C82.6894 105.104 82.4174 105.04 82.0974 105.04C81.8254 105.04 81.5534 105.12 81.2814 105.28C81.0094 105.44 80.7854 105.688 80.6094 106.024C80.4494 106.36 80.3694 106.792 80.3694 107.32L79.5054 105.28C79.5054 104.4 79.6894 103.616 80.0574 102.928C80.4254 102.24 80.9054 101.696 81.4974 101.296C82.1054 100.88 82.7454 100.672 83.4174 100.672C83.8174 100.672 84.2014 100.776 84.5694 100.984C84.9534 101.176 85.2174 101.408 85.3614 101.68L83.4654 105.712ZM91.2444 100.96V112H86.6844V100.96H91.2444ZM94.3404 105.712C94.1964 105.52 94.0124 105.36 93.7884 105.232C93.5644 105.104 93.2924 105.04 92.9724 105.04C92.7004 105.04 92.4284 105.12 92.1564 105.28C91.8844 105.44 91.6604 105.688 91.4844 106.024C91.3244 106.36 91.2444 106.792 91.2444 107.32L90.3804 105.28C90.3804 104.4 90.5644 103.616 90.9324 102.928C91.3004 102.24 91.7804 101.696 92.3724 101.296C92.9804 100.88 93.6204 100.672 94.2924 100.672C94.6924 100.672 95.0764 100.776 95.4444 100.984C95.8284 101.176 96.0924 101.408 96.2364 101.68L94.3404 105.712ZM103.64 112.24C102.2 112.24 100.96 112.008 99.9198 111.544C98.8958 111.08 98.1038 110.424 97.5438 109.576C96.9998 108.712 96.7278 107.68 96.7278 106.48C96.7278 105.264 96.9918 104.232 97.5198 103.384C98.0478 102.52 98.8078 101.864 99.7998 101.416C100.792 100.952 101.992 100.72 103.4 100.72C104.792 100.72 105.96 100.936 106.904 101.368C107.864 101.784 108.584 102.408 109.064 103.24C109.56 104.056 109.808 105.064 109.808 106.264C109.808 106.472 109.808 106.68 109.808 106.888C109.808 107.08 109.792 107.264 109.76 107.44H99.2718V105.184H105.416L104.504 106.288C104.6 106.144 104.68 105.992 104.744 105.832C104.808 105.672 104.84 105.536 104.84 105.424C104.84 105.04 104.776 104.712 104.648 104.44C104.52 104.168 104.336 103.96 104.096 103.816C103.872 103.672 103.6 103.6 103.28 103.6C102.848 103.6 102.496 103.704 102.224 103.912C101.952 104.104 101.752 104.416 101.624 104.848C101.496 105.264 101.432 105.808 101.432 106.48C101.416 107.04 101.48 107.52 101.624 107.92C101.784 108.304 102.008 108.6 102.296 108.808C102.6 109.016 102.968 109.12 103.4 109.12C103.976 109.12 104.456 109.032 104.84 108.856C105.224 108.664 105.512 108.392 105.704 108.04L109.976 108.712C109.384 109.896 108.56 110.784 107.504 111.376C106.464 111.952 105.176 112.24 103.64 112.24Z" fill="white"/>
<defs>
<clipPath id="clip0_1252_2002">
<rect width="59" height="48" fill="white" transform="translate(47.5 33)"/>
</clipPath>
</defs>
</svg>
