<svg width="154" height="154" viewBox="0 0 154 154" fill="none" xmlns="http://www.w3.org/2000/svg">
<rect width="154" height="154" rx="10" fill="#BDA8DD"/>
<g clip-path="url(#clip0_1252_1992)">
<path d="M54.5 33H66.5C66.9969 33 67.4656 33.2531 67.7469 33.6656L75.35 45.0656C70.7094 45.45 66.5375 47.4656 63.3875 50.5312L53.2531 35.3344C52.9438 34.875 52.9156 34.2844 53.1781 33.7969C53.4406 33.3094 53.9469 33 54.5 33ZM100.747 35.3344L90.6125 50.5406C87.4719 47.475 83.2906 45.4594 78.65 45.075L86.2531 33.6656C86.5344 33.2437 87.0031 33 87.5 33H99.5C100.053 33 100.559 33.3 100.822 33.7969C101.084 34.2938 101.056 34.875 100.747 35.3344ZM93.5 64.5C93.5 73.6125 86.1125 81 77 81C67.8875 81 60.5 73.6125 60.5 64.5C60.5 55.3875 67.8875 48 77 48C86.1125 48 93.5 55.3875 93.5 64.5ZM77.7875 55.6031C77.4688 54.9469 76.5406 54.9469 76.2125 55.6031L74.1125 59.8594C73.9813 60.1219 73.7375 60.3 73.4563 60.3375L68.75 61.0219C68.0281 61.125 67.7469 62.0062 68.2625 62.5219L71.6656 65.8406C71.8719 66.0469 71.9656 66.3281 71.9188 66.6188L71.1125 71.2969C70.9906 72.0094 71.7406 72.5625 72.3875 72.225L76.5875 70.0125C76.8406 69.8812 77.15 69.8812 77.4031 70.0125L81.6031 72.225C82.25 72.5625 83 72.0187 82.8781 71.2969L82.0719 66.6188C82.025 66.3375 82.1188 66.0469 82.325 65.8406L85.7281 62.5219C86.2531 62.0156 85.9625 61.1344 85.2406 61.0219L80.5438 60.3375C80.2625 60.3 80.0094 60.1125 79.8875 59.8594L77.7875 55.6031V55.6031Z" fill="#F7F4FB"/>
</g>
<path d="M35.8864 106.24V102.4H44.8144C44.9424 103.84 44.8304 105.184 44.4784 106.432C44.1424 107.68 43.5904 108.776 42.8224 109.72C42.0544 110.664 41.0864 111.4 39.9184 111.928C38.7504 112.456 37.4064 112.72 35.8864 112.72C34.4784 112.72 33.1904 112.504 32.0224 112.072C30.8544 111.64 29.8384 111.024 28.9744 110.224C28.1264 109.424 27.4624 108.464 26.9824 107.344C26.5184 106.224 26.2864 104.976 26.2864 103.6C26.2864 102.224 26.5344 100.992 27.0304 99.904C27.5264 98.8 28.2144 97.864 29.0944 97.096C29.9904 96.328 31.0304 95.744 32.2144 95.344C33.4144 94.928 34.7184 94.72 36.1264 94.72C37.4064 94.72 38.5344 94.912 39.5104 95.296C40.5024 95.68 41.3664 96.192 42.1024 96.832C42.8544 97.456 43.5104 98.16 44.0704 98.944L39.1504 101.152C38.8624 100.624 38.4864 100.16 38.0224 99.76C37.5584 99.36 36.9264 99.16 36.1264 99.16C35.3424 99.16 34.6224 99.328 33.9664 99.664C33.3104 99.984 32.7824 100.472 32.3824 101.128C31.9984 101.784 31.8064 102.608 31.8064 103.6C31.8064 104.576 31.9824 105.416 32.3344 106.12C32.7024 106.824 33.2064 107.36 33.8464 107.728C34.5024 108.096 35.2624 108.28 36.1264 108.28C36.6064 108.28 37.0384 108.232 37.4224 108.136C37.8064 108.04 38.1344 107.904 38.4064 107.728C38.6944 107.552 38.9424 107.336 39.1504 107.08C39.3584 106.824 39.5344 106.544 39.6784 106.24H35.8864ZM46.8758 93.28H51.5558V112H46.8758V93.28ZM53.5939 97.072C53.5939 96.368 53.8419 95.8 54.3379 95.368C54.8499 94.936 55.4659 94.72 56.1859 94.72C56.9059 94.72 57.5139 94.936 58.0099 95.368C58.5219 95.8 58.7779 96.368 58.7779 97.072C58.7779 97.776 58.5219 98.344 58.0099 98.776C57.5139 99.208 56.9059 99.424 56.1859 99.424C55.4659 99.424 54.8499 99.208 54.3379 98.776C53.8419 98.344 53.5939 97.776 53.5939 97.072ZM53.9299 100.96H58.4179V112H53.9299V100.96ZM68.6884 107.608C69.4564 108.152 70.1124 108.552 70.6564 108.808C71.2164 109.048 71.6644 109.2 72.0004 109.264C72.3524 109.328 72.5924 109.36 72.7204 109.36C72.9764 109.36 73.1524 109.312 73.2484 109.216C73.3604 109.104 73.4164 108.968 73.4164 108.808C73.4164 108.664 73.3684 108.536 73.2724 108.424C73.1924 108.312 72.9924 108.192 72.6724 108.064C72.3524 107.92 71.8484 107.744 71.1604 107.536C70.6164 107.36 70.1044 107.144 69.6244 106.888C69.1604 106.616 68.7844 106.248 68.4964 105.784C68.2084 105.32 68.0644 104.72 68.0644 103.984C68.0644 103.296 68.2484 102.712 68.6164 102.232C68.9844 101.736 69.4964 101.36 70.1524 101.104C70.8244 100.848 71.6164 100.72 72.5284 100.72C73.2004 100.72 73.8244 100.784 74.4004 100.912C74.9764 101.024 75.5364 101.176 76.0804 101.368C76.6244 101.56 77.1684 101.784 77.7124 102.04L76.5604 105.232C76.0164 104.768 75.4004 104.4 74.7124 104.128C74.0404 103.84 73.4804 103.696 73.0324 103.696C72.7444 103.696 72.5524 103.744 72.4564 103.84C72.3604 103.936 72.3124 104.04 72.3124 104.152C72.3124 104.36 72.4004 104.528 72.5764 104.656C72.7684 104.768 73.0564 104.88 73.4404 104.992C73.8404 105.104 74.3604 105.28 75.0004 105.52C75.5284 105.712 76.0244 105.936 76.4884 106.192C76.9524 106.448 77.3284 106.784 77.6164 107.2C77.9044 107.616 78.0484 108.176 78.0484 108.88C78.0484 110.192 77.6724 111.144 76.9204 111.736C76.1684 112.312 75.0804 112.6 73.6564 112.6C72.8244 112.6 72.0404 112.528 71.3044 112.384C70.5684 112.256 69.8644 112.064 69.1924 111.808C68.5204 111.552 67.8484 111.248 67.1764 110.896L68.6884 107.608ZM84.4152 117.28H79.7352V100.96H84.4152V117.28ZM93.2952 106.48C93.2952 107.824 93.0392 108.944 92.5272 109.84C92.0312 110.72 91.3912 111.384 90.6072 111.832C89.8392 112.264 89.0312 112.48 88.1832 112.48C87.1912 112.48 86.3432 112.232 85.6392 111.736C84.9512 111.224 84.4312 110.52 84.0792 109.624C83.7272 108.712 83.5512 107.664 83.5512 106.48C83.5512 105.28 83.7272 104.232 84.0792 103.336C84.4312 102.44 84.9512 101.744 85.6392 101.248C86.3432 100.736 87.1912 100.48 88.1832 100.48C89.0312 100.48 89.8392 100.704 90.6072 101.152C91.3912 101.584 92.0312 102.24 92.5272 103.12C93.0392 104 93.2952 105.12 93.2952 106.48ZM88.3512 106.48C88.3512 106.064 88.2632 105.72 88.0872 105.448C87.9112 105.16 87.6712 104.944 87.3672 104.8C87.0792 104.64 86.7512 104.56 86.3832 104.56C86.0632 104.56 85.7512 104.632 85.4472 104.776C85.1432 104.904 84.8952 105.112 84.7032 105.4C84.5112 105.672 84.4152 106.032 84.4152 106.48C84.4152 106.928 84.5112 107.296 84.7032 107.584C84.8952 107.856 85.1432 108.064 85.4472 108.208C85.7512 108.336 86.0632 108.4 86.3832 108.4C86.7512 108.4 87.0792 108.328 87.3672 108.184C87.6712 108.024 87.9112 107.8 88.0872 107.512C88.2632 107.224 88.3512 106.88 88.3512 106.48ZM94.7239 106.48C94.7239 105.28 95.0119 104.248 95.5879 103.384C96.1639 102.52 96.9559 101.856 97.9639 101.392C98.9719 100.928 100.116 100.696 101.396 100.696C102.676 100.696 103.82 100.928 104.828 101.392C105.836 101.856 106.628 102.52 107.204 103.384C107.78 104.248 108.068 105.28 108.068 106.48C108.068 107.664 107.78 108.688 107.204 109.552C106.628 110.416 105.836 111.08 104.828 111.544C103.82 112.008 102.676 112.24 101.396 112.24C100.116 112.24 98.9719 112.008 97.9639 111.544C96.9559 111.08 96.1639 110.416 95.5879 109.552C95.0119 108.688 94.7239 107.664 94.7239 106.48ZM99.5479 106.48C99.5479 106.928 99.6359 107.304 99.8119 107.608C99.9879 107.912 100.212 108.144 100.484 108.304C100.772 108.448 101.076 108.52 101.396 108.52C101.716 108.52 102.012 108.448 102.284 108.304C102.572 108.144 102.804 107.912 102.98 107.608C103.156 107.304 103.244 106.928 103.244 106.48C103.244 106.032 103.156 105.656 102.98 105.352C102.804 105.048 102.572 104.816 102.284 104.656C102.012 104.496 101.716 104.416 101.396 104.416C101.076 104.416 100.772 104.496 100.484 104.656C100.212 104.816 99.9879 105.048 99.8119 105.352C99.6359 105.656 99.5479 106.032 99.5479 106.48ZM114.553 100.96V112H109.993V100.96H114.553ZM117.649 105.712C117.505 105.52 117.321 105.36 117.097 105.232C116.873 105.104 116.601 105.04 116.281 105.04C116.009 105.04 115.737 105.12 115.465 105.28C115.193 105.44 114.969 105.688 114.793 106.024C114.633 106.36 114.553 106.792 114.553 107.32L113.689 105.28C113.689 104.4 113.873 103.616 114.241 102.928C114.609 102.24 115.089 101.696 115.681 101.296C116.289 100.88 116.929 100.672 117.601 100.672C118.001 100.672 118.385 100.776 118.753 100.984C119.137 101.176 119.401 101.408 119.545 101.68L117.649 105.712ZM119.788 100.96H128.308V104.68H119.788V100.96ZM121.828 97.12H126.268V112H121.828V97.12Z" fill="white"/>
<defs>
<clipPath id="clip0_1252_1992">
<rect width="48" height="48" fill="white" transform="translate(53 33)"/>
</clipPath>
</defs>
</svg>
