<svg width="80" height="80" viewBox="0 0 80 80" fill="none" xmlns="http://www.w3.org/2000/svg">
<g clip-path="url(#clip0_436_941)">
<mask id="mask0_436_941" style="mask-type:alpha" maskUnits="userSpaceOnUse" x="0" y="0" width="80" height="80">
<path d="M80 40C80 17.9086 62.0914 0 40 0C17.9086 0 0 17.9086 0 40C0 62.0914 17.9086 80 40 80C62.0914 80 80 62.0914 80 40Z" fill="white"/>
</mask>
<g mask="url(#mask0_436_941)">
<path d="M80 -4H-2V81H80V-4Z" fill="#EEE9F7"/>
<path d="M53.8145 20.1005C31.0344 23.7085 15.4923 45.1003 19.1003 67.8805C22.7083 90.6607 44.1002 106.203 66.8804 102.595C89.6605 98.9867 105.203 77.5949 101.595 54.8147C97.9866 32.0345 76.5947 16.4924 53.8145 20.1005Z" fill="#BDA8DD" stroke="white" stroke-width="6"/>
<path d="M32.3914 55.1483C32.4363 57.2702 33.6121 59.2816 35.6601 60.74C37.7082 62.1984 40.4606 62.9842 43.312 62.9247C46.1633 62.8652 48.8801 61.9651 50.8645 60.4226C52.8489 58.88 53.9385 56.8213 53.8936 54.6993" fill="#EEE9F7"/>
<path d="M35.4632 46.4008C35.4382 45.2149 34.6984 44.2687 33.8108 44.2874C32.9232 44.3062 32.2239 45.2828 32.2488 46.4687C32.2738 47.6546 33.0136 48.6008 33.9012 48.5821C34.7888 48.5633 35.4882 47.5867 35.4632 46.4008Z" fill="#EEE9F7"/>
<path d="M52.6878 46.1001C52.6628 44.9142 51.923 43.968 51.0354 43.9868C50.1478 44.0055 49.4485 44.9821 49.4734 46.1681C49.4984 47.354 50.2382 48.3002 51.1258 48.2814C52.0134 48.2626 52.7128 47.2861 52.6878 46.1001Z" fill="#EEE9F7"/>
</g>
</g>
<defs>
<clipPath id="clip0_436_941">
<rect width="80" height="80" fill="white"/>
</clipPath>
</defs>
</svg>
