<svg width="80" height="80" viewBox="0 0 80 80" fill="none" xmlns="http://www.w3.org/2000/svg">
<g clip-path="url(#clip0_436_945)">
<mask id="mask0_436_945" style="mask-type:alpha" maskUnits="userSpaceOnUse" x="0" y="0" width="80" height="80">
<path d="M80 40C80 17.9086 62.0914 0 40 0C17.9086 0 0 17.9086 0 40C0 62.0914 17.9086 80 40 80C62.0914 80 80 62.0914 80 40Z" fill="white"/>
</mask>
<g mask="url(#mask0_436_945)">
<path d="M80 0H0V80H80V0Z" fill="#EEE9F7"/>
<path d="M20.7631 12.1826L11.8561 75.5598C10.3957 85.9511 17.6356 95.5588 28.0269 97.0192L91.404 105.926C101.795 107.387 111.403 100.147 112.863 89.7554L121.77 26.3783C123.231 15.987 115.991 6.37929 105.6 4.91889L42.2225 -3.98819C31.8312 -5.44859 22.2235 1.79134 20.7631 12.1826Z" fill="#BDA8DD" stroke="white" stroke-width="6"/>
<path d="M38.8137 57.0371C39.1213 59.2257 40.5755 61.1618 42.8565 62.4194C45.1375 63.677 48.0583 64.1531 50.9765 63.743C53.8946 63.3329 56.5711 62.0701 58.4171 60.2325C60.263 58.3949 61.1273 56.133 60.8197 53.9444" fill="#EEE9F7"/>
<path d="M35.8577 43.9882C35.6869 42.7728 34.8095 41.8914 33.898 42.0195C32.9865 42.1476 32.386 43.2367 32.5568 44.4521C32.7276 45.6674 33.605 46.5488 34.5166 46.4207C35.4281 46.2926 36.0285 45.2035 35.8577 43.9882Z" fill="#EEE9F7"/>
<path d="M62.265 40.2768C62.0941 39.0615 61.2167 38.1801 60.3052 38.3082C59.3937 38.4363 58.7933 39.5254 58.9641 40.7408C59.1349 41.9561 60.0123 42.8375 60.9238 42.7094C61.8353 42.5813 62.4358 41.4922 62.265 40.2768Z" fill="#EEE9F7"/>
</g>
</g>
<defs>
<clipPath id="clip0_436_945">
<rect width="80" height="80" fill="white"/>
</clipPath>
</defs>
</svg>
