<svg width="80" height="80" viewBox="0 0 80 80" fill="none" xmlns="http://www.w3.org/2000/svg">
<g clip-path="url(#clip0_436_944)">
<mask id="mask0_436_944" style="mask-type:alpha" maskUnits="userSpaceOnUse" x="0" y="0" width="80" height="80">
<path d="M80 40C80 17.9086 62.0914 0 40 0C17.9086 0 0 17.9086 0 40C0 62.0914 17.9086 80 40 80C62.0914 80 80 62.0914 80 40Z" fill="white"/>
</mask>
<g mask="url(#mask0_436_944)">
<path d="M80 0H0V80H80V0Z" fill="#EEE9F7"/>
<path d="M60.8302 18.5456C41.6175 4.58669 14.7266 8.84579 0.767708 28.0585C-13.1912 47.2713 -8.93206 74.1621 10.2807 88.121C29.4934 102.08 56.3843 97.8208 70.3432 78.6081C84.302 59.3953 80.0429 32.5044 60.8302 18.5456Z" fill="#BDA8DD" stroke="white" stroke-width="6"/>
<path d="M24.2729 54.3819C24.0419 56.5799 24.9846 58.8103 26.8936 60.5824C28.8025 62.3544 31.5214 63.523 34.4521 63.831C37.3828 64.139 40.2853 63.5613 42.521 62.2249C44.7566 60.8884 46.1424 58.9028 46.3734 56.7048" fill="#EEE9F7"/>
<path d="M28.5171 45.8901C28.6454 44.6696 28.0073 43.6021 27.0919 43.5059C26.1764 43.4097 25.3303 44.3211 25.202 45.5417C25.0738 46.7623 25.7119 47.8298 26.6273 47.926C27.5427 48.0222 28.3888 47.1107 28.5171 45.8901Z" fill="#EEE9F7"/>
<path d="M46.1975 47.7484C46.3258 46.5278 45.6877 45.4604 44.7723 45.3642C43.8569 45.2679 43.0107 46.1794 42.8825 47.4C42.7542 48.6206 43.3923 49.688 44.3077 49.7843C45.2231 49.8805 46.0692 48.969 46.1975 47.7484Z" fill="#EEE9F7"/>
</g>
</g>
<defs>
<clipPath id="clip0_436_944">
<rect width="80" height="80" fill="white"/>
</clipPath>
</defs>
</svg>
