<svg width="80" height="80" viewBox="0 0 80 80" fill="none" xmlns="http://www.w3.org/2000/svg">
<g clip-path="url(#clip0_1536_1843)">
<mask id="mask0_1536_1843" style="mask-type:luminance" maskUnits="userSpaceOnUse" x="0" y="0" width="80" height="80">
<path d="M80 40C80 17.9086 62.0914 0 40 0C17.9086 0 0 17.9086 0 40C0 62.0914 17.9086 80 40 80C62.0914 80 80 62.0914 80 40Z" fill="white"/>
</mask>
<g mask="url(#mask0_1536_1843)">
<path d="M80 0H0V80H80V0Z" fill="#EEE9F7"/>
<path d="M76.8837 104.517C96.4499 84.2561 95.8863 51.9696 75.625 32.4035C55.3637 12.8374 23.0772 13.4009 3.51107 33.6622C-16.055 53.9235 -15.4915 86.21 4.76982 105.776C25.0311 125.342 57.3176 124.779 76.8837 104.517Z" fill="#BDA8DD" stroke="white" stroke-width="6"/>
<path d="M20.4922 56.3143C20.6464 58.5191 21.962 60.5519 24.1497 61.9655C26.3374 63.3792 29.2179 64.0579 32.1575 63.8523C35.0972 63.6467 37.8552 62.5738 39.8249 60.8694C41.7945 59.1651 42.8145 56.9689 42.6603 54.7642" fill="#F7F4FB"/>
<path d="M16.2368 43.246C16.1512 42.0217 15.3374 41.0812 14.4192 41.1455C13.501 41.2097 12.826 42.2542 12.9116 43.4785C12.9972 44.7028 13.811 45.6433 14.7292 45.5791C15.6475 45.5149 16.3224 44.4703 16.2368 43.246Z" fill="#F7F4FB"/>
<path d="M47.2722 41.0758C47.1866 39.8515 46.3728 38.9111 45.4546 38.9753C44.5364 39.0395 43.8614 40.0841 43.947 41.3084C44.0326 42.5327 44.8464 43.4731 45.7646 43.4089C46.6829 43.3447 47.3578 42.3002 47.2722 41.0758Z" fill="#F7F4FB"/>
</g>
<path d="M43.684 7.14773L40.8643 22.9357L42.3197 15.3467C48.5122 14.7607 52.0014 16.1002 58.3167 20.7765L61.371 13.6231L56.4462 10.7515C52.4677 8.11294 48.8635 6.4044 43.684 7.14773Z" fill="#BDA8DD"/>
<path d="M44.1816 4.36162L40.8643 22.9357L42.3197 15.3467C48.5122 14.7607 52.0014 16.1002 58.3167 20.7765L61.371 13.6231L56.4462 10.7515C52.4677 8.11294 48.8635 6.4044 43.684 7.14773L44.1816 4.36162Z" stroke="#BDA8DD"/>
<path d="M44.8755 8.87146L45.4529 8.99241L44.8441 11.8993L46.2045 12.1843L46.0959 12.703L44.1579 12.2971L44.8755 8.87146Z" fill="white"/>
<path d="M47.7039 12.1366L47.9356 11.68L49.5089 12.0868L49.495 12.5997L47.7039 12.1366ZM48.9928 10.8069L48.1387 11.9133L48.0965 12.0367L47.3528 12.9754L46.709 12.8089L49.2895 9.65961L50.0201 13.665L49.3763 13.4986L49.183 12.3486L49.2047 12.2044L48.9928 10.8069Z" fill="white"/>
<path d="M51.8254 12.3567L51.9252 12.0845L52.4557 12.279C52.5589 12.3169 52.656 12.333 52.7469 12.3272C52.8377 12.3215 52.9165 12.2954 52.9833 12.2489C53.0512 12.1992 53.1018 12.129 53.1351 12.0383C53.1856 11.9006 53.1762 11.7764 53.1067 11.6657C53.0372 11.555 52.9258 11.4715 52.7725 11.4153L52.3735 11.2689L51.5022 13.6442L51.9623 13.8129C52.0875 13.8588 52.206 13.8793 52.3179 13.8742C52.4299 13.8691 52.5289 13.8362 52.6151 13.7755C52.7013 13.7147 52.7668 13.6234 52.8115 13.5013C52.8437 13.4137 52.8546 13.3307 52.8443 13.2524C52.8382 13.172 52.8135 13.0991 52.7701 13.0334C52.731 12.9658 52.6758 12.9083 52.6044 12.8608C52.5342 12.8102 52.4522 12.7677 52.3583 12.7333L51.7668 12.5163L51.8787 12.2112L52.5031 12.4402C52.6627 12.4987 52.8066 12.571 52.9348 12.6571C53.063 12.7432 53.1686 12.8423 53.2518 12.9545C53.338 13.0678 53.3918 13.1922 53.413 13.3279C53.4343 13.4635 53.4163 13.6095 53.3589 13.766C53.2797 13.9819 53.1626 14.1414 53.0077 14.2443C52.8559 14.3484 52.6782 14.4022 52.4745 14.4056C52.2752 14.407 52.0597 14.3653 51.8281 14.2803L50.7813 13.8964L51.9866 10.6104L52.977 10.9737C53.1836 11.0495 53.3542 11.1458 53.4889 11.2626C53.6267 11.3806 53.717 11.5167 53.7598 11.6709C53.8058 11.8263 53.7944 11.9978 53.7255 12.1856C53.6658 12.3483 53.5694 12.4709 53.4361 12.5534C53.3072 12.634 53.152 12.6747 52.9706 12.6756C52.7923 12.6777 52.5999 12.6408 52.3934 12.5651L51.8254 12.3567Z" fill="white"/>
<path d="M53.3985 14.1212L56.5006 12.609L56.8107 12.7817L55.1085 15.8399L54.5798 15.5456L55.0078 14.7767L55.0652 14.7457L55.7996 13.4263L54.3804 14.1356L55.4421 14.7265L55.5382 14.7286L56.1629 15.0763L55.9149 15.5219L53.3985 14.1212Z" fill="white"/>
<path d="M57.9566 13.5505L58.4012 13.9384L56.8726 15.6903C56.7302 15.8536 56.6578 16.0227 56.6556 16.1977C56.658 16.3723 56.7446 16.5342 56.9154 16.6832C57.0837 16.83 57.2545 16.8928 57.4279 16.8716C57.6035 16.8478 57.7625 16.7543 57.9049 16.591L59.4335 14.8391L59.8781 15.227L58.3331 16.9977C58.206 17.1434 58.0682 17.2532 57.9196 17.3271C57.7758 17.4007 57.6261 17.4404 57.4706 17.4463C57.3151 17.4521 57.1597 17.4249 57.0044 17.3646C56.8491 17.3043 56.7011 17.2128 56.5604 17.0901C56.4198 16.9674 56.309 16.8332 56.2282 16.6875C56.1474 16.5418 56.0982 16.3904 56.0804 16.2333C56.0651 16.0784 56.0842 15.9247 56.1376 15.7723C56.1932 15.6173 56.2845 15.467 56.4116 15.3213L57.9566 13.5505Z" fill="white"/>
</g>
<defs>
<clipPath id="clip0_1536_1843">
<rect width="80" height="80" fill="white"/>
</clipPath>
</defs>
</svg>
