<svg width="80" height="80" viewBox="0 0 80 80" fill="none" xmlns="http://www.w3.org/2000/svg">
<g clip-path="url(#clip0_436_948)">
<mask id="mask0_436_948" style="mask-type:alpha" maskUnits="userSpaceOnUse" x="0" y="0" width="80" height="80">
<path d="M80 40C80 17.9086 62.0914 0 40 0C17.9086 0 0 17.9086 0 40C0 62.0914 17.9086 80 40 80C62.0914 80 80 62.0914 80 40Z" fill="white"/>
</mask>
<g mask="url(#mask0_436_948)">
<path d="M80 0H0V80H80V0Z" fill="#EEE9F7"/>
<path d="M0.99226 9.14377C-18.3957 27.2233 -19.4563 57.5967 -1.3768 76.9847C16.7028 96.3726 47.0762 97.4333 66.4641 79.3537C85.8521 61.2742 86.9127 30.9008 68.8332 11.5128C50.7536 -7.87512 20.3802 -8.93578 0.99226 9.14377Z" fill="#BDA8DD"/>
<path d="M21.4924 53.0406C21.2231 55.2343 22.1267 57.4808 24.0044 59.2859C25.8822 61.091 28.5803 62.3068 31.5051 62.666C34.43 63.0251 37.3421 62.4981 39.6008 61.2009C41.8594 59.9037 43.2797 57.9425 43.549 55.7489" fill="#EEE9F7"/>
<path d="M24.2203 39.9421C24.3699 38.7239 23.7505 37.6455 22.8369 37.5333C21.9232 37.4211 21.0614 38.3177 20.9118 39.5359C20.7622 40.754 21.3816 41.8325 22.2952 41.9446C23.2088 42.0568 24.0707 41.1602 24.2203 39.9421Z" fill="#EEE9F7"/>
<path d="M46.2769 42.6503C46.4265 41.4322 45.8071 40.3537 44.8935 40.2416C43.9799 40.1294 43.118 41.026 42.9684 42.2441C42.8189 43.4623 43.4382 44.5407 44.3519 44.6529C45.2655 44.7651 46.1274 43.8685 46.2769 42.6503Z" fill="#EEE9F7"/>
</g>
</g>
<defs>
<clipPath id="clip0_436_948">
<rect width="80" height="80" fill="white"/>
</clipPath>
</defs>
</svg>
