<svg width="80" height="80" viewBox="0 0 80 80" fill="none" xmlns="http://www.w3.org/2000/svg">
<g clip-path="url(#clip0_436_943)">
<mask id="mask0_436_943" style="mask-type:alpha" maskUnits="userSpaceOnUse" x="0" y="0" width="80" height="80">
<path d="M80 40C80 17.9086 62.0914 0 40 0C17.9086 0 0 17.9086 0 40C0 62.0914 17.9086 80 40 80C62.0914 80 80 62.0914 80 40Z" fill="white"/>
</mask>
<g mask="url(#mask0_436_943)">
<path d="M80 0H0V80H80V0Z" fill="#EEE9F7"/>
<path d="M12.2154 45.5243L53.6632 79.0881C60.6735 84.765 70.9586 83.684 76.6355 76.6736L110.199 35.2258C115.876 28.2154 114.795 17.9304 107.785 12.2535L66.3369 -21.3102C59.3266 -26.9871 49.0415 -25.9061 43.3647 -18.8957L9.80091 22.552C4.12403 29.5624 5.20503 39.8474 12.2154 45.5243Z" fill="#BDA8DD" stroke="white" stroke-width="6"/>
<path d="M43.0676 32.2632C47.1097 35.1533 51.4994 35.8486 56.2368 34.349" stroke="#EEE9F7" stroke-width="2.22222" stroke-linecap="round"/>
<path d="M36.7762 22.267C36.9682 21.0548 36.3868 19.9554 35.4777 19.8114C34.5685 19.6674 33.6759 20.5333 33.4839 21.7455C33.2919 22.9577 33.8733 24.0571 34.7824 24.2011C35.6916 24.3451 36.5842 23.4792 36.7762 22.267Z" fill="#EEE9F7"/>
<path d="M67.5042 27.1338C67.6962 25.9216 67.1149 24.8222 66.2057 24.6782C65.2966 24.5342 64.4039 25.4002 64.2119 26.6123C64.0199 27.8245 64.6013 28.9239 65.5105 29.0679C66.4196 29.2119 67.3122 28.346 67.5042 27.1338Z" fill="#EEE9F7"/>
</g>
</g>
<defs>
<clipPath id="clip0_436_943">
<rect width="80" height="80" fill="white"/>
</clipPath>
</defs>
</svg>
