<svg width="80" height="80" viewBox="0 0 80 80" fill="none" xmlns="http://www.w3.org/2000/svg">
<g clip-path="url(#clip0_436_942)">
<mask id="mask0_436_942" style="mask-type:alpha" maskUnits="userSpaceOnUse" x="0" y="0" width="80" height="80">
<path d="M80 40C80 17.9086 62.0914 0 40 0C17.9086 0 0 17.9086 0 40C0 62.0914 17.9086 80 40 80C62.0914 80 80 62.0914 80 40Z" fill="white"/>
</mask>
<g mask="url(#mask0_436_942)">
<path d="M80 0H0V80H80V0Z" fill="#EEE9F7"/>
<path d="M3.35272 -3.5498C-15.1208 14.2899 -15.6347 43.7276 2.20504 62.2011C20.0447 80.6747 49.4824 81.1885 67.956 63.3488C86.4295 45.5091 86.9433 16.0714 69.1036 -2.40212C51.2639 -20.8757 21.8263 -21.3895 3.35272 -3.5498Z" fill="#BDA8DD" stroke="white" stroke-width="5"/>
<path d="M29.3899 31.7836C34.0423 33.529 38.4624 33.0645 42.6502 30.3899" stroke="#EEE9F7" stroke-width="2.22222" stroke-linecap="round"/>
<path d="M27.1235 20.8494C26.9952 19.6288 26.1491 18.7174 25.2337 18.8136C24.3183 18.9098 23.6802 19.9773 23.8085 21.1978C23.9367 22.4184 24.7828 23.3299 25.6983 23.2337C26.6137 23.1375 27.2518 22.07 27.1235 20.8494Z" fill="#EEE9F7"/>
<path d="M44.804 18.9911C44.6757 17.7706 43.8296 16.8591 42.9141 16.9553C41.9987 17.0515 41.3606 18.119 41.4889 19.3396C41.6172 20.5601 42.4633 21.4716 43.3787 21.3754C44.2941 21.2792 44.9322 20.2117 44.804 18.9911Z" fill="#EEE9F7"/>
</g>
</g>
<defs>
<clipPath id="clip0_436_942">
<rect width="80" height="80" fill="white"/>
</clipPath>
</defs>
</svg>
