<svg width="80" height="80" viewBox="0 0 80 80" fill="none" xmlns="http://www.w3.org/2000/svg">
<g clip-path="url(#clip0_436_950)">
<mask id="mask0_436_950" style="mask-type:alpha" maskUnits="userSpaceOnUse" x="0" y="0" width="80" height="80">
<path d="M80 40C80 17.9086 62.0914 0 40 0C17.9086 0 0 17.9086 0 40C0 62.0914 17.9086 80 40 80C62.0914 80 80 62.0914 80 40Z" fill="white"/>
</mask>
<g mask="url(#mask0_436_950)">
<path d="M80 0H0V80H80V0Z" fill="#EEE9F7"/>
<path d="M113.97 48.2896L75.4534 -2.82305C69.1383 -11.2035 57.2253 -12.8777 48.8449 -6.56264L-2.26782 31.9535C-10.6482 38.2686 -12.3225 50.1817 -6.00742 58.5621L32.5087 109.675C38.8238 118.055 50.7369 119.729 59.1173 113.414L110.23 74.8982C118.61 68.5831 120.285 56.67 113.97 48.2896Z" fill="#BDA8DD" stroke="white" stroke-width="6"/>
<path d="M40.7714 37.4197C45.0934 39.8715 49.5318 40.1041 54.0864 38.1175" stroke="#EEE9F7" stroke-width="2.22222" stroke-linecap="round"/>
<path d="M35.9212 23.8139C35.9854 22.5883 35.2923 21.5557 34.3731 21.5075C33.4539 21.4593 32.6567 22.4138 32.5924 23.6395C32.5282 24.8651 33.2213 25.8977 34.1405 25.9459C35.0597 25.994 35.857 25.0395 35.9212 23.8139Z" fill="#EEE9F7"/>
<path d="M62.5513 25.2095C62.6156 23.9839 61.9225 22.9513 61.0032 22.9031C60.084 22.855 59.2868 23.8095 59.2226 25.0351C59.1583 26.2607 59.8514 27.2933 60.7706 27.3415C61.6899 27.3897 62.4871 26.4352 62.5513 25.2095Z" fill="#EEE9F7"/>
</g>
</g>
<defs>
<clipPath id="clip0_436_950">
<rect width="80" height="80" fill="white"/>
</clipPath>
</defs>
</svg>
