<svg width="80" height="80" viewBox="0 0 80 80" fill="none" xmlns="http://www.w3.org/2000/svg">
<g clip-path="url(#clip0_436_949)">
<mask id="mask0_436_949" style="mask-type:alpha" maskUnits="userSpaceOnUse" x="0" y="0" width="80" height="80">
<path d="M80 40C80 17.9086 62.0914 0 40 0C17.9086 0 0 17.9086 0 40C0 62.0914 17.9086 80 40 80C62.0914 80 80 62.0914 80 40Z" fill="white"/>
</mask>
<g mask="url(#mask0_436_949)">
<path d="M80 0H0V80H80V0Z" fill="#EEE9F7"/>
<path d="M108.055 41.2747L61.2015 5.96819C53.4092 0.096262 42.3321 1.65304 36.4602 9.44535L1.15373 56.2986C-4.7182 64.0909 -3.16142 75.168 4.63089 81.0399L51.4842 116.346C59.2765 122.218 70.3535 120.662 76.2255 112.869L111.532 66.016C117.404 58.2237 115.847 47.1466 108.055 41.2747Z" fill="#BDA8DD" stroke="white" stroke-width="6"/>
<path d="M37.2911 53.5431C37.5605 55.7368 38.9807 57.6979 41.2394 58.9951C43.498 60.2923 46.4101 60.8193 49.335 60.4602C52.2599 60.1011 54.958 58.8852 56.8357 57.0801C58.7135 55.275 59.6171 53.0285 59.3477 50.8349" fill="#EEE9F7"/>
<path d="M37.0399 42.3794C36.8903 41.1612 36.0284 40.2647 35.1148 40.3768C34.2012 40.489 33.5818 41.5675 33.7314 42.7856C33.881 44.0038 34.7428 44.9003 35.6565 44.7882C36.5701 44.676 37.1894 43.5975 37.0399 42.3794Z" fill="#EEE9F7"/>
<path d="M59.0965 39.6711C58.9469 38.453 58.0851 37.5564 57.1715 37.6686C56.2578 37.7808 55.6385 38.8592 55.788 40.0774C55.9376 41.2955 56.7995 42.1921 57.7131 42.0799C58.6267 41.9677 59.2461 40.8893 59.0965 39.6711Z" fill="#EEE9F7"/>
</g>
</g>
<defs>
<clipPath id="clip0_436_949">
<rect width="80" height="80" fill="white"/>
</clipPath>
</defs>
</svg>
