<svg width="80" height="80" viewBox="0 0 80 80" fill="none" xmlns="http://www.w3.org/2000/svg">
<g clip-path="url(#clip0_436_946)">
<mask id="mask0_436_946" style="mask-type:alpha" maskUnits="userSpaceOnUse" x="0" y="0" width="80" height="80">
<path d="M80 40C80 17.9086 62.0914 0 40 0C17.9086 0 0 17.9086 0 40C0 62.0914 17.9086 80 40 80C62.0914 80 80 62.0914 80 40Z" fill="white"/>
</mask>
<g mask="url(#mask0_436_946)">
<path d="M80 0H0V80H80V0Z" fill="#EEE9F7"/>
<path d="M31.7637 90.9348L89.7674 63.8872C97.776 60.1527 101.241 50.633 97.5064 42.6244L70.4588 -15.3793C66.7244 -23.388 57.2047 -26.8529 49.196 -23.1184L-8.80768 3.92921C-16.8163 7.6637 -20.2812 17.1834 -16.5467 25.192L10.5009 83.1957C14.2353 91.2044 23.755 94.6693 31.7637 90.9348Z" fill="#BDA8DD"/>
<path d="M40.6066 38.3335C45.2278 40.1599 49.6553 39.7725 53.8892 37.1714" stroke="#EEE9F7" stroke-width="2.22222" stroke-linecap="round"/>
<path d="M40.5513 24.954C40.4443 23.7314 39.6143 22.8053 38.6973 22.8855C37.7803 22.9657 37.1237 24.0219 37.2307 25.2445C37.3376 26.4672 38.1677 27.3933 39.0847 27.313C40.0016 27.2328 40.6583 26.1766 40.5513 24.954Z" fill="#EEE9F7"/>
<path d="M53.8339 23.7919C53.7269 22.5693 52.8969 21.6432 51.9799 21.7234C51.0629 21.8036 50.4063 22.8598 50.5133 24.0824C50.6202 25.305 51.4503 26.2311 52.3673 26.1509C53.2842 26.0707 53.9409 25.0145 53.8339 23.7919Z" fill="#EEE9F7"/>
</g>
</g>
<defs>
<clipPath id="clip0_436_946">
<rect width="80" height="80" fill="white"/>
</clipPath>
</defs>
</svg>
