<svg width="154" height="154" viewBox="0 0 154 154" fill="none" xmlns="http://www.w3.org/2000/svg">
<rect width="154" height="154" rx="10" fill="#BDA8DD"/>
<g clip-path="url(#clip0_1252_2052)">
<path d="M58.5 35.5625C58.5 33.8686 59.8779 32.5 61.5833 32.5H64.6667H89.3333H92.4167C94.1221 32.5 95.5 33.8686 95.5 35.5625C95.5 37.2564 94.1221 38.625 92.4167 38.625V39.6777C92.4167 43.7355 90.7883 47.6307 87.8977 50.5018L81.3648 57L87.9073 63.4982C90.7979 66.3693 92.4263 70.2645 92.4263 74.3223V75.375C94.1318 75.375 95.5096 76.7436 95.5096 78.4375C95.5096 80.1314 94.1318 81.5 92.4263 81.5H89.3333H64.6667H61.5833C59.8779 81.5 58.5 80.1314 58.5 78.4375C58.5 76.7436 59.8779 75.375 61.5833 75.375V74.3223C61.5833 70.2645 63.2117 66.3693 66.1023 63.4982L72.6352 57L66.1023 50.5018C63.2117 47.6307 61.5833 43.7355 61.5833 39.6777V38.625C59.8779 38.625 58.5 37.2564 58.5 35.5625ZM67.75 38.625V39.6777C67.75 42.1182 68.7232 44.4533 70.4576 46.176L77 52.6646L83.5424 46.1664C85.2768 44.4438 86.25 42.1086 86.25 39.6682V38.625H67.75ZM67.75 75.375H86.25V74.3223C86.25 71.8818 85.2768 69.5467 83.5424 67.824L77 61.3354L70.4576 67.8336C68.7232 69.5563 67.75 71.8914 67.75 74.3318V75.3846V75.375Z" fill="#F7F4FB"/>
</g>
<path d="M33.015 106.14V101.46H46.455V106.14H33.015ZM43.167 95.7H48.447V112.5H43.167V95.7ZM31.887 95.7H37.167V112.5H31.887V95.7ZM50.9689 97.572C50.9689 96.868 51.2169 96.3 51.7129 95.868C52.2249 95.436 52.8409 95.22 53.5609 95.22C54.2809 95.22 54.8889 95.436 55.3849 95.868C55.8969 96.3 56.1529 96.868 56.1529 97.572C56.1529 98.276 55.8969 98.844 55.3849 99.276C54.8889 99.708 54.2809 99.924 53.5609 99.924C52.8409 99.924 52.2249 99.708 51.7129 99.276C51.2169 98.844 50.9689 98.276 50.9689 97.572ZM51.3049 101.46H55.7929V112.5H51.3049V101.46ZM58.8681 108.108C59.6361 108.652 60.2921 109.052 60.8361 109.308C61.3961 109.548 61.8441 109.7 62.1801 109.764C62.5321 109.828 62.7721 109.86 62.9001 109.86C63.1561 109.86 63.3321 109.812 63.4281 109.716C63.5401 109.604 63.5961 109.468 63.5961 109.308C63.5961 109.164 63.5481 109.036 63.4521 108.924C63.3721 108.812 63.1721 108.692 62.8521 108.564C62.5321 108.42 62.0281 108.244 61.3401 108.036C60.7961 107.86 60.2841 107.644 59.8041 107.388C59.3401 107.116 58.9641 106.748 58.6761 106.284C58.3881 105.82 58.2441 105.22 58.2441 104.484C58.2441 103.796 58.4281 103.212 58.7961 102.732C59.1641 102.236 59.6761 101.86 60.3321 101.604C61.0041 101.348 61.7961 101.22 62.7081 101.22C63.3801 101.22 64.0041 101.284 64.5801 101.412C65.1561 101.524 65.7161 101.676 66.2601 101.868C66.8041 102.06 67.3481 102.284 67.8921 102.54L66.7401 105.732C66.1961 105.268 65.5801 104.9 64.8921 104.628C64.2201 104.34 63.6601 104.196 63.2121 104.196C62.9241 104.196 62.7321 104.244 62.6361 104.34C62.5401 104.436 62.4921 104.54 62.4921 104.652C62.4921 104.86 62.5801 105.028 62.7561 105.156C62.9481 105.268 63.2361 105.38 63.6201 105.492C64.0201 105.604 64.5401 105.78 65.1801 106.02C65.7081 106.212 66.2041 106.436 66.6681 106.692C67.1321 106.948 67.5081 107.284 67.7961 107.7C68.0841 108.116 68.2281 108.676 68.2281 109.38C68.2281 110.692 67.8521 111.644 67.1001 112.236C66.3481 112.812 65.2601 113.1 63.8361 113.1C63.0041 113.1 62.2201 113.028 61.4841 112.884C60.7481 112.756 60.0441 112.564 59.3721 112.308C58.7001 112.052 58.0281 111.748 57.3561 111.396L58.8681 108.108ZM68.8348 101.46H77.3548V105.18H68.8348V101.46ZM70.8748 97.62H75.3148V112.5H70.8748V97.62ZM78.2005 106.98C78.2005 105.78 78.4885 104.748 79.0645 103.884C79.6405 103.02 80.4325 102.356 81.4405 101.892C82.4485 101.428 83.5925 101.196 84.8725 101.196C86.1525 101.196 87.2965 101.428 88.3045 101.892C89.3125 102.356 90.1045 103.02 90.6805 103.884C91.2565 104.748 91.5445 105.78 91.5445 106.98C91.5445 108.164 91.2565 109.188 90.6805 110.052C90.1045 110.916 89.3125 111.58 88.3045 112.044C87.2965 112.508 86.1525 112.74 84.8725 112.74C83.5925 112.74 82.4485 112.508 81.4405 112.044C80.4325 111.58 79.6405 110.916 79.0645 110.052C78.4885 109.188 78.2005 108.164 78.2005 106.98ZM83.0245 106.98C83.0245 107.428 83.1125 107.804 83.2885 108.108C83.4645 108.412 83.6885 108.644 83.9605 108.804C84.2485 108.948 84.5525 109.02 84.8725 109.02C85.1925 109.02 85.4885 108.948 85.7605 108.804C86.0485 108.644 86.2805 108.412 86.4565 108.108C86.6325 107.804 86.7205 107.428 86.7205 106.98C86.7205 106.532 86.6325 106.156 86.4565 105.852C86.2805 105.548 86.0485 105.316 85.7605 105.156C85.4885 104.996 85.1925 104.916 84.8725 104.916C84.5525 104.916 84.2485 104.996 83.9605 105.156C83.6885 105.316 83.4645 105.548 83.2885 105.852C83.1125 106.156 83.0245 106.532 83.0245 106.98ZM98.0295 101.46V112.5H93.4695V101.46H98.0295ZM101.126 106.212C100.982 106.02 100.798 105.86 100.574 105.732C100.35 105.604 100.078 105.54 99.7575 105.54C99.4855 105.54 99.2135 105.62 98.9415 105.78C98.6695 105.94 98.4455 106.188 98.2695 106.524C98.1095 106.86 98.0295 107.292 98.0295 107.82L97.1655 105.78C97.1655 104.9 97.3495 104.116 97.7175 103.428C98.0855 102.74 98.5655 102.196 99.1575 101.796C99.7655 101.38 100.406 101.172 101.078 101.172C101.478 101.172 101.862 101.276 102.23 101.484C102.614 101.676 102.878 101.908 103.022 102.18L101.126 106.212ZM103.985 97.572C103.985 96.868 104.233 96.3 104.729 95.868C105.241 95.436 105.857 95.22 106.577 95.22C107.297 95.22 107.905 95.436 108.401 95.868C108.913 96.3 109.169 96.868 109.169 97.572C109.169 98.276 108.913 98.844 108.401 99.276C107.905 99.708 107.297 99.924 106.577 99.924C105.857 99.924 105.241 99.708 104.729 99.276C104.233 98.844 103.985 98.276 103.985 97.572ZM104.321 101.46H108.809V112.5H104.321V101.46ZM115.196 109.02C115.196 109.228 115.244 109.404 115.34 109.548C115.452 109.676 115.588 109.78 115.748 109.86C115.924 109.924 116.108 109.956 116.3 109.956C116.604 109.956 116.892 109.892 117.164 109.764C117.452 109.62 117.684 109.404 117.86 109.116C118.052 108.812 118.148 108.42 118.148 107.94L118.532 109.38C118.532 110.084 118.356 110.692 118.004 111.204C117.652 111.7 117.172 112.084 116.564 112.356C115.956 112.612 115.268 112.74 114.5 112.74C113.78 112.74 113.116 112.612 112.508 112.356C111.9 112.1 111.412 111.716 111.044 111.204C110.676 110.676 110.492 110.036 110.492 109.284C110.492 108.228 110.86 107.404 111.596 106.812C112.348 106.204 113.428 105.9 114.836 105.9C115.412 105.9 115.964 105.948 116.492 106.044C117.036 106.14 117.516 106.276 117.932 106.452C118.364 106.612 118.7 106.82 118.94 107.076V108.972C118.668 108.732 118.3 108.54 117.836 108.396C117.388 108.252 116.924 108.18 116.444 108.18C116.14 108.18 115.892 108.212 115.7 108.276C115.524 108.34 115.396 108.436 115.316 108.564C115.236 108.676 115.196 108.828 115.196 109.02ZM112.772 105.348L111.356 102.324C112.124 102.02 112.988 101.74 113.948 101.484C114.924 101.228 115.94 101.1 116.996 101.1C118.036 101.1 118.98 101.244 119.828 101.532C120.676 101.82 121.348 102.244 121.844 102.804C122.34 103.348 122.588 104.02 122.588 104.82V112.5H118.148V105.972C118.148 105.764 118.116 105.572 118.052 105.396C117.988 105.22 117.884 105.068 117.74 104.94C117.596 104.796 117.404 104.692 117.164 104.628C116.924 104.548 116.636 104.508 116.3 104.508C115.852 104.508 115.38 104.564 114.884 104.676C114.388 104.772 113.948 104.892 113.564 105.036C113.18 105.164 112.916 105.268 112.772 105.348Z" fill="white"/>
<defs>
<clipPath id="clip0_1252_2052">
<rect width="37" height="49" fill="white" transform="translate(58.5 32.5)"/>
</clipPath>
</defs>
</svg>
