<svg width="154" height="154" viewBox="0 0 154 154" fill="none" xmlns="http://www.w3.org/2000/svg">
<rect width="154" height="154" rx="10" fill="#BDA8DD"/>
<g clip-path="url(#clip0_1252_2056)">
<path d="M75.8187 33.2437L54.8187 42.2437C53.5062 42.8062 52.775 44.2125 53.0656 45.6C53.3562 46.9875 54.575 48 56 48V48.75C56 49.9968 57.0031 51 58.25 51H95.75C96.9969 51 98 49.9968 98 48.75V48C99.425 48 100.653 46.9968 100.934 45.6C101.216 44.2031 100.484 42.7968 99.1813 42.2437L78.1813 33.2437C77.4219 32.925 76.5687 32.925 75.8187 33.2437ZM65 54H59V72.4031C58.9437 72.4312 58.8875 72.4687 58.8312 72.5062L54.3312 75.5062C53.2344 76.2375 52.7375 77.6062 53.1219 78.8718C53.5062 80.1375 54.6781 81 56 81H98C99.3219 81 100.484 80.1375 100.869 78.8718C101.253 77.6062 100.766 76.2375 99.6594 75.5062L95.1594 72.5062C95.1031 72.4687 95.0469 72.4406 94.9906 72.4031V54H89V72H85.25V54H79.25V72H74.75V54H68.75V72H65V54ZM77 39C77.7956 39 78.5587 39.316 79.1213 39.8786C79.6839 40.4412 80 41.2043 80 42C80 42.7956 79.6839 43.5587 79.1213 44.1213C78.5587 44.6839 77.7956 45 77 45C76.2044 45 75.4413 44.6839 74.8787 44.1213C74.3161 43.5587 74 42.7956 74 42C74 41.2043 74.3161 40.4412 74.8787 39.8786C75.4413 39.316 76.2044 39 77 39Z" fill="#F7F4FB"/>
</g>
<path d="M39.2474 105.136L38.3834 112H32.7434L35.8634 94.36L43.3034 103.432L50.7434 94.36L53.8634 112H48.2234L47.3594 105.136L43.3034 110.44L39.2474 105.136ZM60.7138 107.68C60.7138 108.176 60.7858 108.568 60.9297 108.856C61.0738 109.128 61.3858 109.264 61.8658 109.264C62.1538 109.264 62.3938 109.208 62.5858 109.096C62.7938 108.984 62.9538 108.816 63.0658 108.592C63.1778 108.352 63.2338 108.048 63.2338 107.68V100.96H67.9138V112H63.2338V110.392C62.9298 110.952 62.4978 111.408 61.9378 111.76C61.3938 112.096 60.6898 112.264 59.8258 112.264C58.3218 112.264 57.2738 111.912 56.6818 111.208C56.0898 110.488 55.7938 109.472 55.7938 108.16V100.96H60.7138V107.68ZM70.997 107.608C71.765 108.152 72.421 108.552 72.965 108.808C73.525 109.048 73.973 109.2 74.309 109.264C74.661 109.328 74.901 109.36 75.029 109.36C75.285 109.36 75.461 109.312 75.557 109.216C75.669 109.104 75.725 108.968 75.725 108.808C75.725 108.664 75.677 108.536 75.581 108.424C75.501 108.312 75.301 108.192 74.981 108.064C74.661 107.92 74.157 107.744 73.469 107.536C72.925 107.36 72.413 107.144 71.933 106.888C71.469 106.616 71.093 106.248 70.805 105.784C70.517 105.32 70.373 104.72 70.373 103.984C70.373 103.296 70.557 102.712 70.925 102.232C71.293 101.736 71.805 101.36 72.461 101.104C73.133 100.848 73.925 100.72 74.837 100.72C75.509 100.72 76.133 100.784 76.709 100.912C77.285 101.024 77.845 101.176 78.389 101.368C78.933 101.56 79.477 101.784 80.021 102.04L78.869 105.232C78.325 104.768 77.709 104.4 77.021 104.128C76.349 103.84 75.789 103.696 75.341 103.696C75.053 103.696 74.861 103.744 74.765 103.84C74.669 103.936 74.621 104.04 74.621 104.152C74.621 104.36 74.709 104.528 74.885 104.656C75.077 104.768 75.365 104.88 75.749 104.992C76.149 105.104 76.669 105.28 77.309 105.52C77.837 105.712 78.333 105.936 78.797 106.192C79.261 106.448 79.637 106.784 79.925 107.2C80.213 107.616 80.357 108.176 80.357 108.88C80.357 110.192 79.981 111.144 79.229 111.736C78.477 112.312 77.389 112.6 75.965 112.6C75.133 112.6 74.349 112.528 73.613 112.384C72.877 112.256 72.173 112.064 71.501 111.808C70.829 111.552 70.157 111.248 69.485 110.896L70.997 107.608ZM88.4758 112.24C87.0358 112.24 85.7958 112.008 84.7558 111.544C83.7318 111.08 82.9398 110.424 82.3798 109.576C81.8358 108.712 81.5638 107.68 81.5638 106.48C81.5638 105.264 81.8278 104.232 82.3558 103.384C82.8838 102.52 83.6438 101.864 84.6358 101.416C85.6278 100.952 86.8278 100.72 88.2358 100.72C89.6278 100.72 90.7958 100.936 91.7398 101.368C92.6998 101.784 93.4198 102.408 93.8998 103.24C94.3958 104.056 94.6438 105.064 94.6438 106.264C94.6438 106.472 94.6438 106.68 94.6438 106.888C94.6438 107.08 94.6278 107.264 94.5958 107.44H84.1078V105.184H90.2518L89.3398 106.288C89.4358 106.144 89.5158 105.992 89.5798 105.832C89.6438 105.672 89.6758 105.536 89.6758 105.424C89.6758 105.04 89.6118 104.712 89.4838 104.44C89.3558 104.168 89.1718 103.96 88.9318 103.816C88.7078 103.672 88.4358 103.6 88.1158 103.6C87.6838 103.6 87.3318 103.704 87.0598 103.912C86.7878 104.104 86.5878 104.416 86.4598 104.848C86.3318 105.264 86.2678 105.808 86.2678 106.48C86.2518 107.04 86.3158 107.52 86.4598 107.92C86.6198 108.304 86.8438 108.6 87.1318 108.808C87.4358 109.016 87.8038 109.12 88.2358 109.12C88.8118 109.12 89.2918 109.032 89.6758 108.856C90.0598 108.664 90.3478 108.392 90.5398 108.04L94.8118 108.712C94.2198 109.896 93.3958 110.784 92.3398 111.376C91.2998 111.952 90.0118 112.24 88.4758 112.24ZM96.1888 106.48C96.1888 105.28 96.4768 104.248 97.0527 103.384C97.6288 102.52 98.4208 101.856 99.4288 101.392C100.437 100.928 101.581 100.696 102.861 100.696C104.141 100.696 105.285 100.928 106.293 101.392C107.301 101.856 108.093 102.52 108.669 103.384C109.245 104.248 109.533 105.28 109.533 106.48C109.533 107.664 109.245 108.688 108.669 109.552C108.093 110.416 107.301 111.08 106.293 111.544C105.285 112.008 104.141 112.24 102.861 112.24C101.581 112.24 100.437 112.008 99.4288 111.544C98.4208 111.08 97.6288 110.416 97.0527 109.552C96.4768 108.688 96.1888 107.664 96.1888 106.48ZM101.013 106.48C101.013 106.928 101.101 107.304 101.277 107.608C101.453 107.912 101.677 108.144 101.949 108.304C102.237 108.448 102.541 108.52 102.861 108.52C103.181 108.52 103.477 108.448 103.749 108.304C104.037 108.144 104.269 107.912 104.445 107.608C104.621 107.304 104.709 106.928 104.709 106.48C104.709 106.032 104.621 105.656 104.445 105.352C104.269 105.048 104.037 104.816 103.749 104.656C103.477 104.496 103.181 104.416 102.861 104.416C102.541 104.416 102.237 104.496 101.949 104.656C101.677 104.816 101.453 105.048 101.277 105.352C101.101 105.656 101.013 106.032 101.013 106.48ZM112.13 107.608C112.898 108.152 113.554 108.552 114.098 108.808C114.658 109.048 115.106 109.2 115.442 109.264C115.794 109.328 116.034 109.36 116.162 109.36C116.418 109.36 116.594 109.312 116.69 109.216C116.802 109.104 116.858 108.968 116.858 108.808C116.858 108.664 116.81 108.536 116.714 108.424C116.634 108.312 116.434 108.192 116.114 108.064C115.794 107.92 115.29 107.744 114.602 107.536C114.058 107.36 113.546 107.144 113.066 106.888C112.602 106.616 112.226 106.248 111.938 105.784C111.65 105.32 111.506 104.72 111.506 103.984C111.506 103.296 111.69 102.712 112.058 102.232C112.426 101.736 112.938 101.36 113.594 101.104C114.266 100.848 115.058 100.72 115.97 100.72C116.642 100.72 117.266 100.784 117.842 100.912C118.418 101.024 118.978 101.176 119.522 101.368C120.066 101.56 120.61 101.784 121.154 102.04L120.002 105.232C119.458 104.768 118.842 104.4 118.154 104.128C117.482 103.84 116.922 103.696 116.474 103.696C116.186 103.696 115.994 103.744 115.898 103.84C115.802 103.936 115.754 104.04 115.754 104.152C115.754 104.36 115.842 104.528 116.018 104.656C116.21 104.768 116.498 104.88 116.882 104.992C117.282 105.104 117.802 105.28 118.442 105.52C118.97 105.712 119.466 105.936 119.93 106.192C120.394 106.448 120.77 106.784 121.058 107.2C121.346 107.616 121.49 108.176 121.49 108.88C121.49 110.192 121.114 111.144 120.362 111.736C119.61 112.312 118.522 112.6 117.098 112.6C116.266 112.6 115.482 112.528 114.746 112.384C114.01 112.256 113.306 112.064 112.634 111.808C111.962 111.552 111.29 111.248 110.618 110.896L112.13 107.608Z" fill="white"/>
<defs>
<clipPath id="clip0_1252_2056">
<rect width="48" height="48" fill="white" transform="translate(53 33)"/>
</clipPath>
</defs>
</svg>
