<svg width="154" height="154" viewBox="0 0 154 154" fill="none" xmlns="http://www.w3.org/2000/svg">
<rect width="154" height="154" rx="10" fill="#BDA8DD"/>
<g clip-path="url(#clip0_1252_2074)">
<path d="M100.25 47.8125C102.305 47.8125 104.277 47.0059 105.73 45.57C107.183 44.1342 108 42.1868 108 40.1562C108 38.1257 107.183 36.1783 105.73 34.7425C104.277 33.3066 102.305 32.5 100.25 32.5C98.1946 32.5 96.2233 33.3066 94.7699 34.7425C93.3165 36.1783 92.5 38.1257 92.5 40.1562C92.5 42.1868 93.3165 44.1342 94.7699 45.57C96.2233 47.0059 98.1946 47.8125 100.25 47.8125ZM51.4153 81.5H82.9191H90.1847H102.081C105.355 81.5 108 78.8777 108 75.6525C108 74.5807 107.7 73.5279 107.138 72.6092L94.3503 51.9086C93.9531 51.2674 93.2556 50.875 92.5 50.875C91.7444 50.875 91.0469 51.2674 90.6497 51.899L85.9803 59.4596L73.7837 40.252C73.1444 39.2375 72.0109 38.625 70.8 38.625C69.5891 38.625 68.4653 39.2375 67.8162 40.252L46.8331 73.3078C46.2906 74.1596 46 75.1453 46 76.1502C46 79.1074 48.4219 81.5 51.4153 81.5Z" fill="#F7F4FB"/>
</g>
<path d="M24.7953 95.7H29.8353V113.34L18.9153 104.892V112.5H13.8753V94.86L24.7953 103.308V95.7ZM36.6918 109.02C36.6918 109.228 36.7398 109.404 36.8358 109.548C36.9478 109.676 37.0838 109.78 37.2438 109.86C37.4198 109.924 37.6038 109.956 37.7958 109.956C38.0998 109.956 38.3878 109.892 38.6598 109.764C38.9478 109.62 39.1798 109.404 39.3558 109.116C39.5478 108.812 39.6438 108.42 39.6438 107.94L40.0278 109.38C40.0278 110.084 39.8518 110.692 39.4998 111.204C39.1478 111.7 38.6678 112.084 38.0598 112.356C37.4518 112.612 36.7638 112.74 35.9958 112.74C35.2758 112.74 34.6118 112.612 34.0038 112.356C33.3958 112.1 32.9078 111.716 32.5398 111.204C32.1718 110.676 31.9878 110.036 31.9878 109.284C31.9878 108.228 32.3558 107.404 33.0918 106.812C33.8438 106.204 34.9238 105.9 36.3318 105.9C36.9078 105.9 37.4598 105.948 37.9878 106.044C38.5318 106.14 39.0118 106.276 39.4278 106.452C39.8598 106.612 40.1958 106.82 40.4358 107.076V108.972C40.1638 108.732 39.7958 108.54 39.3318 108.396C38.8838 108.252 38.4198 108.18 37.9398 108.18C37.6358 108.18 37.3878 108.212 37.1958 108.276C37.0198 108.34 36.8918 108.436 36.8118 108.564C36.7318 108.676 36.6918 108.828 36.6918 109.02ZM34.2678 105.348L32.8518 102.324C33.6198 102.02 34.4838 101.74 35.4438 101.484C36.4198 101.228 37.4358 101.1 38.4918 101.1C39.5318 101.1 40.4758 101.244 41.3238 101.532C42.1718 101.82 42.8438 102.244 43.3398 102.804C43.8358 103.348 44.0838 104.02 44.0838 104.82V112.5H39.6438V105.972C39.6438 105.764 39.6118 105.572 39.5478 105.396C39.4838 105.22 39.3798 105.068 39.2358 104.94C39.0918 104.796 38.8998 104.692 38.6598 104.628C38.4198 104.548 38.1318 104.508 37.7958 104.508C37.3478 104.508 36.8758 104.564 36.3798 104.676C35.8838 104.772 35.4438 104.892 35.0598 105.036C34.6758 105.164 34.4118 105.268 34.2678 105.348ZM45.4091 101.46H53.9291V105.18H45.4091V101.46ZM47.4491 97.62H51.8891V112.5H47.4491V97.62ZM60.1747 108.18C60.1747 108.676 60.2467 109.068 60.3907 109.356C60.5347 109.628 60.8467 109.764 61.3267 109.764C61.6147 109.764 61.8547 109.708 62.0467 109.596C62.2547 109.484 62.4147 109.316 62.5267 109.092C62.6387 108.852 62.6947 108.548 62.6947 108.18V101.46H67.3747V112.5H62.6947V110.892C62.3907 111.452 61.9587 111.908 61.3987 112.26C60.8547 112.596 60.1507 112.764 59.2867 112.764C57.7827 112.764 56.7347 112.412 56.1427 111.708C55.5507 110.988 55.2547 109.972 55.2547 108.66V101.46H60.1747V108.18ZM74.3459 101.46V112.5H69.7859V101.46H74.3459ZM77.4419 106.212C77.2979 106.02 77.1139 105.86 76.8899 105.732C76.6659 105.604 76.3939 105.54 76.0739 105.54C75.8019 105.54 75.5299 105.62 75.2579 105.78C74.9859 105.94 74.7619 106.188 74.5859 106.524C74.4259 106.86 74.3459 107.292 74.3459 107.82L73.4819 105.78C73.4819 104.9 73.6659 104.116 74.0339 103.428C74.4019 102.74 74.8819 102.196 75.4739 101.796C76.0819 101.38 76.7219 101.172 77.3939 101.172C77.7939 101.172 78.1779 101.276 78.5459 101.484C78.9299 101.676 79.1939 101.908 79.3379 102.18L77.4419 106.212ZM84.6449 109.02C84.6449 109.228 84.6929 109.404 84.7889 109.548C84.9009 109.676 85.0369 109.78 85.1969 109.86C85.3729 109.924 85.5569 109.956 85.7489 109.956C86.0529 109.956 86.3409 109.892 86.6129 109.764C86.9009 109.62 87.1329 109.404 87.3089 109.116C87.5009 108.812 87.5969 108.42 87.5969 107.94L87.9809 109.38C87.9809 110.084 87.8049 110.692 87.4529 111.204C87.1009 111.7 86.6209 112.084 86.0129 112.356C85.4049 112.612 84.7169 112.74 83.9489 112.74C83.2289 112.74 82.5649 112.612 81.9569 112.356C81.3489 112.1 80.8609 111.716 80.4929 111.204C80.1249 110.676 79.9409 110.036 79.9409 109.284C79.9409 108.228 80.3089 107.404 81.0449 106.812C81.7969 106.204 82.8769 105.9 84.2849 105.9C84.8609 105.9 85.4129 105.948 85.9409 106.044C86.4849 106.14 86.9649 106.276 87.3809 106.452C87.8129 106.612 88.1489 106.82 88.3889 107.076V108.972C88.1169 108.732 87.7489 108.54 87.2849 108.396C86.8369 108.252 86.3729 108.18 85.8929 108.18C85.5889 108.18 85.3409 108.212 85.1489 108.276C84.9729 108.34 84.8449 108.436 84.7649 108.564C84.6849 108.676 84.6449 108.828 84.6449 109.02ZM82.2209 105.348L80.8049 102.324C81.5729 102.02 82.4369 101.74 83.3969 101.484C84.3729 101.228 85.3889 101.1 86.4449 101.1C87.4849 101.1 88.4289 101.244 89.2769 101.532C90.1249 101.82 90.7969 102.244 91.2929 102.804C91.7889 103.348 92.0369 104.02 92.0369 104.82V112.5H87.5969V105.972C87.5969 105.764 87.5649 105.572 87.5009 105.396C87.4369 105.22 87.3329 105.068 87.1889 104.94C87.0449 104.796 86.8529 104.692 86.6129 104.628C86.3729 104.548 86.0849 104.508 85.7489 104.508C85.3009 104.508 84.8289 104.564 84.3329 104.676C83.8369 104.772 83.3969 104.892 83.0129 105.036C82.6289 105.164 82.3649 105.268 82.2209 105.348ZM94.4422 93.78H99.1222V112.5H94.4422V93.78ZM107.952 112.74C106.512 112.74 105.272 112.508 104.232 112.044C103.208 111.58 102.416 110.924 101.856 110.076C101.312 109.212 101.04 108.18 101.04 106.98C101.04 105.764 101.304 104.732 101.832 103.884C102.36 103.02 103.12 102.364 104.112 101.916C105.104 101.452 106.304 101.22 107.712 101.22C109.104 101.22 110.272 101.436 111.216 101.868C112.176 102.284 112.896 102.908 113.376 103.74C113.872 104.556 114.12 105.564 114.12 106.764C114.12 106.972 114.12 107.18 114.12 107.388C114.12 107.58 114.104 107.764 114.072 107.94H103.584V105.684H109.728L108.816 106.788C108.912 106.644 108.992 106.492 109.056 106.332C109.12 106.172 109.152 106.036 109.152 105.924C109.152 105.54 109.088 105.212 108.96 104.94C108.832 104.668 108.648 104.46 108.408 104.316C108.184 104.172 107.912 104.1 107.592 104.1C107.16 104.1 106.808 104.204 106.536 104.412C106.264 104.604 106.064 104.916 105.936 105.348C105.808 105.764 105.744 106.308 105.744 106.98C105.728 107.54 105.792 108.02 105.936 108.42C106.096 108.804 106.32 109.1 106.608 109.308C106.912 109.516 107.28 109.62 107.712 109.62C108.288 109.62 108.768 109.532 109.152 109.356C109.536 109.164 109.824 108.892 110.016 108.54L114.288 109.212C113.696 110.396 112.872 111.284 111.816 111.876C110.776 112.452 109.488 112.74 107.952 112.74ZM120.114 105.66H116.154V101.46H127.674L122.97 108.3H126.714V112.5H114.954L120.114 105.66ZM133.207 109.02C133.207 109.228 133.255 109.404 133.351 109.548C133.463 109.676 133.599 109.78 133.759 109.86C133.935 109.924 134.119 109.956 134.311 109.956C134.615 109.956 134.903 109.892 135.175 109.764C135.463 109.62 135.695 109.404 135.871 109.116C136.063 108.812 136.159 108.42 136.159 107.94L136.543 109.38C136.543 110.084 136.367 110.692 136.015 111.204C135.663 111.7 135.183 112.084 134.575 112.356C133.967 112.612 133.279 112.74 132.511 112.74C131.791 112.74 131.127 112.612 130.519 112.356C129.911 112.1 129.423 111.716 129.055 111.204C128.687 110.676 128.503 110.036 128.503 109.284C128.503 108.228 128.871 107.404 129.607 106.812C130.359 106.204 131.439 105.9 132.847 105.9C133.423 105.9 133.975 105.948 134.503 106.044C135.047 106.14 135.527 106.276 135.943 106.452C136.375 106.612 136.711 106.82 136.951 107.076V108.972C136.679 108.732 136.311 108.54 135.847 108.396C135.399 108.252 134.935 108.18 134.455 108.18C134.151 108.18 133.903 108.212 133.711 108.276C133.535 108.34 133.407 108.436 133.327 108.564C133.247 108.676 133.207 108.828 133.207 109.02ZM130.783 105.348L129.367 102.324C130.135 102.02 130.999 101.74 131.959 101.484C132.935 101.228 133.951 101.1 135.007 101.1C136.047 101.1 136.991 101.244 137.839 101.532C138.687 101.82 139.359 102.244 139.855 102.804C140.351 103.348 140.599 104.02 140.599 104.82V112.5H136.159V105.972C136.159 105.764 136.127 105.572 136.063 105.396C135.999 105.22 135.895 105.068 135.751 104.94C135.607 104.796 135.415 104.692 135.175 104.628C134.935 104.548 134.647 104.508 134.311 104.508C133.863 104.508 133.391 104.564 132.895 104.676C132.399 104.772 131.959 104.892 131.575 105.036C131.191 105.164 130.927 105.268 130.783 105.348Z" fill="white"/>
<defs>
<clipPath id="clip0_1252_2074">
<rect width="62" height="49" fill="white" transform="translate(46 32.5)"/>
</clipPath>
</defs>
</svg>
