<svg width="154" height="154" viewBox="0 0 154 154" fill="none" xmlns="http://www.w3.org/2000/svg">
<rect width="154" height="154" rx="10" fill="#BDA8DD"/>
<g clip-path="url(#clip0_1252_2070)">
<path d="M61.8448 34.6215C62.527 33.2809 64.0849 32.6622 65.477 33.1778L77.0004 37.4528L88.5238 33.1778C89.9159 32.6622 91.4738 33.2809 92.156 34.6215L99.4204 48.9559C102.075 54.1872 100.37 60.4215 95.8712 63.6372L98.7659 71.7184L102.546 70.3122C104.076 69.7497 105.772 70.5465 106.325 72.1028C106.878 73.659 106.095 75.384 104.564 75.9465L98.0099 78.3747L91.4554 80.8122C89.9251 81.384 88.2288 80.5778 87.6757 79.0215C87.1226 77.4653 87.9062 75.7403 89.4365 75.1778L93.2162 73.7715L90.3307 65.6903C84.8548 66.1778 79.6185 62.5028 78.3463 56.7653L77.0004 50.6997L75.6545 56.7653C74.3823 62.5122 69.146 66.1778 63.6701 65.6903L60.7846 73.7715L64.5643 75.1778C66.0946 75.7403 66.8874 77.4653 66.3251 79.0215C65.7627 80.5778 64.0757 81.384 62.5454 80.8122L56.0001 78.384L49.4455 75.9559C47.9152 75.384 47.1224 73.6684 47.6848 72.1122C48.2471 70.5559 49.9341 69.7497 51.4645 70.3215L55.2441 71.7278L58.1296 63.6465C53.6309 60.4215 51.9346 54.1872 54.5896 48.9559L61.8448 34.6215ZM65.901 39.7215L63.3935 44.6715L71.6166 47.7184L72.8243 42.2903L65.901 39.7215ZM88.109 39.7215L81.1857 42.2903L82.3934 47.7184L90.6165 44.6715L88.109 39.7215Z" fill="#F7F4FB"/>
</g>
<path d="M43.3219 103.96V101.8H46.0339C46.4339 101.8 46.7619 101.744 47.0179 101.632C47.2739 101.52 47.4659 101.36 47.5939 101.152C47.7219 100.944 47.7859 100.696 47.7859 100.408C47.7859 99.976 47.6419 99.664 47.3539 99.472C47.0819 99.264 46.6419 99.16 46.0339 99.16H44.7139V108.04H46.5139C46.9139 108.04 47.2819 108.008 47.6179 107.944C47.9539 107.88 48.2259 107.744 48.4339 107.536C48.6419 107.328 48.7459 107 48.7459 106.552C48.7459 106.28 48.6819 106.064 48.5539 105.904C48.4419 105.728 48.2819 105.6 48.0739 105.52C47.8659 105.424 47.6259 105.36 47.3539 105.328C47.0979 105.296 46.8179 105.28 46.5139 105.28H43.3219V102.4H47.2339C48.0499 102.4 48.8659 102.496 49.6819 102.688C50.5139 102.864 51.2739 103.152 51.9619 103.552C52.6499 103.952 53.2019 104.472 53.6179 105.112C54.0499 105.736 54.2659 106.496 54.2659 107.392C54.2659 108.512 53.9859 109.408 53.4259 110.08C52.8819 110.752 52.0819 111.24 51.0259 111.544C49.9859 111.848 48.7219 112 47.2339 112H39.4339V95.2H46.7539C48.0019 95.2 49.1139 95.36 50.0899 95.68C51.0819 96 51.8659 96.48 52.4419 97.12C53.0179 97.76 53.3059 98.56 53.3059 99.52C53.3059 100.464 53.0179 101.272 52.4419 101.944C51.8659 102.6 51.0819 103.104 50.0899 103.456C49.1139 103.792 48.0019 103.96 46.7539 103.96H43.3219ZM60.3988 108.52C60.3988 108.728 60.4468 108.904 60.5428 109.048C60.6548 109.176 60.7908 109.28 60.9508 109.36C61.1268 109.424 61.3108 109.456 61.5028 109.456C61.8068 109.456 62.0948 109.392 62.3668 109.264C62.6548 109.12 62.8868 108.904 63.0628 108.616C63.2548 108.312 63.3508 107.92 63.3508 107.44L63.7348 108.88C63.7348 109.584 63.5588 110.192 63.2068 110.704C62.8548 111.2 62.3748 111.584 61.7668 111.856C61.1588 112.112 60.4708 112.24 59.7028 112.24C58.9828 112.24 58.3188 112.112 57.7108 111.856C57.1028 111.6 56.6148 111.216 56.2468 110.704C55.8788 110.176 55.6948 109.536 55.6948 108.784C55.6948 107.728 56.0628 106.904 56.7988 106.312C57.5508 105.704 58.6308 105.4 60.0388 105.4C60.6148 105.4 61.1668 105.448 61.6948 105.544C62.2388 105.64 62.7188 105.776 63.1348 105.952C63.5668 106.112 63.9028 106.32 64.1428 106.576V108.472C63.8708 108.232 63.5028 108.04 63.0388 107.896C62.5908 107.752 62.1268 107.68 61.6468 107.68C61.3428 107.68 61.0948 107.712 60.9028 107.776C60.7268 107.84 60.5988 107.936 60.5188 108.064C60.4388 108.176 60.3988 108.328 60.3988 108.52ZM57.9748 104.848L56.5588 101.824C57.3268 101.52 58.1908 101.24 59.1508 100.984C60.1268 100.728 61.1428 100.6 62.1988 100.6C63.2388 100.6 64.1828 100.744 65.0308 101.032C65.8788 101.32 66.5508 101.744 67.0468 102.304C67.5428 102.848 67.7908 103.52 67.7908 104.32V112H63.3508V105.472C63.3508 105.264 63.3188 105.072 63.2548 104.896C63.1908 104.72 63.0868 104.568 62.9428 104.44C62.7988 104.296 62.6068 104.192 62.3668 104.128C62.1268 104.048 61.8388 104.008 61.5028 104.008C61.0548 104.008 60.5828 104.064 60.0868 104.176C59.5908 104.272 59.1508 104.392 58.7668 104.536C58.3828 104.664 58.1188 104.768 57.9748 104.848ZM74.7561 100.96V112H70.1961V100.96H74.7561ZM77.8521 105.712C77.7081 105.52 77.5241 105.36 77.3001 105.232C77.0761 105.104 76.8041 105.04 76.4841 105.04C76.2121 105.04 75.9401 105.12 75.6681 105.28C75.3961 105.44 75.1721 105.688 74.9961 106.024C74.8361 106.36 74.7561 106.792 74.7561 107.32L73.8921 105.28C73.8921 104.4 74.0761 103.616 74.4441 102.928C74.8121 102.24 75.2921 101.696 75.8841 101.296C76.4921 100.88 77.1321 100.672 77.8041 100.672C78.2041 100.672 78.5881 100.776 78.9561 100.984C79.3401 101.176 79.6041 101.408 79.7481 101.68L77.8521 105.712ZM85.6311 100.96V112H81.0711V100.96H85.6311ZM88.7271 105.712C88.5831 105.52 88.3991 105.36 88.1751 105.232C87.9511 105.104 87.6791 105.04 87.3591 105.04C87.0871 105.04 86.8151 105.12 86.5431 105.28C86.2711 105.44 86.0471 105.688 85.8711 106.024C85.7111 106.36 85.6311 106.792 85.6311 107.32L84.7671 105.28C84.7671 104.4 84.9511 103.616 85.3191 102.928C85.6871 102.24 86.1671 101.696 86.7591 101.296C87.3671 100.88 88.0071 100.672 88.6791 100.672C89.0791 100.672 89.4631 100.776 89.8311 100.984C90.2151 101.176 90.4791 101.408 90.6231 101.68L88.7271 105.712ZM95.9301 108.52C95.9301 108.728 95.9781 108.904 96.0741 109.048C96.1861 109.176 96.3221 109.28 96.4821 109.36C96.6581 109.424 96.8421 109.456 97.0341 109.456C97.3381 109.456 97.6261 109.392 97.8981 109.264C98.1861 109.12 98.4181 108.904 98.5941 108.616C98.7861 108.312 98.8821 107.92 98.8821 107.44L99.2661 108.88C99.2661 109.584 99.0901 110.192 98.7381 110.704C98.3861 111.2 97.9061 111.584 97.2981 111.856C96.6901 112.112 96.0021 112.24 95.2341 112.24C94.5141 112.24 93.8501 112.112 93.2421 111.856C92.6341 111.6 92.1461 111.216 91.7781 110.704C91.4101 110.176 91.2261 109.536 91.2261 108.784C91.2261 107.728 91.5941 106.904 92.3301 106.312C93.0821 105.704 94.1621 105.4 95.5701 105.4C96.1461 105.4 96.6981 105.448 97.2261 105.544C97.7701 105.64 98.2501 105.776 98.6661 105.952C99.0981 106.112 99.4341 106.32 99.6741 106.576V108.472C99.4021 108.232 99.0341 108.04 98.5701 107.896C98.1221 107.752 97.6581 107.68 97.1781 107.68C96.8741 107.68 96.6261 107.712 96.4341 107.776C96.2581 107.84 96.1301 107.936 96.0501 108.064C95.9701 108.176 95.9301 108.328 95.9301 108.52ZM93.5061 104.848L92.0901 101.824C92.8581 101.52 93.7221 101.24 94.6821 100.984C95.6581 100.728 96.6741 100.6 97.7301 100.6C98.7701 100.6 99.7141 100.744 100.562 101.032C101.41 101.32 102.082 101.744 102.578 102.304C103.074 102.848 103.322 103.52 103.322 104.32V112H98.8821V105.472C98.8821 105.264 98.8501 105.072 98.7861 104.896C98.7221 104.72 98.6181 104.568 98.4741 104.44C98.3301 104.296 98.1381 104.192 97.8981 104.128C97.6581 104.048 97.3701 104.008 97.0341 104.008C96.5861 104.008 96.1141 104.064 95.6181 104.176C95.1221 104.272 94.6821 104.392 94.2981 104.536C93.9141 104.664 93.6501 104.768 93.5061 104.848ZM106.399 107.608C107.167 108.152 107.823 108.552 108.367 108.808C108.927 109.048 109.375 109.2 109.711 109.264C110.063 109.328 110.303 109.36 110.431 109.36C110.687 109.36 110.863 109.312 110.959 109.216C111.071 109.104 111.127 108.968 111.127 108.808C111.127 108.664 111.079 108.536 110.983 108.424C110.903 108.312 110.703 108.192 110.383 108.064C110.063 107.92 109.559 107.744 108.871 107.536C108.327 107.36 107.815 107.144 107.335 106.888C106.871 106.616 106.495 106.248 106.207 105.784C105.919 105.32 105.775 104.72 105.775 103.984C105.775 103.296 105.959 102.712 106.327 102.232C106.695 101.736 107.207 101.36 107.863 101.104C108.535 100.848 109.327 100.72 110.239 100.72C110.911 100.72 111.535 100.784 112.111 100.912C112.687 101.024 113.247 101.176 113.791 101.368C114.335 101.56 114.879 101.784 115.423 102.04L114.271 105.232C113.727 104.768 113.111 104.4 112.423 104.128C111.751 103.84 111.191 103.696 110.743 103.696C110.455 103.696 110.263 103.744 110.167 103.84C110.071 103.936 110.023 104.04 110.023 104.152C110.023 104.36 110.111 104.528 110.287 104.656C110.479 104.768 110.767 104.88 111.151 104.992C111.551 105.104 112.071 105.28 112.711 105.52C113.239 105.712 113.735 105.936 114.199 106.192C114.663 106.448 115.039 106.784 115.327 107.2C115.615 107.616 115.759 108.176 115.759 108.88C115.759 110.192 115.383 111.144 114.631 111.736C113.879 112.312 112.791 112.6 111.367 112.6C110.535 112.6 109.751 112.528 109.015 112.384C108.279 112.256 107.575 112.064 106.903 111.808C106.231 111.552 105.559 111.248 104.887 110.896L106.399 107.608Z" fill="white"/>
<defs>
<clipPath id="clip0_1252_2070">
<rect width="59" height="48" fill="white" transform="translate(47.5 33)"/>
</clipPath>
</defs>
</svg>
