<svg width="154" height="154" viewBox="0 0 154 154" fill="none" xmlns="http://www.w3.org/2000/svg">
<rect width="154" height="154" rx="10" fill="#BDA8DD"/>
<g clip-path="url(#clip0_1252_2060)">
<path d="M54.5 33H66.5C66.9969 33 67.4656 33.2531 67.7469 33.6656L75.35 45.0656C70.7094 45.45 66.5375 47.4656 63.3875 50.5312L53.2531 35.3344C52.9438 34.875 52.9156 34.2844 53.1781 33.7969C53.4406 33.3094 53.9469 33 54.5 33ZM100.747 35.3344L90.6125 50.5406C87.4719 47.475 83.2906 45.4594 78.65 45.075L86.2531 33.6656C86.5344 33.2437 87.0031 33 87.5 33H99.5C100.053 33 100.559 33.3 100.822 33.7969C101.084 34.2938 101.056 34.875 100.747 35.3344ZM93.5 64.5C93.5 73.6125 86.1125 81 77 81C67.8875 81 60.5 73.6125 60.5 64.5C60.5 55.3875 67.8875 48 77 48C86.1125 48 93.5 55.3875 93.5 64.5ZM77.7875 55.6031C77.4688 54.9469 76.5406 54.9469 76.2125 55.6031L74.1125 59.8594C73.9813 60.1219 73.7375 60.3 73.4563 60.3375L68.75 61.0219C68.0281 61.125 67.7469 62.0062 68.2625 62.5219L71.6656 65.8406C71.8719 66.0469 71.9656 66.3281 71.9188 66.6188L71.1125 71.2969C70.9906 72.0094 71.7406 72.5625 72.3875 72.225L76.5875 70.0125C76.8406 69.8812 77.15 69.8812 77.4031 70.0125L81.6031 72.225C82.25 72.5625 83 72.0187 82.8781 71.2969L82.0719 66.6188C82.025 66.3375 82.1188 66.0469 82.325 65.8406L85.7281 62.5219C86.2531 62.0156 85.9625 61.1344 85.2406 61.0219L80.5438 60.3375C80.2625 60.3 80.0094 60.1125 79.8875 59.8594L77.7875 55.6031Z" fill="#F7F4FB"/>
</g>
<path d="M24.0706 95.2H29.5666V112H24.0706V95.2ZM30.6706 112H27.7186V107.44H30.4306C30.8946 107.44 31.3666 107.4 31.8466 107.32C32.3266 107.24 32.7666 107.072 33.1666 106.816C33.5666 106.56 33.8866 106.176 34.1266 105.664C34.3826 105.152 34.5106 104.464 34.5106 103.6C34.5106 102.736 34.3826 102.048 34.1266 101.536C33.8866 101.024 33.5666 100.64 33.1666 100.384C32.7666 100.128 32.3266 99.96 31.8466 99.88C31.3666 99.8 30.8946 99.76 30.4306 99.76H27.7186V95.2H30.6706C32.6226 95.2 34.2946 95.536 35.6866 96.208C37.0946 96.88 38.1666 97.84 38.9026 99.088C39.6546 100.336 40.0306 101.84 40.0306 103.6C40.0306 105.344 39.6546 106.848 38.9026 108.112C38.1666 109.36 37.0946 110.32 35.6866 110.992C34.2946 111.664 32.6226 112 30.6706 112ZM48.3742 112.24C46.9342 112.24 45.6942 112.008 44.6542 111.544C43.6302 111.08 42.8382 110.424 42.2782 109.576C41.7342 108.712 41.4622 107.68 41.4622 106.48C41.4622 105.264 41.7262 104.232 42.2542 103.384C42.7822 102.52 43.5422 101.864 44.5342 101.416C45.5262 100.952 46.7262 100.72 48.1342 100.72C49.5262 100.72 50.6942 100.936 51.6382 101.368C52.5982 101.784 53.3182 102.408 53.7982 103.24C54.2942 104.056 54.5422 105.064 54.5422 106.264C54.5422 106.472 54.5422 106.68 54.5422 106.888C54.5422 107.08 54.5262 107.264 54.4942 107.44H44.0062V105.184H50.1502L49.2382 106.288C49.3342 106.144 49.4142 105.992 49.4782 105.832C49.5422 105.672 49.5742 105.536 49.5742 105.424C49.5742 105.04 49.5102 104.712 49.3822 104.44C49.2542 104.168 49.0702 103.96 48.8302 103.816C48.6062 103.672 48.3342 103.6 48.0142 103.6C47.5822 103.6 47.2302 103.704 46.9582 103.912C46.6862 104.104 46.4862 104.416 46.3582 104.848C46.2302 105.264 46.1662 105.808 46.1662 106.48C46.1502 107.04 46.2142 107.52 46.3582 107.92C46.5182 108.304 46.7422 108.6 47.0302 108.808C47.3342 109.016 47.7022 109.12 48.1342 109.12C48.7102 109.12 49.1902 109.032 49.5742 108.856C49.9582 108.664 50.2462 108.392 50.4382 108.04L54.7102 108.712C54.1182 109.896 53.2942 110.784 52.2382 111.376C51.1982 111.952 49.9102 112.24 48.3742 112.24ZM61.2472 117.28H56.5672V100.96H61.2472V117.28ZM70.1272 106.48C70.1272 107.824 69.8712 108.944 69.3592 109.84C68.8632 110.72 68.2232 111.384 67.4392 111.832C66.6712 112.264 65.8632 112.48 65.0152 112.48C64.0232 112.48 63.1752 112.232 62.4712 111.736C61.7832 111.224 61.2632 110.52 60.9112 109.624C60.5592 108.712 60.3832 107.664 60.3832 106.48C60.3832 105.28 60.5592 104.232 60.9112 103.336C61.2632 102.44 61.7832 101.744 62.4712 101.248C63.1752 100.736 64.0232 100.48 65.0152 100.48C65.8632 100.48 66.6712 100.704 67.4392 101.152C68.2232 101.584 68.8632 102.24 69.3592 103.12C69.8712 104 70.1272 105.12 70.1272 106.48ZM65.1832 106.48C65.1832 106.064 65.0952 105.72 64.9192 105.448C64.7432 105.16 64.5032 104.944 64.1992 104.8C63.9112 104.64 63.5832 104.56 63.2152 104.56C62.8952 104.56 62.5832 104.632 62.2792 104.776C61.9752 104.904 61.7272 105.112 61.5352 105.4C61.3432 105.672 61.2472 106.032 61.2472 106.48C61.2472 106.928 61.3432 107.296 61.5352 107.584C61.7272 107.856 61.9752 108.064 62.2792 108.208C62.5832 108.336 62.8952 108.4 63.2152 108.4C63.5832 108.4 63.9112 108.328 64.1992 108.184C64.5032 108.024 64.7432 107.8 64.9192 107.512C65.0952 107.224 65.1832 106.88 65.1832 106.48ZM71.5559 106.48C71.5559 105.28 71.8439 104.248 72.4199 103.384C72.9959 102.52 73.7879 101.856 74.7959 101.392C75.8039 100.928 76.9479 100.696 78.2279 100.696C79.5079 100.696 80.6519 100.928 81.6599 101.392C82.6679 101.856 83.4599 102.52 84.0359 103.384C84.6119 104.248 84.8999 105.28 84.8999 106.48C84.8999 107.664 84.6119 108.688 84.0359 109.552C83.4599 110.416 82.6679 111.08 81.6599 111.544C80.6519 112.008 79.5079 112.24 78.2279 112.24C76.9479 112.24 75.8039 112.008 74.7959 111.544C73.7879 111.08 72.9959 110.416 72.4199 109.552C71.8439 108.688 71.5559 107.664 71.5559 106.48ZM76.3799 106.48C76.3799 106.928 76.4679 107.304 76.6439 107.608C76.8199 107.912 77.0439 108.144 77.3159 108.304C77.6039 108.448 77.9079 108.52 78.2279 108.52C78.5479 108.52 78.8439 108.448 79.1159 108.304C79.4039 108.144 79.6359 107.912 79.8119 107.608C79.9879 107.304 80.0759 106.928 80.0759 106.48C80.0759 106.032 79.9879 105.656 79.8119 105.352C79.6359 105.048 79.4039 104.816 79.1159 104.656C78.8439 104.496 78.5479 104.416 78.2279 104.416C77.9079 104.416 77.6039 104.496 77.3159 104.656C77.0439 104.816 76.8199 105.048 76.6439 105.352C76.4679 105.656 76.3799 106.032 76.3799 106.48ZM91.385 100.96V112H86.825V100.96H91.385ZM94.481 105.712C94.337 105.52 94.153 105.36 93.929 105.232C93.705 105.104 93.433 105.04 93.113 105.04C92.841 105.04 92.569 105.12 92.297 105.28C92.025 105.44 91.801 105.688 91.625 106.024C91.465 106.36 91.385 106.792 91.385 107.32L90.521 105.28C90.521 104.4 90.705 103.616 91.073 102.928C91.441 102.24 91.921 101.696 92.513 101.296C93.121 100.88 93.761 100.672 94.433 100.672C94.833 100.672 95.217 100.776 95.585 100.984C95.969 101.176 96.233 101.408 96.377 101.68L94.481 105.712ZM96.62 100.96H105.14V104.68H96.62V100.96ZM98.66 97.12H103.1V112H98.66V97.12ZM112.898 112.24C111.458 112.24 110.218 112.008 109.178 111.544C108.154 111.08 107.362 110.424 106.802 109.576C106.258 108.712 105.986 107.68 105.986 106.48C105.986 105.264 106.25 104.232 106.778 103.384C107.306 102.52 108.066 101.864 109.058 101.416C110.05 100.952 111.25 100.72 112.658 100.72C114.05 100.72 115.218 100.936 116.162 101.368C117.122 101.784 117.842 102.408 118.322 103.24C118.818 104.056 119.066 105.064 119.066 106.264C119.066 106.472 119.066 106.68 119.066 106.888C119.066 107.08 119.05 107.264 119.018 107.44H108.53V105.184H114.674L113.762 106.288C113.858 106.144 113.938 105.992 114.002 105.832C114.066 105.672 114.098 105.536 114.098 105.424C114.098 105.04 114.034 104.712 113.906 104.44C113.778 104.168 113.594 103.96 113.354 103.816C113.13 103.672 112.858 103.6 112.538 103.6C112.106 103.6 111.754 103.704 111.482 103.912C111.21 104.104 111.01 104.416 110.882 104.848C110.754 105.264 110.69 105.808 110.69 106.48C110.674 107.04 110.738 107.52 110.882 107.92C111.042 108.304 111.266 108.6 111.554 108.808C111.858 109.016 112.226 109.12 112.658 109.12C113.234 109.12 113.714 109.032 114.098 108.856C114.482 108.664 114.77 108.392 114.962 108.04L119.234 108.712C118.642 109.896 117.818 110.784 116.762 111.376C115.722 111.952 114.434 112.24 112.898 112.24ZM121.763 107.608C122.531 108.152 123.187 108.552 123.731 108.808C124.291 109.048 124.739 109.2 125.075 109.264C125.427 109.328 125.667 109.36 125.795 109.36C126.051 109.36 126.227 109.312 126.323 109.216C126.435 109.104 126.491 108.968 126.491 108.808C126.491 108.664 126.443 108.536 126.347 108.424C126.267 108.312 126.067 108.192 125.747 108.064C125.427 107.92 124.923 107.744 124.235 107.536C123.691 107.36 123.179 107.144 122.699 106.888C122.235 106.616 121.859 106.248 121.571 105.784C121.283 105.32 121.139 104.72 121.139 103.984C121.139 103.296 121.323 102.712 121.691 102.232C122.059 101.736 122.571 101.36 123.227 101.104C123.899 100.848 124.691 100.72 125.603 100.72C126.275 100.72 126.899 100.784 127.475 100.912C128.051 101.024 128.611 101.176 129.155 101.368C129.699 101.56 130.243 101.784 130.787 102.04L129.635 105.232C129.091 104.768 128.475 104.4 127.787 104.128C127.115 103.84 126.555 103.696 126.107 103.696C125.819 103.696 125.627 103.744 125.531 103.84C125.435 103.936 125.387 104.04 125.387 104.152C125.387 104.36 125.475 104.528 125.651 104.656C125.843 104.768 126.131 104.88 126.515 104.992C126.915 105.104 127.435 105.28 128.075 105.52C128.603 105.712 129.099 105.936 129.563 106.192C130.027 106.448 130.403 106.784 130.691 107.2C130.979 107.616 131.123 108.176 131.123 108.88C131.123 110.192 130.747 111.144 129.995 111.736C129.243 112.312 128.155 112.6 126.731 112.6C125.899 112.6 125.115 112.528 124.379 112.384C123.643 112.256 122.939 112.064 122.267 111.808C121.595 111.552 120.923 111.248 120.251 110.896L121.763 107.608Z" fill="white"/>
<defs>
<clipPath id="clip0_1252_2060">
<rect width="48" height="48" fill="white" transform="translate(53 33)"/>
</clipPath>
</defs>
</svg>
