<svg width="154" height="154" viewBox="0 0 154 154" fill="none" xmlns="http://www.w3.org/2000/svg">
<rect width="154" height="154" rx="10" fill="#BDA8DD"/>
<path d="M70.3567 32.5298C71.1576 31.8169 72.4 31.8267 73.2009 32.5395C76.0348 35.0687 78.6942 37.7932 81.179 40.7423C82.3085 39.3361 83.592 37.803 84.9781 36.553C85.7893 35.8304 87.042 35.8304 87.8531 36.5628C91.4058 39.7853 94.4143 44.0429 96.5295 48.0857C98.6138 52.0698 100 56.1419 100 59.0129C100 71.4732 89.7527 82 77 82C64.1036 82 54 71.4634 54 59.0031C54 55.2533 55.8277 50.6734 58.6616 46.1424C61.5263 41.543 65.5719 36.7483 70.3567 32.5298ZM77.1746 72.6255C79.7723 72.6255 82.0723 71.9419 84.2388 70.5748C88.5616 67.7038 89.7219 61.9619 87.1241 57.4504C86.6621 56.5716 85.4813 56.513 84.8138 57.2551L82.2263 60.1163C81.5487 60.8585 80.3268 60.8389 79.6902 60.0675C77.996 58.0168 74.967 54.3549 73.242 52.2749C72.5951 51.4937 71.3629 51.4839 70.7058 52.2651C67.2353 56.4153 65.4897 59.0324 65.4897 61.9717C65.5 68.6608 70.6955 72.6255 77.1746 72.6255Z" fill="#F7F4FB"/>
<path d="M50.61 104.6C50.61 105.464 50.802 106.192 51.186 106.784C51.586 107.36 52.106 107.792 52.746 108.08C53.402 108.368 54.122 108.512 54.906 108.512C55.706 108.512 56.394 108.408 56.97 108.2C57.546 107.992 58.05 107.736 58.482 107.432C58.93 107.112 59.33 106.784 59.682 106.448V111.872C59.026 112.32 58.306 112.696 57.522 113C56.754 113.32 55.754 113.48 54.522 113.48C53.066 113.48 51.738 113.272 50.538 112.856C49.338 112.44 48.314 111.84 47.466 111.056C46.618 110.272 45.962 109.336 45.498 108.248C45.034 107.16 44.802 105.944 44.802 104.6C44.802 103.256 45.034 102.04 45.498 100.952C45.962 99.864 46.618 98.928 47.466 98.144C48.314 97.36 49.338 96.76 50.538 96.344C51.738 95.928 53.066 95.72 54.522 95.72C55.754 95.72 56.754 95.872 57.522 96.176C58.306 96.48 59.026 96.864 59.682 97.328V102.752C59.33 102.416 58.93 102.088 58.482 101.768C58.05 101.448 57.546 101.192 56.97 101C56.394 100.792 55.706 100.688 54.906 100.688C54.122 100.688 53.402 100.832 52.746 101.12C52.106 101.408 51.586 101.848 51.186 102.44C50.802 103.016 50.61 103.736 50.61 104.6ZM62.3211 94.28H67.0011V113H62.3211V94.28ZM74.3192 108.68C74.3192 109.176 74.3912 109.568 74.5352 109.856C74.6792 110.128 74.9912 110.264 75.4712 110.264C75.7592 110.264 75.9992 110.208 76.1912 110.096C76.3992 109.984 76.5592 109.816 76.6712 109.592C76.7832 109.352 76.8392 109.048 76.8392 108.68V101.96H81.5192V113H76.8392V111.392C76.5352 111.952 76.1032 112.408 75.5432 112.76C74.9992 113.096 74.2952 113.264 73.4312 113.264C71.9272 113.264 70.8792 112.912 70.2872 112.208C69.6952 111.488 69.3992 110.472 69.3992 109.16V101.96H74.3192V108.68ZM88.6105 94.28V113H83.9305V94.28H88.6105ZM97.4905 107.48C97.4905 108.744 97.2345 109.808 96.7225 110.672C96.2265 111.52 95.5865 112.16 94.8025 112.592C94.0345 113.024 93.2265 113.24 92.3785 113.24C91.4665 113.24 90.6425 113.008 89.9065 112.544C89.1705 112.08 88.5865 111.416 88.1545 110.552C87.7225 109.688 87.5065 108.664 87.5065 107.48C87.5065 106.28 87.7225 105.256 88.1545 104.408C88.5865 103.544 89.1705 102.88 89.9065 102.416C90.6425 101.952 91.4665 101.72 92.3785 101.72C93.2265 101.72 94.0345 101.936 94.8025 102.368C95.5865 102.8 96.2265 103.44 96.7225 104.288C97.2345 105.136 97.4905 106.2 97.4905 107.48ZM92.5465 107.48C92.5465 107.064 92.4585 106.696 92.2825 106.376C92.1065 106.056 91.8665 105.8 91.5625 105.608C91.2745 105.416 90.9465 105.32 90.5785 105.32C90.2585 105.32 89.9465 105.408 89.6425 105.584C89.3385 105.76 89.0905 106.008 88.8985 106.328C88.7065 106.648 88.6105 107.032 88.6105 107.48C88.6105 107.928 88.7065 108.312 88.8985 108.632C89.0905 108.952 89.3385 109.2 89.6425 109.376C89.9465 109.552 90.2585 109.64 90.5785 109.64C90.9465 109.64 91.2745 109.544 91.5625 109.352C91.8665 109.16 92.1065 108.904 92.2825 108.584C92.4585 108.248 92.5465 107.88 92.5465 107.48ZM100.071 108.608C100.839 109.152 101.495 109.552 102.039 109.808C102.599 110.048 103.047 110.2 103.383 110.264C103.735 110.328 103.975 110.36 104.103 110.36C104.359 110.36 104.535 110.312 104.631 110.216C104.743 110.104 104.799 109.968 104.799 109.808C104.799 109.664 104.751 109.536 104.655 109.424C104.575 109.312 104.375 109.192 104.055 109.064C103.735 108.92 103.231 108.744 102.543 108.536C101.999 108.36 101.487 108.144 101.007 107.888C100.543 107.616 100.167 107.248 99.8792 106.784C99.5912 106.32 99.4472 105.72 99.4472 104.984C99.4472 104.296 99.6312 103.712 99.9992 103.232C100.367 102.736 100.879 102.36 101.535 102.104C102.207 101.848 102.999 101.72 103.911 101.72C104.583 101.72 105.207 101.784 105.783 101.912C106.359 102.024 106.919 102.176 107.463 102.368C108.007 102.56 108.551 102.784 109.095 103.04L107.943 106.232C107.399 105.768 106.783 105.4 106.095 105.128C105.423 104.84 104.863 104.696 104.415 104.696C104.127 104.696 103.935 104.744 103.839 104.84C103.743 104.936 103.695 105.04 103.695 105.152C103.695 105.36 103.783 105.528 103.959 105.656C104.151 105.768 104.439 105.88 104.823 105.992C105.223 106.104 105.743 106.28 106.383 106.52C106.911 106.712 107.407 106.936 107.871 107.192C108.335 107.448 108.711 107.784 108.999 108.2C109.287 108.616 109.431 109.176 109.431 109.88C109.431 111.192 109.055 112.144 108.303 112.736C107.551 113.312 106.463 113.6 105.039 113.6C104.207 113.6 103.423 113.528 102.687 113.384C101.951 113.256 101.247 113.064 100.575 112.808C99.9032 112.552 99.2312 112.248 98.5592 111.896L100.071 108.608Z" fill="white"/>
</svg>
