<svg width="154" height="154" viewBox="0 0 154 154" fill="none" xmlns="http://www.w3.org/2000/svg">
<rect width="154" height="154" rx="10" fill="#BDA8DD"/>
<g clip-path="url(#clip0_1250_1662)">
<path d="M58.5 35.5625C58.5 33.8686 59.8779 32.5 61.5833 32.5H64.6667H89.3333H92.4167C94.1221 32.5 95.5 33.8686 95.5 35.5625C95.5 37.2564 94.1221 38.625 92.4167 38.625V39.6777C92.4167 43.7355 90.7883 47.6307 87.8977 50.5018L81.3648 57L87.9073 63.4982C90.7979 66.3693 92.4263 70.2645 92.4263 74.3223V75.375C94.1318 75.375 95.5096 76.7436 95.5096 78.4375C95.5096 80.1314 94.1318 81.5 92.4263 81.5H89.3333H64.6667H61.5833C59.8779 81.5 58.5 80.1314 58.5 78.4375C58.5 76.7436 59.8779 75.375 61.5833 75.375V74.3223C61.5833 70.2645 63.2117 66.3693 66.1023 63.4982L72.6352 57L66.1023 50.5018C63.2117 47.6307 61.5833 43.7355 61.5833 39.6777V38.625C59.8779 38.625 58.5 37.2564 58.5 35.5625ZM67.75 38.625V39.6777C67.75 42.1182 68.7232 44.4533 70.4576 46.176L77 52.6646L83.5424 46.1664C85.2768 44.4438 86.25 42.1086 86.25 39.6682V38.625H67.75ZM67.75 75.375H86.25V74.3223C86.25 71.8818 85.2768 69.5467 83.5424 67.824L77 61.3354L70.4576 67.8336C68.7232 69.5563 67.75 71.8914 67.75 74.3318V75.3846V75.375Z" fill="#F7F4FB"/>
</g>
<path d="M36.1322 106.14V101.46H49.5722V106.14H36.1322ZM46.2842 95.7H51.5642V112.5H46.2842V95.7ZM35.0042 95.7H40.2842V112.5H35.0042V95.7ZM54.0861 97.572C54.0861 96.868 54.3341 96.3 54.8301 95.868C55.3421 95.436 55.9581 95.22 56.6781 95.22C57.3981 95.22 58.0061 95.436 58.5021 95.868C59.0141 96.3 59.2701 96.868 59.2701 97.572C59.2701 98.276 59.0141 98.844 58.5021 99.276C58.0061 99.708 57.3981 99.924 56.6781 99.924C55.9581 99.924 55.3421 99.708 54.8301 99.276C54.3341 98.844 54.0861 98.276 54.0861 97.572ZM54.4221 101.46H58.9101V112.5H54.4221V101.46ZM61.9853 108.108C62.7533 108.652 63.4093 109.052 63.9533 109.308C64.5133 109.548 64.9613 109.7 65.2973 109.764C65.6493 109.828 65.8893 109.86 66.0173 109.86C66.2733 109.86 66.4493 109.812 66.5453 109.716C66.6573 109.604 66.7133 109.468 66.7133 109.308C66.7133 109.164 66.6653 109.036 66.5693 108.924C66.4893 108.812 66.2893 108.692 65.9693 108.564C65.6493 108.42 65.1453 108.244 64.4573 108.036C63.9133 107.86 63.4013 107.644 62.9213 107.388C62.4573 107.116 62.0813 106.748 61.7933 106.284C61.5053 105.82 61.3613 105.22 61.3613 104.484C61.3613 103.796 61.5453 103.212 61.9133 102.732C62.2813 102.236 62.7933 101.86 63.4493 101.604C64.1213 101.348 64.9133 101.22 65.8253 101.22C66.4973 101.22 67.1213 101.284 67.6973 101.412C68.2733 101.524 68.8333 101.676 69.3773 101.868C69.9213 102.06 70.4653 102.284 71.0093 102.54L69.8573 105.732C69.3133 105.268 68.6973 104.9 68.0093 104.628C67.3373 104.34 66.7773 104.196 66.3293 104.196C66.0413 104.196 65.8493 104.244 65.7533 104.34C65.6573 104.436 65.6093 104.54 65.6093 104.652C65.6093 104.86 65.6973 105.028 65.8733 105.156C66.0653 105.268 66.3533 105.38 66.7373 105.492C67.1373 105.604 67.6573 105.78 68.2973 106.02C68.8253 106.212 69.3213 106.436 69.7853 106.692C70.2493 106.948 70.6253 107.284 70.9133 107.7C71.2013 108.116 71.3453 108.676 71.3453 109.38C71.3453 110.692 70.9693 111.644 70.2173 112.236C69.4653 112.812 68.3773 113.1 66.9533 113.1C66.1213 113.1 65.3373 113.028 64.6013 112.884C63.8653 112.756 63.1613 112.564 62.4893 112.308C61.8173 112.052 61.1453 111.748 60.4733 111.396L61.9853 108.108ZM71.952 101.46H80.472V105.18H71.952V101.46ZM73.992 97.62H78.432V112.5H73.992V97.62ZM81.3177 106.98C81.3177 105.78 81.6057 104.748 82.1817 103.884C82.7577 103.02 83.5497 102.356 84.5577 101.892C85.5657 101.428 86.7097 101.196 87.9897 101.196C89.2697 101.196 90.4137 101.428 91.4217 101.892C92.4297 102.356 93.2217 103.02 93.7977 103.884C94.3737 104.748 94.6617 105.78 94.6617 106.98C94.6617 108.164 94.3737 109.188 93.7977 110.052C93.2217 110.916 92.4297 111.58 91.4217 112.044C90.4137 112.508 89.2697 112.74 87.9897 112.74C86.7097 112.74 85.5657 112.508 84.5577 112.044C83.5497 111.58 82.7577 110.916 82.1817 110.052C81.6057 109.188 81.3177 108.164 81.3177 106.98ZM86.1417 106.98C86.1417 107.428 86.2297 107.804 86.4057 108.108C86.5817 108.412 86.8057 108.644 87.0777 108.804C87.3657 108.948 87.6697 109.02 87.9897 109.02C88.3097 109.02 88.6057 108.948 88.8777 108.804C89.1657 108.644 89.3977 108.412 89.5737 108.108C89.7497 107.804 89.8377 107.428 89.8377 106.98C89.8377 106.532 89.7497 106.156 89.5737 105.852C89.3977 105.548 89.1657 105.316 88.8777 105.156C88.6057 104.996 88.3097 104.916 87.9897 104.916C87.6697 104.916 87.3657 104.996 87.0777 105.156C86.8057 105.316 86.5817 105.548 86.4057 105.852C86.2297 106.156 86.1417 106.532 86.1417 106.98ZM101.147 101.46V112.5H96.5867V101.46H101.147ZM104.243 106.212C104.099 106.02 103.915 105.86 103.691 105.732C103.467 105.604 103.195 105.54 102.875 105.54C102.603 105.54 102.331 105.62 102.059 105.78C101.787 105.94 101.563 106.188 101.387 106.524C101.227 106.86 101.147 107.292 101.147 107.82L100.283 105.78C100.283 104.9 100.467 104.116 100.835 103.428C101.203 102.74 101.683 102.196 102.275 101.796C102.883 101.38 103.523 101.172 104.195 101.172C104.595 101.172 104.979 101.276 105.347 101.484C105.731 101.676 105.995 101.908 106.139 102.18L104.243 106.212ZM121.028 101.46L113.828 117.78H109.268L111.74 112.02L106.628 101.46H111.668L115.268 110.46H112.748L116.348 101.46H121.028Z" fill="white"/>
<defs>
<clipPath id="clip0_1250_1662">
<rect width="37" height="49" fill="white" transform="translate(58.5 32.5)"/>
</clipPath>
</defs>
</svg>
