<svg width="154" height="154" viewBox="0 0 154 154" fill="none" xmlns="http://www.w3.org/2000/svg">
<rect width="154" height="154" rx="10" fill="#BDA8DD"/>
<g clip-path="url(#clip0_1250_1666)">
<path d="M75.8187 33.2437L54.8187 42.2437C53.5062 42.8062 52.775 44.2125 53.0656 45.6C53.3562 46.9875 54.575 48 56 48V48.75C56 49.9969 57.0031 51 58.25 51H95.75C96.9969 51 98 49.9969 98 48.75V48C99.425 48 100.653 46.9969 100.934 45.6C101.216 44.2031 100.484 42.7969 99.1813 42.2437L78.1813 33.2437C77.4219 32.925 76.5687 32.925 75.8187 33.2437ZM65 54H59V72.4031C58.9437 72.4313 58.8875 72.4688 58.8312 72.5063L54.3312 75.5063C53.2344 76.2375 52.7375 77.6063 53.1219 78.8719C53.5062 80.1375 54.6781 81 56 81H98C99.3219 81 100.484 80.1375 100.869 78.8719C101.253 77.6063 100.766 76.2375 99.6594 75.5063L95.1594 72.5063C95.1031 72.4688 95.0469 72.4406 94.9906 72.4031V54H89V72H85.25V54H79.25V72H74.75V54H68.75V72H65V54ZM77 39C77.7956 39 78.5587 39.3161 79.1213 39.8787C79.6839 40.4413 80 41.2043 80 42C80 42.7956 79.6839 43.5587 79.1213 44.1213C78.5587 44.6839 77.7956 45 77 45C76.2044 45 75.4413 44.6839 74.8787 44.1213C74.3161 43.5587 74 42.7956 74 42C74 41.2043 74.3161 40.4413 74.8787 39.8787C75.4413 39.3161 76.2044 39 77 39Z" fill="#F7F4FB"/>
</g>
<path d="M29.2396 105.136L28.3756 112H22.7356L25.8556 94.36L33.2956 103.432L40.7356 94.36L43.8556 112H38.2156L37.3516 105.136L33.2956 110.44L29.2396 105.136ZM50.7059 107.68C50.7059 108.176 50.7779 108.568 50.9219 108.856C51.0659 109.128 51.3779 109.264 51.8579 109.264C52.1459 109.264 52.3859 109.208 52.5779 109.096C52.7859 108.984 52.9459 108.816 53.0579 108.592C53.1699 108.352 53.2259 108.048 53.2259 107.68V100.96H57.9059V112H53.2259V110.392C52.9219 110.952 52.4899 111.408 51.9299 111.76C51.3859 112.096 50.6819 112.264 49.8179 112.264C48.3139 112.264 47.2659 111.912 46.6739 111.208C46.0819 110.488 45.7859 109.472 45.7859 108.16V100.96H50.7059V107.68ZM60.9892 107.608C61.7572 108.152 62.4132 108.552 62.9572 108.808C63.5172 109.048 63.9652 109.2 64.3012 109.264C64.6532 109.328 64.8932 109.36 65.0212 109.36C65.2772 109.36 65.4532 109.312 65.5492 109.216C65.6612 109.104 65.7172 108.968 65.7172 108.808C65.7172 108.664 65.6692 108.536 65.5732 108.424C65.4932 108.312 65.2932 108.192 64.9732 108.064C64.6532 107.92 64.1492 107.744 63.4612 107.536C62.9172 107.36 62.4052 107.144 61.9252 106.888C61.4612 106.616 61.0852 106.248 60.7972 105.784C60.5092 105.32 60.3652 104.72 60.3652 103.984C60.3652 103.296 60.5492 102.712 60.9172 102.232C61.2852 101.736 61.7972 101.36 62.4532 101.104C63.1252 100.848 63.9172 100.72 64.8292 100.72C65.5012 100.72 66.1252 100.784 66.7012 100.912C67.2772 101.024 67.8372 101.176 68.3812 101.368C68.9252 101.56 69.4692 101.784 70.0132 102.04L68.8612 105.232C68.3172 104.768 67.7012 104.4 67.0132 104.128C66.3412 103.84 65.7812 103.696 65.3332 103.696C65.0452 103.696 64.8532 103.744 64.7572 103.84C64.6612 103.936 64.6132 104.04 64.6132 104.152C64.6132 104.36 64.7012 104.528 64.8772 104.656C65.0692 104.768 65.3572 104.88 65.7412 104.992C66.1412 105.104 66.6612 105.28 67.3012 105.52C67.8292 105.712 68.3252 105.936 68.7892 106.192C69.2532 106.448 69.6292 106.784 69.9172 107.2C70.2052 107.616 70.3492 108.176 70.3492 108.88C70.3492 110.192 69.9732 111.144 69.2212 111.736C68.4692 112.312 67.3812 112.6 65.9572 112.6C65.1252 112.6 64.3412 112.528 63.6052 112.384C62.8692 112.256 62.1652 112.064 61.4932 111.808C60.8212 111.552 60.1492 111.248 59.4772 110.896L60.9892 107.608ZM78.4679 112.24C77.0279 112.24 75.7879 112.008 74.7479 111.544C73.7239 111.08 72.9319 110.424 72.3719 109.576C71.8279 108.712 71.5559 107.68 71.5559 106.48C71.5559 105.264 71.8199 104.232 72.3479 103.384C72.8759 102.52 73.6359 101.864 74.6279 101.416C75.6199 100.952 76.8199 100.72 78.2279 100.72C79.6199 100.72 80.7879 100.936 81.7319 101.368C82.6919 101.784 83.4119 102.408 83.8919 103.24C84.3879 104.056 84.6359 105.064 84.6359 106.264C84.6359 106.472 84.6359 106.68 84.6359 106.888C84.6359 107.08 84.6199 107.264 84.5879 107.44H74.0999V105.184H80.2439L79.3319 106.288C79.4279 106.144 79.5079 105.992 79.5719 105.832C79.6359 105.672 79.6679 105.536 79.6679 105.424C79.6679 105.04 79.6039 104.712 79.4759 104.44C79.3479 104.168 79.1639 103.96 78.9239 103.816C78.6999 103.672 78.4279 103.6 78.1079 103.6C77.6759 103.6 77.3239 103.704 77.0519 103.912C76.7799 104.104 76.5799 104.416 76.4519 104.848C76.3239 105.264 76.2599 105.808 76.2599 106.48C76.2439 107.04 76.3079 107.52 76.4519 107.92C76.6119 108.304 76.8359 108.6 77.1239 108.808C77.4279 109.016 77.7959 109.12 78.2279 109.12C78.8039 109.12 79.2839 109.032 79.6679 108.856C80.0519 108.664 80.3399 108.392 80.5319 108.04L84.8039 108.712C84.2119 109.896 83.3879 110.784 82.3319 111.376C81.2919 111.952 80.0039 112.24 78.4679 112.24ZM91.5809 107.68C91.5809 108.176 91.6529 108.568 91.7969 108.856C91.9409 109.128 92.2529 109.264 92.7329 109.264C93.0209 109.264 93.2609 109.208 93.4529 109.096C93.6609 108.984 93.8209 108.816 93.9329 108.592C94.0449 108.352 94.1009 108.048 94.1009 107.68V100.96H98.7809V112H94.1009V110.392C93.7969 110.952 93.3649 111.408 92.8049 111.76C92.2609 112.096 91.5569 112.264 90.6929 112.264C89.1889 112.264 88.1409 111.912 87.5489 111.208C86.9569 110.488 86.6609 109.472 86.6609 108.16V100.96H91.5809V107.68ZM119.072 104.8V112H114.392V105.28C114.392 104.784 114.32 104.4 114.176 104.128C114.032 103.84 113.776 103.696 113.408 103.696C113.216 103.696 113.04 103.752 112.88 103.864C112.72 103.976 112.592 104.152 112.496 104.392C112.4 104.616 112.352 104.912 112.352 105.28V112H107.672V105.28C107.672 104.784 107.6 104.4 107.456 104.128C107.312 103.84 107.056 103.696 106.688 103.696C106.496 103.696 106.32 103.752 106.16 103.864C106 103.976 105.872 104.152 105.776 104.392C105.68 104.616 105.632 104.912 105.632 105.28V112H101.192V100.96H105.632V102.616C105.936 102.04 106.36 101.576 106.904 101.224C107.448 100.872 108.12 100.696 108.92 100.696C109.832 100.696 110.528 100.84 111.008 101.128C111.504 101.4 111.856 101.816 112.064 102.376C112.48 101.864 112.992 101.456 113.6 101.152C114.208 100.848 114.888 100.696 115.64 100.696C116.568 100.696 117.272 100.856 117.752 101.176C118.248 101.496 118.592 101.96 118.784 102.568C118.976 103.176 119.072 103.92 119.072 104.8ZM122.138 107.608C122.906 108.152 123.562 108.552 124.106 108.808C124.666 109.048 125.114 109.2 125.45 109.264C125.802 109.328 126.042 109.36 126.17 109.36C126.426 109.36 126.602 109.312 126.698 109.216C126.81 109.104 126.866 108.968 126.866 108.808C126.866 108.664 126.818 108.536 126.722 108.424C126.642 108.312 126.442 108.192 126.122 108.064C125.802 107.92 125.298 107.744 124.61 107.536C124.066 107.36 123.554 107.144 123.074 106.888C122.61 106.616 122.234 106.248 121.946 105.784C121.658 105.32 121.514 104.72 121.514 103.984C121.514 103.296 121.698 102.712 122.066 102.232C122.434 101.736 122.946 101.36 123.602 101.104C124.274 100.848 125.066 100.72 125.978 100.72C126.65 100.72 127.274 100.784 127.85 100.912C128.426 101.024 128.986 101.176 129.53 101.368C130.074 101.56 130.618 101.784 131.162 102.04L130.01 105.232C129.466 104.768 128.85 104.4 128.162 104.128C127.49 103.84 126.93 103.696 126.482 103.696C126.194 103.696 126.002 103.744 125.906 103.84C125.81 103.936 125.762 104.04 125.762 104.152C125.762 104.36 125.85 104.528 126.026 104.656C126.218 104.768 126.506 104.88 126.89 104.992C127.29 105.104 127.81 105.28 128.45 105.52C128.978 105.712 129.474 105.936 129.938 106.192C130.402 106.448 130.778 106.784 131.066 107.2C131.354 107.616 131.498 108.176 131.498 108.88C131.498 110.192 131.122 111.144 130.37 111.736C129.618 112.312 128.53 112.6 127.106 112.6C126.274 112.6 125.49 112.528 124.754 112.384C124.018 112.256 123.314 112.064 122.642 111.808C121.97 111.552 121.298 111.248 120.626 110.896L122.138 107.608Z" fill="white"/>
<defs>
<clipPath id="clip0_1250_1666">
<rect width="48" height="48" fill="white" transform="translate(53 33)"/>
</clipPath>
</defs>
</svg>
