<svg width="154" height="154" viewBox="0 0 154 154" fill="none" xmlns="http://www.w3.org/2000/svg">
<rect width="154" height="154" rx="10" fill="#BDA8DD"/>
<g clip-path="url(#clip0_1250_1680)">
<path d="M61.8448 34.6216C62.527 33.281 64.0849 32.6622 65.477 33.1778L77.0004 37.4528L88.5238 33.1778C89.9159 32.6622 91.4738 33.281 92.156 34.6216L99.4204 48.956C102.075 54.1872 100.37 60.4216 95.8712 63.6372L98.7659 71.7185L102.546 70.3122C104.076 69.7497 105.772 70.5466 106.325 72.1028C106.878 73.6591 106.095 75.3841 104.564 75.9466L98.0099 78.3747L91.4554 80.8122C89.9251 81.3841 88.2288 80.5778 87.6757 79.0216C87.1226 77.4653 87.9062 75.7403 89.4365 75.1778L93.2162 73.7716L90.3307 65.6903C84.8548 66.1778 79.6185 62.5028 78.3463 56.7653L77.0004 50.6997L75.6545 56.7653C74.3823 62.5122 69.146 66.1778 63.6701 65.6903L60.7846 73.7716L64.5643 75.1778C66.0946 75.7403 66.8874 77.4653 66.3251 79.0216C65.7627 80.5778 64.0757 81.3841 62.5454 80.8122L56.0001 78.3841L49.4455 75.956C47.9152 75.3841 47.1224 73.6685 47.6848 72.1122C48.2471 70.556 49.9341 69.7497 51.4645 70.3216L55.2441 71.7278L58.1296 63.6466C53.6309 60.4216 51.9346 54.1872 54.5896 48.956L61.8448 34.6216ZM65.901 39.7216L63.3935 44.6716L71.6166 47.7185L72.8243 42.2903L65.901 39.7216ZM88.109 39.7216L81.1857 42.2903L82.3934 47.7185L90.6165 44.6716L88.109 39.7216Z" fill="#F7F4FB"/>
</g>
<path d="M55.65 103.96V101.8H58.362C58.762 101.8 59.09 101.744 59.346 101.632C59.602 101.52 59.794 101.36 59.922 101.152C60.05 100.944 60.114 100.696 60.114 100.408C60.114 99.976 59.97 99.664 59.682 99.472C59.41 99.264 58.97 99.16 58.362 99.16H57.042V108.04H58.842C59.242 108.04 59.61 108.008 59.946 107.944C60.282 107.88 60.554 107.744 60.762 107.536C60.97 107.328 61.074 107 61.074 106.552C61.074 106.28 61.01 106.064 60.882 105.904C60.77 105.728 60.61 105.6 60.402 105.52C60.194 105.424 59.954 105.36 59.682 105.328C59.426 105.296 59.146 105.28 58.842 105.28H55.65V102.4H59.562C60.378 102.4 61.194 102.496 62.01 102.688C62.842 102.864 63.602 103.152 64.29 103.552C64.978 103.952 65.53 104.472 65.946 105.112C66.378 105.736 66.594 106.496 66.594 107.392C66.594 108.512 66.314 109.408 65.754 110.08C65.21 110.752 64.41 111.24 63.354 111.544C62.314 111.848 61.05 112 59.562 112H51.762V95.2H59.082C60.33 95.2 61.442 95.36 62.418 95.68C63.41 96 64.194 96.48 64.77 97.12C65.346 97.76 65.634 98.56 65.634 99.52C65.634 100.464 65.346 101.272 64.77 101.944C64.194 102.6 63.41 103.104 62.418 103.456C61.442 103.792 60.33 103.96 59.082 103.96H55.65ZM72.727 108.52C72.727 108.728 72.775 108.904 72.871 109.048C72.983 109.176 73.119 109.28 73.279 109.36C73.455 109.424 73.639 109.456 73.831 109.456C74.135 109.456 74.423 109.392 74.695 109.264C74.983 109.12 75.215 108.904 75.391 108.616C75.583 108.312 75.679 107.92 75.679 107.44L76.063 108.88C76.063 109.584 75.887 110.192 75.535 110.704C75.183 111.2 74.703 111.584 74.095 111.856C73.487 112.112 72.799 112.24 72.031 112.24C71.311 112.24 70.647 112.112 70.039 111.856C69.431 111.6 68.943 111.216 68.575 110.704C68.207 110.176 68.023 109.536 68.023 108.784C68.023 107.728 68.391 106.904 69.127 106.312C69.879 105.704 70.959 105.4 72.367 105.4C72.943 105.4 73.495 105.448 74.023 105.544C74.567 105.64 75.047 105.776 75.463 105.952C75.895 106.112 76.231 106.32 76.471 106.576V108.472C76.199 108.232 75.831 108.04 75.367 107.896C74.919 107.752 74.455 107.68 73.975 107.68C73.671 107.68 73.423 107.712 73.231 107.776C73.055 107.84 72.927 107.936 72.847 108.064C72.767 108.176 72.727 108.328 72.727 108.52ZM70.303 104.848L68.887 101.824C69.655 101.52 70.519 101.24 71.479 100.984C72.455 100.728 73.471 100.6 74.527 100.6C75.567 100.6 76.511 100.744 77.359 101.032C78.207 101.32 78.879 101.744 79.375 102.304C79.871 102.848 80.119 103.52 80.119 104.32V112H75.679V105.472C75.679 105.264 75.647 105.072 75.583 104.896C75.519 104.72 75.415 104.568 75.271 104.44C75.127 104.296 74.935 104.192 74.695 104.128C74.455 104.048 74.167 104.008 73.831 104.008C73.383 104.008 72.911 104.064 72.415 104.176C71.919 104.272 71.479 104.392 71.095 104.536C70.711 104.664 70.447 104.768 70.303 104.848ZM87.0842 100.96V112H82.5242V100.96H87.0842ZM90.1802 105.712C90.0362 105.52 89.8522 105.36 89.6282 105.232C89.4042 105.104 89.1322 105.04 88.8122 105.04C88.5402 105.04 88.2682 105.12 87.9962 105.28C87.7242 105.44 87.5002 105.688 87.3242 106.024C87.1642 106.36 87.0842 106.792 87.0842 107.32L86.2202 105.28C86.2202 104.4 86.4042 103.616 86.7722 102.928C87.1402 102.24 87.6202 101.696 88.2122 101.296C88.8202 100.88 89.4602 100.672 90.1322 100.672C90.5322 100.672 90.9162 100.776 91.2842 100.984C91.6682 101.176 91.9322 101.408 92.0762 101.68L90.1802 105.712ZM94.0712 107.608C94.8392 108.152 95.4952 108.552 96.0392 108.808C96.5992 109.048 97.0472 109.2 97.3832 109.264C97.7352 109.328 97.9752 109.36 98.1032 109.36C98.3592 109.36 98.5352 109.312 98.6312 109.216C98.7432 109.104 98.7992 108.968 98.7992 108.808C98.7992 108.664 98.7512 108.536 98.6552 108.424C98.5752 108.312 98.3752 108.192 98.0552 108.064C97.7352 107.92 97.2312 107.744 96.5432 107.536C95.9992 107.36 95.4872 107.144 95.0072 106.888C94.5432 106.616 94.1672 106.248 93.8792 105.784C93.5912 105.32 93.4472 104.72 93.4472 103.984C93.4472 103.296 93.6312 102.712 93.9992 102.232C94.3672 101.736 94.8792 101.36 95.5352 101.104C96.2072 100.848 96.9992 100.72 97.9112 100.72C98.5832 100.72 99.2072 100.784 99.7832 100.912C100.359 101.024 100.919 101.176 101.463 101.368C102.007 101.56 102.551 101.784 103.095 102.04L101.943 105.232C101.399 104.768 100.783 104.4 100.095 104.128C99.4232 103.84 98.8632 103.696 98.4152 103.696C98.1272 103.696 97.9352 103.744 97.8392 103.84C97.7432 103.936 97.6952 104.04 97.6952 104.152C97.6952 104.36 97.7832 104.528 97.9592 104.656C98.1512 104.768 98.4392 104.88 98.8232 104.992C99.2232 105.104 99.7432 105.28 100.383 105.52C100.911 105.712 101.407 105.936 101.871 106.192C102.335 106.448 102.711 106.784 102.999 107.2C103.287 107.616 103.431 108.176 103.431 108.88C103.431 110.192 103.055 111.144 102.303 111.736C101.551 112.312 100.463 112.6 99.0392 112.6C98.2072 112.6 97.4232 112.528 96.6872 112.384C95.9512 112.256 95.2472 112.064 94.5752 111.808C93.9032 111.552 93.2312 111.248 92.5592 110.896L94.0712 107.608Z" fill="white"/>
<defs>
<clipPath id="clip0_1250_1680">
<rect width="59" height="48" fill="white" transform="translate(47.5 33)"/>
</clipPath>
</defs>
</svg>
