<svg width="154" height="154" viewBox="0 0 154 154" fill="none" xmlns="http://www.w3.org/2000/svg">
<rect width="154" height="154" rx="10" fill="#BDA8DD"/>
<g clip-path="url(#clip0_1250_1670)">
<path d="M54.5 33H66.5C66.9969 33 67.4656 33.2531 67.7469 33.6656L75.35 45.0656C70.7094 45.45 66.5375 47.4656 63.3875 50.5312L53.2531 35.3344C52.9438 34.875 52.9156 34.2844 53.1781 33.7969C53.4406 33.3094 53.9469 33 54.5 33ZM100.747 35.3344L90.6125 50.5406C87.4719 47.475 83.2906 45.4594 78.65 45.075L86.2531 33.6656C86.5344 33.2437 87.0031 33 87.5 33H99.5C100.053 33 100.559 33.3 100.822 33.7969C101.084 34.2938 101.056 34.875 100.747 35.3344ZM93.5 64.5C93.5 73.6125 86.1125 81 77 81C67.8875 81 60.5 73.6125 60.5 64.5C60.5 55.3875 67.8875 48 77 48C86.1125 48 93.5 55.3875 93.5 64.5ZM77.7875 55.6031C77.4688 54.9469 76.5406 54.9469 76.2125 55.6031L74.1125 59.8594C73.9813 60.1219 73.7375 60.3 73.4563 60.3375L68.75 61.0219C68.0281 61.125 67.7469 62.0062 68.2625 62.5219L71.6656 65.8406C71.8719 66.0469 71.9656 66.3281 71.9188 66.6188L71.1125 71.2969C70.9906 72.0094 71.7406 72.5625 72.3875 72.225L76.5875 70.0125C76.8406 69.8812 77.15 69.8812 77.4031 70.0125L81.6031 72.225C82.25 72.5625 83 72.0187 82.8781 71.2969L82.0719 66.6188C82.025 66.3375 82.1188 66.0469 82.325 65.8406L85.7281 62.5219C86.2531 62.0156 85.9625 61.1344 85.2406 61.0219L80.5438 60.3375C80.2625 60.3 80.0094 60.1125 79.8875 59.8594L77.7875 55.6031Z" fill="#F7F4FB"/>
</g>
<path d="M42.4009 105.616C42.7209 106.176 43.0889 106.664 43.5049 107.08C43.9209 107.48 44.3689 107.784 44.8489 107.992C45.3449 108.2 45.8409 108.304 46.3369 108.304C46.7529 108.304 47.1049 108.224 47.3929 108.064C47.6809 107.888 47.8249 107.616 47.8249 107.248C47.8249 107.024 47.7449 106.832 47.5849 106.672C47.4409 106.512 47.1449 106.328 46.6969 106.12C46.2489 105.912 45.5689 105.632 44.6569 105.28C44.2569 105.12 43.7929 104.904 43.2649 104.632C42.7529 104.36 42.2569 104.008 41.7769 103.576C41.3129 103.144 40.9209 102.616 40.6009 101.992C40.2969 101.368 40.1449 100.632 40.1449 99.784C40.1449 98.68 40.4409 97.752 41.0329 97C41.6249 96.248 42.4089 95.68 43.3849 95.296C44.3609 94.912 45.4329 94.72 46.6009 94.72C47.8649 94.72 48.9449 94.912 49.8409 95.296C50.7529 95.68 51.4969 96.16 52.0729 96.736C52.6649 97.312 53.1129 97.888 53.4169 98.464L49.5049 100.624C49.2489 100.224 48.9609 99.912 48.6409 99.688C48.3369 99.448 48.0249 99.272 47.7049 99.16C47.3849 99.048 47.0729 98.992 46.7689 98.992C46.4009 98.992 46.0969 99.056 45.8569 99.184C45.6329 99.312 45.5209 99.512 45.5209 99.784C45.5209 100.12 45.6809 100.4 46.0009 100.624C46.3369 100.832 46.7769 101.032 47.3209 101.224C47.8649 101.4 48.4649 101.608 49.1209 101.848C49.7929 102.088 50.3929 102.376 50.9209 102.712C51.4489 103.032 51.8969 103.408 52.2649 103.84C52.6489 104.272 52.9369 104.76 53.1289 105.304C53.3209 105.832 53.4169 106.424 53.4169 107.08C53.4169 108.008 53.2249 108.832 52.8409 109.552C52.4569 110.256 51.9369 110.84 51.2809 111.304C50.6409 111.768 49.9129 112.12 49.0969 112.36C48.2809 112.6 47.4409 112.72 46.5769 112.72C45.3769 112.72 44.2569 112.52 43.2169 112.12C42.1929 111.736 41.3049 111.2 40.5529 110.512C39.8009 109.824 39.2329 109.056 38.8489 108.208L42.4009 105.616ZM60.1339 117.28H55.4539V100.96H60.1339V117.28ZM69.0139 106.48C69.0139 107.824 68.7579 108.944 68.2459 109.84C67.7499 110.72 67.1099 111.384 66.3259 111.832C65.5579 112.264 64.7499 112.48 63.9019 112.48C62.9099 112.48 62.0619 112.232 61.3579 111.736C60.6699 111.224 60.1499 110.52 59.7979 109.624C59.4459 108.712 59.2699 107.664 59.2699 106.48C59.2699 105.28 59.4459 104.232 59.7979 103.336C60.1499 102.44 60.6699 101.744 61.3579 101.248C62.0619 100.736 62.9099 100.48 63.9019 100.48C64.7499 100.48 65.5579 100.704 66.3259 101.152C67.1099 101.584 67.7499 102.24 68.2459 103.12C68.7579 104 69.0139 105.12 69.0139 106.48ZM64.0699 106.48C64.0699 106.064 63.9819 105.72 63.8059 105.448C63.6299 105.16 63.3899 104.944 63.0859 104.8C62.7979 104.64 62.4699 104.56 62.1019 104.56C61.7819 104.56 61.4699 104.632 61.1659 104.776C60.8619 104.904 60.6139 105.112 60.4219 105.4C60.2299 105.672 60.1339 106.032 60.1339 106.48C60.1339 106.928 60.2299 107.296 60.4219 107.584C60.6139 107.856 60.8619 108.064 61.1659 108.208C61.4699 108.336 61.7819 108.4 62.1019 108.4C62.4699 108.4 62.7979 108.328 63.0859 108.184C63.3899 108.024 63.6299 107.8 63.8059 107.512C63.9819 107.224 64.0699 106.88 64.0699 106.48ZM70.4427 106.48C70.4427 105.28 70.7307 104.248 71.3067 103.384C71.8827 102.52 72.6747 101.856 73.6827 101.392C74.6907 100.928 75.8347 100.696 77.1147 100.696C78.3947 100.696 79.5387 100.928 80.5467 101.392C81.5547 101.856 82.3467 102.52 82.9227 103.384C83.4987 104.248 83.7867 105.28 83.7867 106.48C83.7867 107.664 83.4987 108.688 82.9227 109.552C82.3467 110.416 81.5547 111.08 80.5467 111.544C79.5387 112.008 78.3947 112.24 77.1147 112.24C75.8347 112.24 74.6907 112.008 73.6827 111.544C72.6747 111.08 71.8827 110.416 71.3067 109.552C70.7307 108.688 70.4427 107.664 70.4427 106.48ZM75.2667 106.48C75.2667 106.928 75.3547 107.304 75.5307 107.608C75.7067 107.912 75.9307 108.144 76.2027 108.304C76.4907 108.448 76.7947 108.52 77.1147 108.52C77.4347 108.52 77.7307 108.448 78.0027 108.304C78.2907 108.144 78.5227 107.912 78.6987 107.608C78.8747 107.304 78.9627 106.928 78.9627 106.48C78.9627 106.032 78.8747 105.656 78.6987 105.352C78.5227 105.048 78.2907 104.816 78.0027 104.656C77.7307 104.496 77.4347 104.416 77.1147 104.416C76.7947 104.416 76.4907 104.496 76.2027 104.656C75.9307 104.816 75.7067 105.048 75.5307 105.352C75.3547 105.656 75.2667 106.032 75.2667 106.48ZM90.2717 100.96V112H85.7117V100.96H90.2717ZM93.3677 105.712C93.2237 105.52 93.0397 105.36 92.8157 105.232C92.5917 105.104 92.3197 105.04 91.9997 105.04C91.7277 105.04 91.4557 105.12 91.1837 105.28C90.9117 105.44 90.6877 105.688 90.5117 106.024C90.3517 106.36 90.2717 106.792 90.2717 107.32L89.4077 105.28C89.4077 104.4 89.5917 103.616 89.9597 102.928C90.3277 102.24 90.8077 101.696 91.3997 101.296C92.0077 100.88 92.6477 100.672 93.3197 100.672C93.7197 100.672 94.1037 100.776 94.4717 100.984C94.8557 101.176 95.1197 101.408 95.2637 101.68L93.3677 105.712ZM95.5067 100.96H104.027V104.68H95.5067V100.96ZM97.5467 97.12H101.987V112H97.5467V97.12ZM106.024 107.608C106.792 108.152 107.448 108.552 107.992 108.808C108.552 109.048 109 109.2 109.336 109.264C109.688 109.328 109.928 109.36 110.056 109.36C110.312 109.36 110.488 109.312 110.584 109.216C110.696 109.104 110.752 108.968 110.752 108.808C110.752 108.664 110.704 108.536 110.608 108.424C110.528 108.312 110.328 108.192 110.008 108.064C109.688 107.92 109.184 107.744 108.496 107.536C107.952 107.36 107.44 107.144 106.96 106.888C106.496 106.616 106.12 106.248 105.832 105.784C105.544 105.32 105.4 104.72 105.4 103.984C105.4 103.296 105.584 102.712 105.952 102.232C106.32 101.736 106.832 101.36 107.488 101.104C108.16 100.848 108.952 100.72 109.864 100.72C110.536 100.72 111.16 100.784 111.736 100.912C112.312 101.024 112.872 101.176 113.416 101.368C113.96 101.56 114.504 101.784 115.048 102.04L113.896 105.232C113.352 104.768 112.736 104.4 112.048 104.128C111.376 103.84 110.816 103.696 110.368 103.696C110.08 103.696 109.888 103.744 109.792 103.84C109.696 103.936 109.648 104.04 109.648 104.152C109.648 104.36 109.736 104.528 109.912 104.656C110.104 104.768 110.392 104.88 110.776 104.992C111.176 105.104 111.696 105.28 112.336 105.52C112.864 105.712 113.36 105.936 113.824 106.192C114.288 106.448 114.664 106.784 114.952 107.2C115.24 107.616 115.384 108.176 115.384 108.88C115.384 110.192 115.008 111.144 114.256 111.736C113.504 112.312 112.416 112.6 110.992 112.6C110.16 112.6 109.376 112.528 108.64 112.384C107.904 112.256 107.2 112.064 106.528 111.808C105.856 111.552 105.184 111.248 104.512 110.896L106.024 107.608Z" fill="white"/>
<defs>
<clipPath id="clip0_1250_1670">
<rect width="48" height="48" fill="white" transform="translate(53 33)"/>
</clipPath>
</defs>
</svg>
