<svg width="154" height="155" viewBox="0 0 154 155" fill="none" xmlns="http://www.w3.org/2000/svg">
<rect y="0.644043" width="154" height="154" rx="10" fill="#BDA8DD"/>
<path d="M70.3567 33.1738C71.1576 32.461 72.4 32.4707 73.2009 33.1836C76.0348 35.7128 78.6942 38.4372 81.179 41.3863C82.3085 39.9801 83.592 38.447 84.9781 37.1971C85.7893 36.4744 87.042 36.4744 87.8531 37.2068C91.4058 40.4293 94.4143 44.6869 96.5295 48.7297C98.6138 52.7139 100 56.7859 100 59.6569C100 72.1172 89.7527 82.644 77 82.644C64.1036 82.644 54 72.1075 54 59.6471C54 55.8973 55.8277 51.3175 58.6616 46.7864C61.5263 42.1871 65.5719 37.3924 70.3567 33.1738ZM77.1746 73.2695C79.7723 73.2695 82.0723 72.5859 84.2388 71.2188C88.5616 68.3479 89.7219 62.606 87.1241 58.0945C86.6621 57.2156 85.4813 57.157 84.8138 57.8992L82.2263 60.7604C81.5487 61.5025 80.3268 61.483 79.6902 60.7115C77.996 58.6609 74.967 54.9989 73.242 52.9189C72.5951 52.1377 71.3629 52.128 70.7058 52.9092C67.2353 57.0594 65.4897 59.6764 65.4897 62.6157C65.5 69.3049 70.6955 73.2695 77.1746 73.2695Z" fill="#F7F4FB"/>
<path d="M36.7269 96.844V113.644H42.2469V96.844H36.7269ZM47.4069 96.844L40.7349 104.884L47.5269 113.644H53.9109L46.9989 104.716L53.5509 96.844H47.4069ZM67.7889 102.604H55.7889V108.364C55.7889 108.908 55.6129 109.236 55.2609 109.348C54.9249 109.444 54.5169 109.492 54.0369 109.492V113.644C55.6689 113.644 56.9329 113.508 57.8289 113.236C58.7249 112.948 59.3489 112.524 59.7009 111.964C60.0529 111.388 60.2289 110.668 60.2289 109.804V106.804H63.3489V113.644H67.7889V102.604ZM83.7509 102.604H79.0709L75.4709 111.604H77.9909L74.3909 102.604H69.3509L74.4629 113.164L71.9909 118.924H76.5509L83.7509 102.604ZM91.4144 106.06C91.7344 106.06 92.0304 106.14 92.3024 106.3C92.5904 106.46 92.8144 106.692 92.9744 106.996C93.1504 107.3 93.2384 107.676 93.2384 108.124C93.2384 108.572 93.1504 108.948 92.9744 109.252C92.7984 109.556 92.5664 109.788 92.2784 109.948C92.0064 110.092 91.7104 110.164 91.3904 110.164C91.0704 110.164 90.7664 110.092 90.4784 109.948C90.1904 109.788 89.9584 109.556 89.7824 109.252C89.6064 108.948 89.5184 108.572 89.5184 108.124L84.2384 106.684C84.2384 108.268 84.5424 109.596 85.1504 110.668C85.7584 111.74 86.5984 112.548 87.6704 113.092C88.7584 113.62 89.9984 113.884 91.3904 113.884C92.7984 113.884 93.9984 113.636 94.9904 113.14C95.9824 112.644 96.7424 111.964 97.2704 111.1C97.7984 110.22 98.0624 109.228 98.0624 108.124C98.0624 107.004 97.8064 106.012 97.2944 105.148C96.7824 104.284 96.0624 103.604 95.1344 103.108C94.2064 102.612 93.1184 102.364 91.8704 102.364L91.4144 106.06ZM87.4544 108.124H89.5184C89.5184 107.788 89.5664 107.492 89.6624 107.236C89.7584 106.98 89.8864 106.764 90.0464 106.588C90.2224 106.412 90.4224 106.284 90.6464 106.204C90.8864 106.108 91.1424 106.06 91.4144 106.06L91.8704 102.364C91.1824 102.364 90.5664 102.5 90.0224 102.772C89.4784 103.028 89.0144 103.404 88.6304 103.9C88.2464 104.396 87.9504 105.004 87.7424 105.724C87.5504 106.428 87.4544 107.228 87.4544 108.124ZM84.2384 106.684L89.2784 108.196L88.3184 105.484C88.3184 104.684 88.4304 103.964 88.6544 103.324C88.8784 102.668 89.2624 102.084 89.8064 101.572C90.3664 101.044 91.1264 100.58 92.0864 100.18C92.9664 99.812 93.7504 99.356 94.4384 98.812C95.1424 98.268 95.7104 97.66 96.1424 96.988C96.5744 96.316 96.8304 95.628 96.9104 94.924H92.4704C92.3584 95.5 91.9904 95.98 91.3664 96.364C90.7584 96.732 89.9104 97.164 88.8224 97.66C87.5904 98.22 86.6384 98.916 85.9664 99.748C85.3104 100.58 84.8544 101.572 84.5984 102.724C84.3584 103.86 84.2384 105.18 84.2384 106.684ZM113.074 102.604V113.644H117.754V102.604H113.074ZM100.114 102.604V113.644H104.794V102.604H100.114ZM104.002 108.82H106.402C106.626 108.82 106.802 108.884 106.93 109.012C107.074 109.14 107.146 109.3 107.146 109.492C107.146 109.62 107.114 109.74 107.05 109.852C106.986 109.948 106.898 110.028 106.786 110.092C106.674 110.14 106.546 110.164 106.402 110.164H104.002V113.644H107.434C108.202 113.644 108.89 113.468 109.498 113.116C110.106 112.748 110.586 112.252 110.938 111.628C111.29 110.988 111.466 110.276 111.466 109.492C111.466 108.308 111.074 107.444 110.29 106.9C109.522 106.34 108.57 106.06 107.434 106.06H104.002V108.82Z" fill="white"/>
</svg>
