<svg width="154" height="155" viewBox="0 0 154 155" fill="none" xmlns="http://www.w3.org/2000/svg">
<rect y="0.644043" width="154" height="154" rx="10" fill="#BDA8DD"/>
<g clip-path="url(#clip0_1078_1749)">
<path d="M58.5 36.2065C58.5 34.5126 59.8779 33.144 61.5833 33.144H64.6667H89.3333H92.4167C94.1221 33.144 95.5 34.5126 95.5 36.2065C95.5 37.9005 94.1221 39.269 92.4167 39.269V40.3218C92.4167 44.3796 90.7883 48.2747 87.8977 51.1458L81.3648 57.644L87.9073 64.1423C90.7979 67.0134 92.4263 70.9085 92.4263 74.9663V76.019C94.1318 76.019 95.5096 77.3876 95.5096 79.0815C95.5096 80.7755 94.1318 82.144 92.4263 82.144H89.3333H64.6667H61.5833C59.8779 82.144 58.5 80.7755 58.5 79.0815C58.5 77.3876 59.8779 76.019 61.5833 76.019V74.9663C61.5833 70.9085 63.2117 67.0134 66.1023 64.1423L72.6352 57.644L66.1023 51.1458C63.2117 48.2747 61.5833 44.3796 61.5833 40.3218V39.269C59.8779 39.269 58.5 37.9005 58.5 36.2065ZM67.75 39.269V40.3218C67.75 42.7622 68.7232 45.0974 70.4576 46.82L77 53.3087L83.5424 46.8104C85.2768 45.0878 86.25 42.7526 86.25 40.3122V39.269H67.75ZM67.75 76.019H86.25V74.9663C86.25 72.5259 85.2768 70.1907 83.5424 68.4681L77 61.9794L70.4576 68.4776C68.7232 70.2003 67.75 72.5354 67.75 74.9759V76.0286V76.019Z" fill="#F7F4FB"/>
</g>
<path d="M45.0552 101.744L45.1752 95.504L29.3352 107.744L29.2152 113.984L45.0552 101.744ZM34.2552 96.344H29.2152V113.984L34.2552 109.184V96.344ZM45.1752 95.504L40.1352 100.544V113.144H45.1752V95.504ZM52.3917 107.624C52.3917 107.208 52.5037 106.84 52.7277 106.52C52.9517 106.184 53.2477 105.92 53.6157 105.728C53.9997 105.52 54.4077 105.416 54.8397 105.416C55.1117 105.416 55.4237 105.464 55.7757 105.56C56.1277 105.64 56.4797 105.784 56.8317 105.992C57.1837 106.184 57.4797 106.456 57.7197 106.808V102.56C57.3357 102.384 56.8957 102.224 56.3997 102.08C55.9197 101.936 55.2397 101.864 54.3597 101.864C53.0477 101.864 51.8797 102.096 50.8557 102.56C49.8317 103.024 49.0237 103.688 48.4317 104.552C47.8557 105.4 47.5677 106.424 47.5677 107.624C47.5677 108.808 47.8557 109.832 48.4317 110.696C49.0237 111.56 49.8317 112.224 50.8557 112.688C51.8797 113.152 53.0477 113.384 54.3597 113.384C55.2397 113.384 55.9197 113.312 56.3997 113.168C56.8957 113.024 57.3357 112.848 57.7197 112.64V108.416C57.4797 108.752 57.1997 109.024 56.8797 109.232C56.5597 109.44 56.2237 109.592 55.8717 109.688C55.5357 109.784 55.1917 109.832 54.8397 109.832C54.4077 109.832 53.9997 109.752 53.6157 109.592C53.2477 109.416 52.9517 109.168 52.7277 108.848C52.5037 108.512 52.3917 108.104 52.3917 107.624ZM59.038 102.104V105.824H67.558V102.104H59.038ZM61.078 102.584V113.144H65.518V102.584H61.078ZM68.052 107.624C68.052 108.808 68.34 109.832 68.916 110.696C69.492 111.56 70.284 112.224 71.292 112.688C72.3 113.152 73.444 113.384 74.724 113.384C76.004 113.384 77.148 113.152 78.156 112.688C79.164 112.224 79.956 111.56 80.532 110.696C81.108 109.832 81.396 108.808 81.396 107.624C81.396 106.424 81.108 105.392 80.532 104.528C79.956 103.664 79.164 103 78.156 102.536C77.148 102.072 76.004 101.84 74.724 101.84C73.444 101.84 72.3 102.072 71.292 102.536C70.284 103 69.492 103.664 68.916 104.528C68.34 105.392 68.052 106.424 68.052 107.624ZM72.876 107.624C72.876 107.176 72.964 106.8 73.14 106.496C73.316 106.192 73.54 105.96 73.812 105.8C74.1 105.64 74.404 105.56 74.724 105.56C75.044 105.56 75.34 105.64 75.612 105.8C75.9 105.96 76.132 106.192 76.308 106.496C76.484 106.8 76.572 107.176 76.572 107.624C76.572 108.072 76.484 108.448 76.308 108.752C76.132 109.056 75.9 109.288 75.612 109.448C75.34 109.592 75.044 109.664 74.724 109.664C74.404 109.664 74.1 109.592 73.812 109.448C73.54 109.288 73.316 109.056 73.14 108.752C72.964 108.448 72.876 108.072 72.876 107.624ZM88.0011 118.424V102.104H83.3211V118.424H88.0011ZM96.8811 107.624C96.8811 106.264 96.6251 105.144 96.1131 104.264C95.6171 103.384 94.9771 102.728 94.1931 102.296C93.4251 101.848 92.6171 101.624 91.7691 101.624C90.7771 101.624 89.9291 101.88 89.2251 102.392C88.5371 102.888 88.0171 103.584 87.6651 104.48C87.3131 105.376 87.1371 106.424 87.1371 107.624C87.1371 108.808 87.3131 109.856 87.6651 110.768C88.0171 111.664 88.5371 112.368 89.2251 112.88C89.9291 113.376 90.7771 113.624 91.7691 113.624C92.6171 113.624 93.4251 113.408 94.1931 112.976C94.9771 112.528 95.6171 111.864 96.1131 110.984C96.6251 110.088 96.8811 108.968 96.8811 107.624ZM91.9371 107.624C91.9371 108.024 91.8491 108.368 91.6731 108.656C91.4971 108.944 91.2571 109.168 90.9531 109.328C90.6651 109.472 90.3371 109.544 89.9691 109.544C89.6491 109.544 89.3371 109.48 89.0331 109.352C88.7291 109.208 88.4811 109 88.2891 108.728C88.0971 108.44 88.0011 108.072 88.0011 107.624C88.0011 107.176 88.0971 106.816 88.2891 106.544C88.4811 106.256 88.7291 106.048 89.0331 105.92C89.3371 105.776 89.6491 105.704 89.9691 105.704C90.3371 105.704 90.6651 105.784 90.9531 105.944C91.2571 106.088 91.4971 106.304 91.6731 106.592C91.8491 106.864 91.9371 107.208 91.9371 107.624ZM111.15 105.944L111.27 101.264L98.9098 109.304L98.7898 113.984L111.15 105.944ZM103.23 102.104H98.7898V113.984L103.23 110.144V102.104ZM111.27 101.264L106.83 105.104V113.144H111.27V101.264ZM118.017 113.144L120.417 108.584H116.145L113.265 113.144H118.017ZM125.625 113.144V102.104H120.945V113.144H125.625ZM122.457 106.568H119.865C119.641 106.568 119.449 106.56 119.289 106.544C119.145 106.528 119.033 106.488 118.953 106.424C118.873 106.36 118.833 106.264 118.833 106.136C118.833 106.008 118.873 105.912 118.953 105.848C119.033 105.784 119.145 105.744 119.289 105.728C119.449 105.712 119.641 105.704 119.865 105.704H122.457V102.104H119.025C118.273 102.104 117.529 102.224 116.793 102.464C116.057 102.688 115.449 103.056 114.969 103.568C114.505 104.08 114.273 104.776 114.273 105.656C114.273 106.52 114.505 107.232 114.969 107.792C115.449 108.352 116.057 108.768 116.793 109.04C117.529 109.312 118.273 109.448 119.025 109.448H122.457V106.568Z" fill="white"/>
<defs>
<clipPath id="clip0_1078_1749">
<rect width="37" height="49" fill="white" transform="translate(58.5 33.144)"/>
</clipPath>
</defs>
</svg>
