<svg width="154" height="155" viewBox="0 0 154 155" fill="none" xmlns="http://www.w3.org/2000/svg">
<rect y="0.644043" width="154" height="154" rx="10" fill="#BDA8DD"/>
<g clip-path="url(#clip0_1078_1753)">
<path d="M75.8187 33.8877L54.8187 42.8877C53.5062 43.4502 52.775 44.8565 53.0656 46.244C53.3562 47.6315 54.575 48.644 56 48.644V49.394C56 50.6409 57.0031 51.644 58.25 51.644H95.75C96.9969 51.644 98 50.6409 98 49.394V48.644C99.425 48.644 100.653 47.6409 100.934 46.244C101.216 44.8471 100.484 43.4409 99.1812 42.8877L78.1812 33.8877C77.4219 33.569 76.5687 33.569 75.8187 33.8877ZM65 54.644H59V73.0471C58.9437 73.0752 58.8875 73.1127 58.8312 73.1502L54.3312 76.1502C53.2344 76.8815 52.7375 78.2502 53.1219 79.5159C53.5062 80.7815 54.6781 81.644 56 81.644H98C99.3219 81.644 100.484 80.7815 100.869 79.5159C101.253 78.2502 100.766 76.8815 99.6594 76.1502L95.1594 73.1502C95.1031 73.1127 95.0469 73.0846 94.9906 73.0471V54.644H89V72.644H85.25V54.644H79.25V72.644H74.75V54.644H68.75V72.644H65V54.644ZM77 39.644C77.7956 39.644 78.5587 39.9601 79.1213 40.5227C79.6839 41.0853 80 41.8483 80 42.644C80 43.4396 79.6839 44.2027 79.1213 44.7653C78.5587 45.3279 77.7956 45.644 77 45.644C76.2043 45.644 75.4413 45.3279 74.8787 44.7653C74.3161 44.2027 74 43.4396 74 42.644C74 41.8483 74.3161 41.0853 74.8787 40.5227C75.4413 39.9601 76.2043 39.644 77 39.644Z" fill="#F7F4FB"/>
</g>
<path d="M44.9896 105.78L49.0456 111.084L53.1016 105.78L53.9656 112.644H59.6056L56.4856 95.004L49.0456 104.076L41.6056 95.004L38.4856 112.644H44.1256L44.9896 105.78ZM73.1806 101.604H68.5006L64.9006 110.604H67.4206L63.8206 101.604H58.7806L63.8926 112.164L61.4206 117.924H65.9806L73.1806 101.604ZM79.8601 107.124C81.7161 107.236 83.0521 107.06 83.8681 106.596C84.6841 106.116 85.0921 105.468 85.0921 104.652C85.0921 104.012 84.8681 103.444 84.4201 102.948C83.9881 102.452 83.3961 102.068 82.6441 101.796C81.8921 101.508 81.0281 101.364 80.0521 101.364C79.0121 101.364 78.1081 101.532 77.3401 101.868C76.5881 102.204 76.0041 102.684 75.5881 103.308C75.1881 103.916 74.9881 104.66 74.9881 105.54H79.0921C79.1081 105.284 79.1641 105.084 79.2601 104.94C79.3561 104.796 79.4761 104.692 79.6201 104.628C79.7801 104.564 79.9401 104.532 80.1001 104.532C80.3241 104.532 80.5161 104.604 80.6761 104.748C80.8521 104.892 80.9401 105.076 80.9401 105.3C80.9401 105.54 80.8521 105.74 80.6761 105.9C80.5001 106.044 80.2281 106.116 79.8601 106.116V107.124ZM80.0041 112.884C81.1081 112.884 82.0761 112.74 82.9081 112.452C83.7401 112.164 84.3881 111.764 84.8521 111.252C85.3321 110.724 85.5721 110.116 85.5721 109.428C85.5721 108.468 85.0841 107.692 84.1081 107.1C83.1321 106.508 81.7161 106.276 79.8601 106.404V107.892C80.1801 107.892 80.4441 107.932 80.6521 108.012C80.8601 108.076 81.0121 108.18 81.1081 108.324C81.2201 108.452 81.2761 108.62 81.2761 108.828C81.2761 109.036 81.2201 109.212 81.1081 109.356C80.9961 109.484 80.8361 109.588 80.6281 109.668C80.4361 109.732 80.2201 109.764 79.9801 109.764C79.7401 109.764 79.4841 109.692 79.2121 109.548C78.9401 109.404 78.7401 109.116 78.6121 108.684H74.2681C74.3961 109.996 74.9481 111.028 75.9241 111.78C76.9001 112.516 78.2601 112.884 80.0041 112.884ZM89.9203 108.084H100.408C100.44 107.828 100.456 107.596 100.456 107.388C100.456 107.164 100.456 107.004 100.456 106.908C100.456 105.74 100.216 104.748 99.7363 103.932C99.2723 103.1 98.5683 102.468 97.6243 102.036C96.6803 101.588 95.4883 101.364 94.0483 101.364C92.7043 101.364 91.5683 101.556 90.6403 101.94C89.7283 102.324 89.0083 102.86 88.4803 103.548C87.9683 104.236 87.6323 105.036 87.4723 105.948C87.4403 106.14 87.4163 106.332 87.4003 106.524C87.3843 106.716 87.3763 106.916 87.3763 107.124C87.3763 108.228 87.6243 109.22 88.1203 110.1C88.6323 110.964 89.4003 111.644 90.4243 112.14C91.4483 112.636 92.7363 112.884 94.2883 112.884C95.4083 112.884 96.3683 112.74 97.1683 112.452C97.9843 112.164 98.6723 111.756 99.2323 111.228C99.7923 110.7 100.256 110.076 100.624 109.356L96.3523 108.684C96.2243 108.924 96.0483 109.124 95.8243 109.284C95.6163 109.444 95.3603 109.564 95.0563 109.644C94.7683 109.724 94.4323 109.764 94.0483 109.764C93.7283 109.764 93.4163 109.692 93.1123 109.548C92.8083 109.388 92.5603 109.116 92.3683 108.732C92.1763 108.348 92.0803 107.812 92.0803 107.124L92.1283 106.644C92.1283 106.116 92.1923 105.676 92.3203 105.324C92.4643 104.956 92.6643 104.684 92.9203 104.508C93.1923 104.332 93.5283 104.244 93.9283 104.244C94.2483 104.244 94.5123 104.3 94.7203 104.412C94.9283 104.524 95.0883 104.7 95.2003 104.94C95.3283 105.164 95.4163 105.46 95.4643 105.828H89.9203V108.084ZM114.912 105.444L115.032 100.764L102.672 108.804L102.552 113.484L114.912 105.444ZM106.992 101.604H102.552V113.484L106.992 109.644V101.604ZM115.032 100.764L110.592 104.604V112.644H115.032V100.764Z" fill="white"/>
<defs>
<clipPath id="clip0_1078_1753">
<rect width="48" height="48" fill="white" transform="translate(53 33.644)"/>
</clipPath>
</defs>
</svg>
