<svg width="154" height="155" viewBox="0 0 154 155" fill="none" xmlns="http://www.w3.org/2000/svg">
<rect y="0.644043" width="154" height="154" rx="10" fill="#BDA8DD"/>
<g clip-path="url(#clip0_1078_1770)">
<path d="M100.25 48.4565C102.305 48.4565 104.277 47.6499 105.73 46.2141C107.183 44.7783 108 42.8309 108 40.8003C108 38.7697 107.183 36.8223 105.73 35.3865C104.277 33.9507 102.305 33.144 100.25 33.144C98.1946 33.144 96.2233 33.9507 94.7699 35.3865C93.3165 36.8223 92.5 38.7697 92.5 40.8003C92.5 42.8309 93.3165 44.7783 94.7699 46.2141C96.2233 47.6499 98.1946 48.4565 100.25 48.4565ZM51.4153 82.144H82.9191H90.1847H102.081C105.355 82.144 108 79.5218 108 76.2966C108 75.2247 107.7 74.172 107.138 73.2532L94.3503 52.5526C93.9531 51.9114 93.2556 51.519 92.5 51.519C91.7444 51.519 91.0469 51.9114 90.6497 52.5431L85.9803 60.1036L73.7837 40.896C73.1444 39.8815 72.0109 39.269 70.8 39.269C69.5891 39.269 68.4653 39.8815 67.8162 40.896L46.8331 73.9519C46.2906 74.8036 46 75.7894 46 76.7942C46 79.7515 48.4219 82.144 51.4153 82.144Z" fill="#F7F4FB"/>
</g>
<path d="M33.8516 101.024V113.144H39.2516V96.344H23.7716V113.144H29.1716V101.024H33.8516ZM47.0441 118.424V102.104H42.3641V118.424H47.0441ZM55.9241 107.624C55.9241 106.264 55.6681 105.144 55.1561 104.264C54.6601 103.384 54.0201 102.728 53.2361 102.296C52.4681 101.848 51.6601 101.624 50.8121 101.624C49.8201 101.624 48.9721 101.88 48.2681 102.392C47.5801 102.888 47.0601 103.584 46.7081 104.48C46.3561 105.376 46.1801 106.424 46.1801 107.624C46.1801 108.808 46.3561 109.856 46.7081 110.768C47.0601 111.664 47.5801 112.368 48.2681 112.88C48.9721 113.376 49.8201 113.624 50.8121 113.624C51.6601 113.624 52.4681 113.408 53.2361 112.976C54.0201 112.528 54.6601 111.864 55.1561 110.984C55.6681 110.088 55.9241 108.968 55.9241 107.624ZM50.9801 107.624C50.9801 108.024 50.8921 108.368 50.7161 108.656C50.5401 108.944 50.3001 109.168 49.9961 109.328C49.7081 109.472 49.3801 109.544 49.0121 109.544C48.6921 109.544 48.3801 109.48 48.0761 109.352C47.7721 109.208 47.5241 109 47.3321 108.728C47.1401 108.44 47.0441 108.072 47.0441 107.624C47.0441 107.176 47.1401 106.816 47.3321 106.544C47.5241 106.256 47.7721 106.048 48.0761 105.92C48.3801 105.776 48.6921 105.704 49.0121 105.704C49.3801 105.704 49.7081 105.784 49.9961 105.944C50.3001 106.088 50.5401 106.304 50.7161 106.592C50.8921 106.864 50.9801 107.208 50.9801 107.624ZM70.1928 105.944L70.3128 101.264L57.9528 109.304L57.8328 113.984L70.1928 105.944ZM62.2728 102.104H57.8328V113.984L62.2728 110.144V102.104ZM70.3128 101.264L65.8728 105.104V113.144H70.3128V101.264ZM77.3956 118.424V102.104H72.7156V118.424H77.3956ZM86.2756 107.624C86.2756 106.264 86.0196 105.144 85.5076 104.264C85.0116 103.384 84.3716 102.728 83.5876 102.296C82.8196 101.848 82.0116 101.624 81.1636 101.624C80.1716 101.624 79.3236 101.88 78.6196 102.392C77.9316 102.888 77.4116 103.584 77.0596 104.48C76.7076 105.376 76.5316 106.424 76.5316 107.624C76.5316 108.808 76.7076 109.856 77.0596 110.768C77.4116 111.664 77.9316 112.368 78.6196 112.88C79.3236 113.376 80.1716 113.624 81.1636 113.624C82.0116 113.624 82.8196 113.408 83.5876 112.976C84.3716 112.528 85.0116 111.864 85.5076 110.984C86.0196 110.088 86.2756 108.968 86.2756 107.624ZM81.3316 107.624C81.3316 108.024 81.2436 108.368 81.0676 108.656C80.8916 108.944 80.6516 109.168 80.3476 109.328C80.0596 109.472 79.7316 109.544 79.3636 109.544C79.0436 109.544 78.7316 109.48 78.4276 109.352C78.1236 109.208 77.8756 109 77.6836 108.728C77.4916 108.44 77.3956 108.072 77.3956 107.624C77.3956 107.176 77.4916 106.816 77.6836 106.544C77.8756 106.256 78.1236 106.048 78.4276 105.92C78.7316 105.776 79.0436 105.704 79.3636 105.704C79.7316 105.704 80.0596 105.784 80.3476 105.944C80.6516 106.088 80.8916 106.304 81.0676 106.592C81.2436 106.864 81.3316 107.208 81.3316 107.624ZM87.7044 107.624C87.7044 108.808 87.9924 109.832 88.5684 110.696C89.1444 111.56 89.9364 112.224 90.9444 112.688C91.9524 113.152 93.0964 113.384 94.3764 113.384C95.6564 113.384 96.8004 113.152 97.8084 112.688C98.8164 112.224 99.6084 111.56 100.184 110.696C100.76 109.832 101.048 108.808 101.048 107.624C101.048 106.424 100.76 105.392 100.184 104.528C99.6084 103.664 98.8164 103 97.8084 102.536C96.8004 102.072 95.6564 101.84 94.3764 101.84C93.0964 101.84 91.9524 102.072 90.9444 102.536C89.9364 103 89.1444 103.664 88.5684 104.528C87.9924 105.392 87.7044 106.424 87.7044 107.624ZM92.5284 107.624C92.5284 107.176 92.6164 106.8 92.7924 106.496C92.9684 106.192 93.1924 105.96 93.4644 105.8C93.7524 105.64 94.0564 105.56 94.3764 105.56C94.6964 105.56 94.9924 105.64 95.2644 105.8C95.5524 105.96 95.7844 106.192 95.9604 106.496C96.1364 106.8 96.2244 107.176 96.2244 107.624C96.2244 108.072 96.1364 108.448 95.9604 108.752C95.7844 109.056 95.5524 109.288 95.2644 109.448C94.9924 109.592 94.6964 109.664 94.3764 109.664C94.0564 109.664 93.7524 109.592 93.4644 109.448C93.1924 109.288 92.9684 109.056 92.7924 108.752C92.6164 108.448 92.5284 108.072 92.5284 107.624ZM109.338 107.096L111.618 112.424L115.938 111.224L109.338 101.264L102.738 111.224L107.058 112.424L109.338 107.096ZM112.818 113.144V115.304H117.138V109.664H101.538V115.304H105.978V113.144H112.818ZM123.411 109.808C123.411 109.616 123.467 109.448 123.579 109.304C123.707 109.16 123.875 109.048 124.083 108.968C124.307 108.872 124.555 108.824 124.827 108.824C125.403 108.824 125.875 108.888 126.243 109.016C126.611 109.144 126.963 109.344 127.299 109.616V107.552C127.107 107.36 126.803 107.192 126.387 107.048C125.971 106.888 125.507 106.768 124.995 106.688C124.483 106.592 123.995 106.544 123.531 106.544C122.571 106.544 121.723 106.688 120.987 106.976C120.267 107.264 119.707 107.672 119.307 108.2C118.907 108.712 118.707 109.32 118.707 110.024C118.707 110.728 118.875 111.336 119.211 111.848C119.563 112.344 120.051 112.728 120.675 113C121.299 113.256 122.027 113.384 122.859 113.384C123.627 113.384 124.315 113.256 124.923 113C125.531 112.728 126.011 112.344 126.363 111.848C126.715 111.336 126.891 110.728 126.891 110.024L126.507 108.584C126.507 109.112 126.411 109.52 126.219 109.808C126.027 110.096 125.779 110.304 125.475 110.432C125.171 110.544 124.859 110.6 124.539 110.6C124.347 110.6 124.163 110.576 123.987 110.528C123.811 110.464 123.667 110.376 123.555 110.264C123.459 110.152 123.411 110 123.411 109.808ZM121.131 105.992C121.307 105.896 121.579 105.784 121.947 105.656C122.331 105.528 122.763 105.416 123.243 105.32C123.739 105.208 124.251 105.152 124.779 105.152C125.387 105.152 125.827 105.296 126.099 105.584C126.371 105.856 126.507 106.2 126.507 106.616V113.144H130.947V105.464C130.947 104.664 130.699 103.992 130.203 103.448C129.707 102.888 129.027 102.464 128.163 102.176C127.315 101.888 126.347 101.744 125.259 101.744C124.267 101.744 123.283 101.872 122.307 102.128C121.347 102.384 120.483 102.664 119.715 102.968L121.131 105.992Z" fill="white"/>
<defs>
<clipPath id="clip0_1078_1770">
<rect width="62" height="49" fill="white" transform="translate(46 33.144)"/>
</clipPath>
</defs>
</svg>
