<svg width="154" height="155" viewBox="0 0 154 155" fill="none" xmlns="http://www.w3.org/2000/svg">
<rect y="0.644043" width="154" height="154" rx="10" fill="#BDA8DD"/>
<g clip-path="url(#clip0_1078_1766)">
<path d="M61.8448 35.2656C62.5269 33.9249 64.0849 33.3062 65.4769 33.8218L77.0004 38.0968L88.5238 33.8218C89.9158 33.3062 91.4738 33.9249 92.156 35.2656L99.4204 49.5999C102.075 54.8312 100.37 61.0656 95.8712 64.2812L98.7658 72.3624L102.546 70.9562C104.076 70.3937 105.772 71.1906 106.325 72.7468C106.878 74.3031 106.095 76.0281 104.564 76.5906L98.0099 79.0187L91.4554 81.4562C89.9251 82.0281 88.2288 81.2218 87.6757 79.6656C87.1226 78.1093 87.9062 76.3843 89.4365 75.8218L93.2162 74.4156L90.3307 66.3343C84.8548 66.8218 79.6185 63.1468 78.3463 57.4093L77.0004 51.3437L75.6544 57.4093C74.3822 63.1562 69.146 66.8218 63.6701 66.3343L60.7846 74.4156L64.5643 75.8218C66.0946 76.3843 66.8874 78.1093 66.3251 79.6656C65.7627 81.2218 64.0757 82.0281 62.5454 81.4562L56.0001 79.0281L49.4455 76.5999C47.9152 76.0281 47.1224 74.3124 47.6847 72.7562C48.2471 71.1999 49.9341 70.3937 51.4644 70.9656L55.2441 72.3718L58.1296 64.2906C53.6308 61.0656 51.9346 54.8312 54.5896 49.5999L61.8448 35.2656ZM65.901 40.3656L63.3935 45.3156L71.6166 48.3624L72.8243 42.9343L65.901 40.3656ZM88.109 40.3656L81.1857 42.9343L82.3933 48.3624L90.6165 45.3156L88.109 40.3656Z" fill="#F7F4FB"/>
</g>
<path d="M46.3566 106.044H53.1486C53.5486 106.044 53.8766 106.084 54.1326 106.164C54.3886 106.244 54.5806 106.372 54.7086 106.548C54.8366 106.724 54.9006 106.956 54.9006 107.244C54.9006 107.532 54.8366 107.764 54.7086 107.94C54.5806 108.116 54.3886 108.244 54.1326 108.324C53.8766 108.404 53.5486 108.444 53.1486 108.444H46.3566V112.644H54.5886C55.6766 112.644 56.6446 112.412 57.4926 111.948C58.3566 111.468 59.0366 110.82 59.5326 110.004C60.0446 109.188 60.3006 108.268 60.3006 107.244C60.3006 106.204 60.0446 105.292 59.5326 104.508C59.0366 103.708 58.3566 103.084 57.4926 102.636C56.6446 102.188 55.6766 101.964 54.5886 101.964H46.3566V106.044ZM45.2286 95.844V112.644H50.6286V100.044H59.0286V95.844H45.2286ZM66.4457 109.308C66.4457 109.116 66.5017 108.948 66.6137 108.804C66.7417 108.66 66.9097 108.548 67.1177 108.468C67.3417 108.372 67.5897 108.324 67.8617 108.324C68.4377 108.324 68.9097 108.388 69.2777 108.516C69.6457 108.644 69.9977 108.844 70.3337 109.116V107.052C70.1417 106.86 69.8377 106.692 69.4217 106.548C69.0057 106.388 68.5417 106.268 68.0297 106.188C67.5177 106.092 67.0297 106.044 66.5657 106.044C65.6057 106.044 64.7577 106.188 64.0217 106.476C63.3017 106.764 62.7417 107.172 62.3417 107.7C61.9417 108.212 61.7417 108.82 61.7417 109.524C61.7417 110.228 61.9097 110.836 62.2457 111.348C62.5977 111.844 63.0857 112.228 63.7097 112.5C64.3337 112.756 65.0617 112.884 65.8937 112.884C66.6617 112.884 67.3497 112.756 67.9577 112.5C68.5657 112.228 69.0457 111.844 69.3977 111.348C69.7497 110.836 69.9257 110.228 69.9257 109.524L69.5417 108.084C69.5417 108.612 69.4457 109.02 69.2537 109.308C69.0617 109.596 68.8137 109.804 68.5097 109.932C68.2057 110.044 67.8937 110.1 67.5737 110.1C67.3817 110.1 67.1977 110.076 67.0217 110.028C66.8457 109.964 66.7017 109.876 66.5897 109.764C66.4937 109.652 66.4457 109.5 66.4457 109.308ZM64.1657 105.492C64.3417 105.396 64.6137 105.284 64.9817 105.156C65.3657 105.028 65.7977 104.916 66.2777 104.82C66.7737 104.708 67.2857 104.652 67.8137 104.652C68.4217 104.652 68.8617 104.796 69.1337 105.084C69.4057 105.356 69.5417 105.7 69.5417 106.116V112.644H73.9817V104.964C73.9817 104.164 73.7337 103.492 73.2377 102.948C72.7417 102.388 72.0617 101.964 71.1977 101.676C70.3497 101.388 69.3817 101.244 68.2937 101.244C67.3017 101.244 66.3177 101.372 65.3417 101.628C64.3817 101.884 63.5177 102.164 62.7497 102.468L64.1657 105.492ZM81.0636 117.924V101.604H76.3836V117.924H81.0636ZM89.9436 107.124C89.9436 105.764 89.6876 104.644 89.1756 103.764C88.6796 102.884 88.0396 102.228 87.2556 101.796C86.4876 101.348 85.6796 101.124 84.8316 101.124C83.8396 101.124 82.9916 101.38 82.2876 101.892C81.5996 102.388 81.0796 103.084 80.7276 103.98C80.3756 104.876 80.1996 105.924 80.1996 107.124C80.1996 108.308 80.3756 109.356 80.7276 110.268C81.0796 111.164 81.5996 111.868 82.2876 112.38C82.9916 112.876 83.8396 113.124 84.8316 113.124C85.6796 113.124 86.4876 112.908 87.2556 112.476C88.0396 112.028 88.6796 111.364 89.1756 110.484C89.6876 109.588 89.9436 108.468 89.9436 107.124ZM84.9996 107.124C84.9996 107.524 84.9116 107.868 84.7356 108.156C84.5596 108.444 84.3196 108.668 84.0156 108.828C83.7276 108.972 83.3996 109.044 83.0316 109.044C82.7116 109.044 82.3996 108.98 82.0956 108.852C81.7916 108.708 81.5436 108.5 81.3516 108.228C81.1596 107.94 81.0636 107.572 81.0636 107.124C81.0636 106.676 81.1596 106.316 81.3516 106.044C81.5436 105.756 81.7916 105.548 82.0956 105.42C82.3996 105.276 82.7116 105.204 83.0316 105.204C83.3996 105.204 83.7276 105.284 84.0156 105.444C84.3196 105.588 84.5596 105.804 84.7356 106.092C84.9116 106.364 84.9996 106.708 84.9996 107.124ZM104.812 101.604V112.644H109.492V101.604H104.812ZM91.8523 101.604V112.644H96.5323V101.604H91.8523ZM95.7403 107.82H98.1403C98.3643 107.82 98.5403 107.884 98.6683 108.012C98.8123 108.14 98.8843 108.3 98.8843 108.492C98.8843 108.62 98.8523 108.74 98.7883 108.852C98.7243 108.948 98.6363 109.028 98.5243 109.092C98.4123 109.14 98.2843 109.164 98.1403 109.164H95.7403V112.644H99.1723C99.9403 112.644 100.628 112.468 101.236 112.116C101.844 111.748 102.324 111.252 102.676 110.628C103.028 109.988 103.204 109.276 103.204 108.492C103.204 107.308 102.812 106.444 102.028 105.9C101.26 105.34 100.308 105.06 99.1723 105.06H95.7403V107.82Z" fill="white"/>
<defs>
<clipPath id="clip0_1078_1766">
<rect width="59" height="48" fill="white" transform="translate(47.5 33.644)"/>
</clipPath>
</defs>
</svg>
