<svg width="154" height="155" viewBox="0 0 154 155" fill="none" xmlns="http://www.w3.org/2000/svg">
<rect y="0.644043" width="154" height="154" rx="10" fill="#BDA8DD"/>
<g clip-path="url(#clip0_1078_1757)">
<path d="M54.5 33.644H66.5C66.9968 33.644 67.4656 33.8972 67.7468 34.3097L75.35 45.7097C70.7093 46.094 66.5375 48.1097 63.3875 51.1753L53.2531 35.9784C52.9437 35.519 52.9156 34.9284 53.1781 34.4409C53.4406 33.9534 53.9468 33.644 54.5 33.644ZM100.747 35.9784L90.6125 51.1847C87.4718 48.119 83.2906 46.1034 78.65 45.719L86.2531 34.3097C86.5343 33.8878 87.0031 33.644 87.5 33.644H99.5C100.053 33.644 100.559 33.944 100.822 34.4409C101.084 34.9378 101.056 35.519 100.747 35.9784ZM93.5 65.144C93.5 74.2565 86.1125 81.644 77 81.644C67.8875 81.644 60.5 74.2565 60.5 65.144C60.5 56.0315 67.8875 48.644 77 48.644C86.1125 48.644 93.5 56.0315 93.5 65.144ZM77.7875 56.2472C77.4687 55.5909 76.5406 55.5909 76.2125 56.2472L74.1125 60.5034C73.9812 60.7659 73.7375 60.944 73.4562 60.9815L68.75 61.6659C68.0281 61.769 67.7468 62.6503 68.2625 63.1659L71.6656 66.4847C71.8718 66.6909 71.9656 66.9722 71.9187 67.2628L71.1125 71.9409C70.9906 72.6534 71.7406 73.2065 72.3875 72.869L76.5875 70.6565C76.8406 70.5253 77.15 70.5253 77.4031 70.6565L81.6031 72.869C82.25 73.2065 83 72.6628 82.8781 71.9409L82.0718 67.2628C82.025 66.9815 82.1187 66.6909 82.325 66.4847L85.7281 63.1659C86.2531 62.6597 85.9625 61.7784 85.2406 61.6659L80.5437 60.9815C80.2625 60.944 80.0093 60.7565 79.8875 60.5034L77.7875 56.2472Z" fill="#F7F4FB"/>
</g>
<path d="M48.2311 104.244C48.2311 103.38 48.4231 102.66 48.8071 102.084C49.2071 101.492 49.7271 101.052 50.3671 100.764C51.0231 100.476 51.7431 100.332 52.5271 100.332C53.3271 100.332 54.0151 100.436 54.5911 100.644C55.1671 100.836 55.6711 101.092 56.1031 101.412C56.5511 101.732 56.9511 102.06 57.3031 102.396V96.972C56.6471 96.508 55.9271 96.124 55.1431 95.82C54.3751 95.516 53.3751 95.364 52.1431 95.364C50.6871 95.364 49.3591 95.572 48.1591 95.988C46.9591 96.404 45.9351 97.004 45.0871 97.788C44.2391 98.572 43.5831 99.508 43.1191 100.596C42.6551 101.684 42.4231 102.9 42.4231 104.244C42.4231 105.588 42.6551 106.804 43.1191 107.892C43.5831 108.98 44.2391 109.916 45.0871 110.7C45.9351 111.484 46.9591 112.084 48.1591 112.5C49.3591 112.916 50.6871 113.124 52.1431 113.124C53.3751 113.124 54.3751 112.964 55.1431 112.644C55.9271 112.34 56.6471 111.964 57.3031 111.516V106.092C56.9511 106.428 56.5511 106.756 56.1031 107.076C55.6711 107.38 55.1671 107.636 54.5911 107.844C54.0151 108.052 53.3271 108.156 52.5271 108.156C51.7431 108.156 51.0231 108.012 50.3671 107.724C49.7271 107.436 49.2071 107.004 48.8071 106.428C48.4231 105.836 48.2311 105.108 48.2311 104.244ZM72.0622 101.604H59.9422V112.644H64.3822V105.564H67.6222V112.644H72.0622V101.604ZM73.9934 107.124C73.9934 108.308 74.2814 109.332 74.8574 110.196C75.4334 111.06 76.2254 111.724 77.2334 112.188C78.2414 112.652 79.3854 112.884 80.6654 112.884C81.9454 112.884 83.0894 112.652 84.0974 112.188C85.1054 111.724 85.8974 111.06 86.4734 110.196C87.0494 109.332 87.3374 108.308 87.3374 107.124C87.3374 105.924 87.0494 104.892 86.4734 104.028C85.8974 103.164 85.1054 102.5 84.0974 102.036C83.0894 101.572 81.9454 101.34 80.6654 101.34C79.3854 101.34 78.2414 101.572 77.2334 102.036C76.2254 102.5 75.4334 103.164 74.8574 104.028C74.2814 104.892 73.9934 105.924 73.9934 107.124ZM78.8174 107.124C78.8174 106.676 78.9054 106.3 79.0814 105.996C79.2574 105.692 79.4814 105.46 79.7534 105.3C80.0414 105.14 80.3454 105.06 80.6654 105.06C80.9854 105.06 81.2814 105.14 81.5534 105.3C81.8414 105.46 82.0734 105.692 82.2494 105.996C82.4254 106.3 82.5134 106.676 82.5134 107.124C82.5134 107.572 82.4254 107.948 82.2494 108.252C82.0734 108.556 81.8414 108.788 81.5534 108.948C81.2814 109.092 80.9854 109.164 80.6654 109.164C80.3454 109.164 80.0414 109.092 79.7534 108.948C79.4814 108.788 79.2574 108.556 79.0814 108.252C78.9054 107.948 78.8174 107.572 78.8174 107.124ZM93.9425 117.924V101.604H89.2625V117.924H93.9425ZM102.823 107.124C102.823 105.764 102.567 104.644 102.055 103.764C101.559 102.884 100.919 102.228 100.135 101.796C99.3665 101.348 98.5585 101.124 97.7105 101.124C96.7185 101.124 95.8705 101.38 95.1665 101.892C94.4785 102.388 93.9585 103.084 93.6065 103.98C93.2545 104.876 93.0785 105.924 93.0785 107.124C93.0785 108.308 93.2545 109.356 93.6065 110.268C93.9585 111.164 94.4785 111.868 95.1665 112.38C95.8705 112.876 96.7185 113.124 97.7105 113.124C98.5585 113.124 99.3665 112.908 100.135 112.476C100.919 112.028 101.559 111.364 102.055 110.484C102.567 109.588 102.823 108.468 102.823 107.124ZM97.8785 107.124C97.8785 107.524 97.7905 107.868 97.6145 108.156C97.4385 108.444 97.1985 108.668 96.8945 108.828C96.6065 108.972 96.2785 109.044 95.9105 109.044C95.5905 109.044 95.2785 108.98 94.9745 108.852C94.6705 108.708 94.4225 108.5 94.2305 108.228C94.0385 107.94 93.9425 107.572 93.9425 107.124C93.9425 106.676 94.0385 106.316 94.2305 106.044C94.4225 105.756 94.6705 105.548 94.9745 105.42C95.2785 105.276 95.5905 105.204 95.9105 105.204C96.2785 105.204 96.6065 105.284 96.8945 105.444C97.1985 105.588 97.4385 105.804 97.6145 106.092C97.7905 106.364 97.8785 106.708 97.8785 107.124ZM103.651 101.604V105.324H112.171V101.604H103.651ZM105.691 102.084V112.644H110.131V102.084H105.691Z" fill="white"/>
<defs>
<clipPath id="clip0_1078_1757">
<rect width="48" height="48" fill="white" transform="translate(53 33.644)"/>
</clipPath>
</defs>
</svg>
