<svg width="158" height="167" viewBox="0 0 158 167" fill="none" xmlns="http://www.w3.org/2000/svg">
<circle cx="54.1014" cy="102.092" r="33.5" transform="rotate(-15.56 54.1014 102.092)" stroke="#BDA8DD" stroke-width="4"/>
<path d="M32.4948 105.496L31.3167 101.265L39.9793 97.0345L44.5824 113.566L39.7271 114.918L36.5081 103.357L32.4948 105.496ZM44.9769 100.227C44.6979 99.2251 44.7479 98.3309 45.1268 97.5444C45.5169 96.7382 46.1314 96.0523 46.9703 95.4865C47.805 94.9053 48.7618 94.4644 49.8408 94.164C50.9198 93.8636 51.9667 93.7464 52.9816 93.8126C53.9923 93.8633 54.8652 94.1352 55.6004 94.628C56.3466 95.1012 56.8593 95.8387 57.1382 96.8406C57.3614 97.6421 57.3619 98.3893 57.1396 99.0824C56.9285 99.7557 56.5662 100.363 56.0527 100.905C55.5502 101.427 54.9681 101.871 54.3063 102.238C53.6445 102.605 52.9822 102.881 52.3194 103.065C51.6566 103.25 50.9471 103.356 50.1909 103.384C49.4346 103.412 48.6989 103.334 47.9836 103.152C47.2795 102.949 46.6554 102.616 46.1112 102.153C45.5782 101.671 45.2001 101.028 44.9769 100.227ZM49.8685 99.3631C49.9457 99.6406 50.0683 99.8722 50.2363 100.058C50.4 100.228 50.5992 100.347 50.8339 100.415C51.0686 100.482 51.317 100.479 51.579 100.407C51.8565 100.329 52.0705 100.203 52.2212 100.028C52.3872 99.8493 52.4963 99.6445 52.5484 99.4141C52.5962 99.1683 52.5815 98.9066 52.5042 98.6292C52.4269 98.3518 52.3065 98.1279 52.1428 97.9575C51.9748 97.7718 51.7756 97.6529 51.5452 97.6008C51.3302 97.5444 51.0839 97.5548 50.8065 97.6321C50.5445 97.705 50.3283 97.8233 50.1579 97.987C49.9876 98.1507 49.8785 98.3555 49.8307 98.6013C49.7786 98.8317 49.7912 99.0857 49.8685 99.3631ZM46.5942 108.272C46.3367 107.347 46.3379 106.516 46.5978 105.78C46.8577 105.043 47.2753 104.395 47.8505 103.836C48.4368 103.258 49.0938 102.784 49.8216 102.416C50.545 102.031 51.2382 101.747 51.9009 101.563C52.5637 101.378 53.3041 101.263 54.122 101.218C54.9356 101.158 55.7351 101.226 56.5206 101.422C57.3172 101.599 58.0172 101.936 58.6204 102.432C59.2237 102.928 59.6541 103.639 59.9116 104.564C60.1348 105.365 60.1472 106.126 59.949 106.845C59.7465 107.549 59.3773 108.192 58.8415 108.773C58.3211 109.35 57.6881 109.85 56.9424 110.273C56.2164 110.708 55.4372 111.041 54.6049 111.273C53.7726 111.505 52.9256 111.624 52.064 111.632C51.2221 111.65 50.4217 111.549 49.6627 111.329C48.9192 111.104 48.2787 110.743 47.7414 110.245C47.1998 109.731 46.8174 109.073 46.5942 108.272ZM51.4785 106.04C51.5772 106.394 51.7226 106.678 51.9146 106.89C52.1177 107.083 52.352 107.208 52.6175 107.267C52.8831 107.326 53.17 107.313 53.4782 107.227C53.7865 107.141 54.0391 107.004 54.236 106.817C54.4328 106.629 54.5607 106.402 54.6197 106.137C54.6897 105.852 54.6754 105.532 54.5767 105.177C54.4994 104.9 54.3592 104.665 54.1561 104.472C53.9684 104.275 53.7418 104.147 53.4763 104.089C53.2064 104.014 52.9174 104.02 52.6091 104.106C52.3008 104.192 52.0504 104.336 51.8578 104.539C51.661 104.727 51.5254 104.956 51.451 105.225C51.3921 105.491 51.4013 105.762 51.4785 106.04ZM62.5976 103.94L61.4065 99.6631L74.8164 95.929L76.0074 100.206L62.5976 103.94ZM64.544 93.9314L69.1681 92.6438L72.8699 105.938L68.2458 107.226L64.544 93.9314Z" fill="#BDA8DD"/>
<path d="M93.8939 88.9277C118.275 89.157 146.116 62.8103 147.176 31.9052M147.176 31.9052C143.33 30.8026 129.93 39.4436 129.93 39.4436M147.176 31.9052C150.059 32.7321 154.442 46.4723 154.442 46.4723" stroke="#BDA8DD" stroke-width="2"/>
</svg>
