<svg width="26" height="28" viewBox="0 0 26 28" fill="none" xmlns="http://www.w3.org/2000/svg">
<path d="M14.8571 4.375C14.8571 3.40703 14.0272 2.625 13 2.625C11.9728 2.625 11.1428 3.40703 11.1428 4.375V12.25H2.7857C1.75847 12.25 0.928558 13.032 0.928558 14C0.928558 14.968 1.75847 15.75 2.7857 15.75H11.1428V23.625C11.1428 24.593 11.9728 25.375 13 25.375C14.0272 25.375 14.8571 24.593 14.8571 23.625V15.75H23.2143C24.2415 15.75 25.0714 14.968 25.0714 14C25.0714 13.032 24.2415 12.25 23.2143 12.25H14.8571V4.375Z" fill="white"/>
</svg>
