<svg width="15" height="15" viewBox="0 0 15 15" fill="none" xmlns="http://www.w3.org/2000/svg">
<g clip-path="url(#clip0_1056_1799)">
<path d="M1.80156 8.71384L6.74258 13.3267C6.94766 13.5181 7.21836 13.6248 7.5 13.6248C7.78164 13.6248 8.05234 13.5181 8.25742 13.3267L13.1984 8.71384C14.0297 7.94001 14.5 6.85447 14.5 5.7197V5.56111C14.5 3.64978 13.1191 2.02009 11.2352 1.70564C9.98828 1.49783 8.71953 1.90525 7.82812 2.79666L7.5 3.12478L7.17188 2.79666C6.28047 1.90525 5.01172 1.49783 3.76484 1.70564C1.88086 2.02009 0.5 3.64978 0.5 5.56111V5.7197C0.5 6.85447 0.970312 7.94001 1.80156 8.71384Z" fill="#F7F4FB"/>
</g>
<defs>
<clipPath id="clip0_1056_1799">
<rect width="14" height="14" fill="white" transform="translate(0.5 0.5)"/>
</clipPath>
</defs>
</svg>
