<svg width="30" height="32" viewBox="0 0 30 32" fill="none" xmlns="http://www.w3.org/2000/svg">
<path d="M26.25 16C26.25 13.0447 25.0647 10.2105 22.9549 8.1208C20.8451 6.03111 17.9836 4.85713 15 4.85713C12.0163 4.85713 9.1548 6.03111 7.04501 8.1208C4.93523 10.2105 3.74996 13.0447 3.74996 16C3.74996 18.9553 4.93523 21.7895 7.04501 23.8792C9.1548 25.9689 12.0163 27.1429 15 27.1429C17.9836 27.1429 20.8451 25.9689 22.9549 23.8792C25.0647 21.7895 26.25 18.9553 26.25 16ZM1.15381 16C1.15381 12.3627 2.6126 8.87445 5.20925 6.30253C7.80591 3.7306 11.3277 2.28571 15 2.28571C18.6722 2.28571 22.194 3.7306 24.7907 6.30253C27.3873 8.87445 28.8461 12.3627 28.8461 16C28.8461 19.6372 27.3873 23.1255 24.7907 25.6975C22.194 28.2694 18.6722 29.7143 15 29.7143C11.3277 29.7143 7.80591 28.2694 5.20925 25.6975C2.6126 23.1255 1.15381 19.6372 1.15381 16ZM11.3383 10.1661C11.7494 9.94106 12.247 9.94642 12.6526 10.1928L20.4411 14.9071C20.8251 15.1428 21.0631 15.5553 21.0631 16.0054C21.0631 16.4553 20.8251 16.8679 20.4411 17.1036L12.6526 21.8179C12.2524 22.0589 11.7494 22.0696 11.3383 21.8446C10.9272 21.6196 10.673 21.1911 10.673 20.725V11.2857C10.673 10.8196 10.9272 10.3911 11.3383 10.1661Z" fill="#BDA8DD"/>
</svg>
