<svg width="154" height="154" viewBox="0 0 154 154" fill="none" xmlns="http://www.w3.org/2000/svg">
<rect width="154" height="154" rx="10" fill="#BDA8DD"/>
<path d="M70.3567 24.0298C71.1576 23.3169 72.4 23.3267 73.2009 24.0395C76.0348 26.5687 78.6942 29.2932 81.179 32.2423C82.3085 30.8361 83.592 29.303 84.9781 28.053C85.7893 27.3304 87.042 27.3304 87.8531 28.0628C91.4058 31.2853 94.4143 35.5429 96.5295 39.5857C98.6138 43.5698 100 47.6419 100 50.5129C100 62.9732 89.7527 73.5 77 73.5C64.1036 73.5 54 62.9634 54 50.5031C54 46.7533 55.8277 42.1734 58.6616 37.6424C61.5263 33.043 65.5719 28.2483 70.3567 24.0298ZM77.1746 64.1255C79.7723 64.1255 82.0723 63.4419 84.2388 62.0748C88.5616 59.2038 89.7219 53.4619 87.1241 48.9504C86.6621 48.0716 85.4813 48.013 84.8138 48.7551L82.2263 51.6163C81.5487 52.3585 80.3268 52.3389 79.6902 51.5675C77.996 49.5168 74.967 45.8549 73.242 43.7749C72.5951 42.9937 71.3629 42.9839 70.7058 43.7651C67.2353 47.9153 65.4897 50.5324 65.4897 53.4717C65.5 60.1608 70.6955 64.1255 77.1746 64.1255Z" fill="#F7F4FB"/>
<path d="M55.364 95.144C54.968 95.828 54.464 96.8 54.176 97.7C53.204 100.94 51.152 105.728 47.876 109.724C44.456 113.9 40.136 117.212 33.368 119.876L29.12 116.096C36.464 113.864 40.46 110.732 43.628 107.168C46.076 104.36 48.164 100.04 48.74 97.376H36.608L38.264 93.272C39.848 93.272 47.408 93.272 48.524 93.272C49.64 93.272 50.864 93.128 51.656 92.84L55.364 95.144ZM43.628 89.42C42.764 90.68 41.828 92.336 41.432 93.092C38.984 97.448 34.7 102.524 29.516 106.052L25.484 103.064C31.784 99.212 34.952 94.568 36.716 91.472C37.256 90.608 38.012 88.952 38.336 87.692L43.628 89.42ZM67.028 89.888C68 90.032 69.548 90.104 70.772 90.104C73.04 90.104 82.508 90.104 84.596 90.104C85.748 90.104 87.512 90.032 88.484 89.888V94.568C87.548 94.496 85.856 94.424 84.524 94.424C82.544 94.424 72.896 94.424 70.772 94.424C69.584 94.424 68.072 94.46 67.028 94.568V89.888ZM91.544 100.364C91.292 100.832 90.968 101.48 90.86 101.84C89.744 105.332 88.196 108.86 85.532 111.812C81.896 115.88 77.288 118.292 72.68 119.624L69.08 115.556C74.516 114.404 78.8 112.064 81.572 109.22C83.48 107.276 84.632 105.008 85.244 103.028C83.444 103.028 71.096 103.028 67.892 103.028C66.992 103.028 65.192 103.064 63.68 103.172V98.492C65.228 98.636 66.74 98.744 67.892 98.744C70.34 98.744 83.228 98.744 85.676 98.744C86.864 98.744 87.836 98.6 88.34 98.348L91.544 100.364ZM122.324 87.188C123.224 88.556 124.412 90.608 125.06 91.94L122.072 93.2C121.352 91.688 120.272 89.852 119.336 88.412L122.324 87.188ZM127.328 86.252C128.264 87.584 129.524 89.744 130.208 91.04L127.22 92.3C126.464 90.824 125.348 88.808 124.34 87.476L127.328 86.252ZM126.032 93.956C125.708 94.64 125.42 95.684 125.24 96.44C124.412 99.968 122.828 105.584 119.84 109.58C116.564 113.9 111.776 117.464 105.368 119.516L101.444 115.196C108.572 113.54 112.64 110.408 115.52 106.772C117.932 103.784 119.3 99.68 119.768 96.584C117.608 96.584 105.692 96.584 102.992 96.584C101.372 96.584 99.644 96.692 98.708 96.764V91.652C99.788 91.796 101.804 91.976 102.992 91.976C105.692 91.976 117.644 91.976 119.66 91.976C120.38 91.976 121.532 91.94 122.468 91.688L126.032 93.956Z" fill="white"/>
</svg>
