<svg width="154" height="154" viewBox="0 0 154 154" fill="none" xmlns="http://www.w3.org/2000/svg">
<rect width="154" height="154" rx="10" fill="#BDA8DD"/>
<g clip-path="url(#clip0_1252_2086)">
<path d="M58.5 27.0625C58.5 25.3686 59.8779 24 61.5833 24H64.6667H89.3333H92.4167C94.1221 24 95.5 25.3686 95.5 27.0625C95.5 28.7564 94.1221 30.125 92.4167 30.125V31.1777C92.4167 35.2355 90.7883 39.1307 87.8977 42.0018L81.3648 48.5L87.9073 54.9982C90.7979 57.8693 92.4263 61.7645 92.4263 65.8223V66.875C94.1318 66.875 95.5096 68.2436 95.5096 69.9375C95.5096 71.6314 94.1318 73 92.4263 73H89.3333H64.6667H61.5833C59.8779 73 58.5 71.6314 58.5 69.9375C58.5 68.2436 59.8779 66.875 61.5833 66.875V65.8223C61.5833 61.7645 63.2117 57.8693 66.1023 54.9982L72.6352 48.5L66.1023 42.0018C63.2117 39.1307 61.5833 35.2355 61.5833 31.1777V30.125C59.8779 30.125 58.5 28.7564 58.5 27.0625ZM67.75 30.125V31.1777C67.75 33.6182 68.7232 35.9533 70.4576 37.676L77 44.1646L83.5424 37.6664C85.2768 35.9438 86.25 33.6086 86.25 31.1682V30.125H67.75ZM67.75 66.875H86.25V65.8223C86.25 63.3818 85.2768 61.0467 83.5424 59.324L77 52.8354L70.4576 59.3336C68.7232 61.0563 67.75 63.3914 67.75 65.8318V66.8846V66.875Z" fill="#F7F4FB"/>
</g>
<path d="M47.444 87.732H75.236V91.62H47.444V87.732ZM47.732 115.74H75.416V119.592H47.732V115.74ZM62.24 109.368H72.392V113.076H62.24V109.368ZM49.712 95.004H60.908V98.244H49.712V95.004ZM44.6 87.732H48.668V98.856C48.668 105.012 48.236 114.228 45.32 120.168C44.528 119.556 42.728 118.548 41.684 118.188C44.384 112.644 44.6 104.544 44.6 98.856V87.732ZM53.636 92.124H57.2V106.848H53.636V92.124ZM59.792 106.236H64.004V118.188H59.792V106.236ZM51.764 108.936H55.796V117.756H51.764V108.936ZM53.672 96.804L56.012 97.596C54.824 100.944 52.592 104.544 50.36 106.416C49.784 105.66 48.74 104.436 47.984 103.86C50.18 102.384 52.484 99.468 53.672 96.804ZM61.772 95.004H74.66V98.244H61.772V95.004ZM65.84 92.124H69.44V106.848H65.84V92.124ZM65.696 96.804L68.036 97.596C66.812 100.8 64.616 104.22 62.384 106.02C61.808 105.228 60.728 104.04 60.008 103.428C62.204 102.06 64.508 99.324 65.696 96.804ZM57.056 98.568C57.848 99 60.368 100.692 61.016 101.16L58.928 103.824C58.064 102.816 56.012 100.908 55.004 100.08L57.056 98.568ZM69.656 96.912C70.916 99.468 73.364 102.024 76.028 103.248C75.236 103.932 74.156 105.228 73.58 106.128C70.844 104.4 68.468 101.052 67.172 97.668L69.656 96.912ZM92.804 86.616H97.268V102.672C97.268 110.484 94.748 117.288 80.708 120.348C80.204 119.376 79.016 117.468 78.08 116.496C91.364 114.156 92.804 109.008 92.804 102.636V86.616ZM85.136 95.796V100.836H104.792V95.796H85.136ZM80.924 91.62H109.256V104.976H80.924V91.62ZM86.36 105.372C91.076 113.976 98.96 115.236 112.28 115.416C111.452 116.46 110.552 118.404 110.3 119.916C96.476 119.268 87.512 117.144 82.364 106.812L86.36 105.372Z" fill="white"/>
<defs>
<clipPath id="clip0_1252_2086">
<rect width="37" height="49" fill="white" transform="translate(58.5 24)"/>
</clipPath>
</defs>
</svg>
