<svg width="154" height="154" viewBox="0 0 154 154" fill="none" xmlns="http://www.w3.org/2000/svg">
<rect width="154" height="154" rx="10" fill="#BDA8DD"/>
<g clip-path="url(#clip0_1252_2090)">
<path d="M75.8187 24.7437L54.8187 33.7437C53.5062 34.3062 52.775 35.7125 53.0656 37.1C53.3562 38.4875 54.575 39.5 56 39.5V40.25C56 41.4968 57.0031 42.5 58.25 42.5H95.75C96.9969 42.5 98 41.4968 98 40.25V39.5C99.425 39.5 100.653 38.4968 100.934 37.1C101.216 35.7031 100.484 34.2968 99.1813 33.7437L78.1813 24.7437C77.4219 24.425 76.5687 24.425 75.8187 24.7437ZM65 45.5H59V63.9031C58.9437 63.9312 58.8875 63.9687 58.8312 64.0062L54.3312 67.0062C53.2344 67.7375 52.7375 69.1062 53.1219 70.3718C53.5062 71.6375 54.6781 72.5 56 72.5H98C99.3219 72.5 100.484 71.6375 100.869 70.3718C101.253 69.1062 100.766 67.7375 99.6594 67.0062L95.1594 64.0062C95.1031 63.9687 95.0469 63.9406 94.9906 63.9031V45.5H89V63.5H85.25V45.5H79.25V63.5H74.75V45.5H68.75V63.5H65V45.5ZM77 30.5C77.7956 30.5 78.5587 30.816 79.1213 31.3786C79.6839 31.9412 80 32.7043 80 33.5C80 34.2956 79.6839 35.0587 79.1213 35.6213C78.5587 36.1839 77.7956 36.5 77 36.5C76.2044 36.5 75.4413 36.1839 74.8787 35.6213C74.3161 35.0587 74 34.2956 74 33.5C74 32.7043 74.3161 31.9412 74.8787 31.3786C75.4413 30.816 76.2044 30.5 77 30.5Z" fill="#F7F4FB"/>
</g>
<path d="M35.168 89.788H57.668V93.136H35.168V89.788ZM34.484 107.824H57.992V111.28H34.484V107.824ZM24.08 94.972H35.852V98.896H24.08V94.972ZM28.004 85.936H32.216V119.74H28.004V85.936ZM44.312 85.936H48.452V104.62H44.312V85.936ZM48.668 105.484H52.772V115.816C52.772 117.688 52.412 118.624 51.116 119.2C49.784 119.74 48.02 119.776 45.608 119.776C45.428 118.696 44.924 117.22 44.42 116.212C45.86 116.248 47.552 116.248 48.02 116.248C48.524 116.248 48.668 116.14 48.668 115.708V105.484ZM37.652 112.792L40.568 110.704C42.152 112 44.132 113.908 45.068 115.24L41.972 117.58C41.18 116.212 39.272 114.196 37.652 112.792ZM49.64 88.06L51.512 85.828C53.096 86.512 55.22 87.7 56.3 88.492L54.32 90.976C53.276 90.112 51.224 88.852 49.64 88.06ZM40.676 101.668V103.396H52.34V101.668H40.676ZM40.676 97.42V99.076H52.34V97.42H40.676ZM36.86 94.612H56.336V106.168H36.86V94.612ZM77.576 85.936L81.464 86.692C80.168 92.668 77.792 98.392 74.876 101.992C74.192 101.344 72.5 100.12 71.6 99.58C74.48 96.412 76.496 91.264 77.576 85.936ZM89.672 91.552H93.74C93.74 91.552 93.704 92.956 93.668 93.496C92.984 109.66 92.336 115.564 90.968 117.364C90.14 118.588 89.348 119.02 88.16 119.236C87.152 119.452 85.64 119.452 84.056 119.38C83.948 118.156 83.516 116.32 82.868 115.132C84.2 115.276 85.424 115.312 86.108 115.312C86.648 115.312 86.972 115.132 87.404 114.628C88.412 113.368 89.096 107.788 89.672 92.488V91.552ZM78.656 91.552H91.508V95.548H76.676L78.656 91.552ZM81.176 92.848L84.308 94.396C82.868 100.588 79.7 107.716 75.776 111.388C74.948 110.56 73.58 109.552 72.464 108.94C76.64 105.664 79.808 98.896 81.176 92.848ZM86.18 93.244L89.528 94.792C87.8 104.152 83.984 113.944 78.044 118.912C77.216 118.048 75.704 116.968 74.516 116.392C80.816 111.892 84.524 102.496 86.18 93.244ZM59.936 105.556C63.464 104.764 68.72 103.288 73.688 101.884L74.264 105.7C69.728 107.104 64.796 108.58 60.98 109.696L59.936 105.556ZM66.416 85.936H70.376V119.74H66.416V85.936ZM61.664 87.988L65.264 88.6C64.796 93.352 63.932 98.392 62.636 101.596C61.988 101.092 60.44 100.084 59.576 99.652C60.728 96.772 61.34 92.272 61.664 87.988ZM62.636 92.884H73.364V97.024H61.844L62.636 92.884ZM115.124 114.448H127.076V118.084H115.124V114.448ZM113.432 95.764H117.32V119.74H113.432V95.764ZM115.124 95.764H127.148V105.52H115.124V102.1H123.188V99.184H115.124V95.764ZM111.38 89.752H129.488V96.484H125.456V93.208H115.232V96.484H111.38V89.752ZM118.112 85.9H122.324V91.48H118.112V85.9ZM115.124 107.788H128.696V119.56H124.7V111.316H115.124V107.788ZM102.992 92.776H106.556V97.276H102.992V92.776ZM98.276 95.764H102.092V115.78H98.276V95.764ZM100.76 100.588H108.572V103.36H100.76V100.588ZM96.08 114.7C99.14 114.124 103.82 113.08 108.284 112.072L108.68 115.456C104.756 116.608 100.544 117.76 97.268 118.66L96.08 114.7ZM104.504 110.092L107.888 108.652C109.652 111.244 111.416 114.7 112.064 117.04L108.392 118.696C107.816 116.392 106.16 112.792 104.504 110.092ZM100.4 95.764H110.3V108.292H100.4V105.196H106.52V98.86H100.4V95.764ZM101.948 85.936H104.288V86.728H105.512V87.916C104.072 90.652 101.768 94.396 97.988 97.564C97.448 96.664 96.224 95.296 95.36 94.72C98.6 92.164 100.76 88.78 101.948 85.936ZM102.992 85.936H105.872C108.032 87.664 110.588 90.148 111.776 91.984L109.04 95.188C108.032 93.388 105.692 90.436 103.676 88.888H102.992V85.936Z" fill="white"/>
<defs>
<clipPath id="clip0_1252_2090">
<rect width="48" height="48" fill="white" transform="translate(53 24.5)"/>
</clipPath>
</defs>
</svg>
