<svg width="154" height="154" viewBox="0 0 154 154" fill="none" xmlns="http://www.w3.org/2000/svg">
<rect width="154" height="154" rx="10" fill="#BDA8DD"/>
<g clip-path="url(#clip0_1252_2108)">
<path d="M100.25 39.3125C102.305 39.3125 104.277 38.5059 105.73 37.07C107.183 35.6342 108 33.6868 108 31.6562C108 29.6257 107.183 27.6783 105.73 26.2425C104.277 24.8066 102.305 24 100.25 24C98.1946 24 96.2233 24.8066 94.7699 26.2425C93.3165 27.6783 92.5 29.6257 92.5 31.6562C92.5 33.6868 93.3165 35.6342 94.7699 37.07C96.2233 38.5059 98.1946 39.3125 100.25 39.3125ZM51.4153 73H82.9191H90.1847H102.081C105.355 73 108 70.3777 108 67.1525C108 66.0807 107.7 65.0279 107.138 64.1092L94.3503 43.4086C93.9531 42.7674 93.2556 42.375 92.5 42.375C91.7444 42.375 91.0469 42.7674 90.6497 43.399L85.9803 50.9596L73.7837 31.752C73.1444 30.7375 72.0109 30.125 70.8 30.125C69.5891 30.125 68.4653 30.7375 67.8162 31.752L46.8331 64.8078C46.2906 65.6596 46 66.6453 46 67.6502C46 70.6074 48.4219 73 51.4153 73Z" fill="#F7F4FB"/>
</g>
<path d="M49.1 98.964H68.684V102.96H49.1V98.964ZM49.1 106.668H68.684V110.664H49.1V106.668ZM49.1 114.408H68.684V118.404H49.1V114.408ZM46.148 91.116H72.32V120.132H67.712V95.256H50.54V120.204H46.148V91.116ZM56.372 86.4L61.592 86.94C60.728 89.352 59.684 91.728 58.892 93.312L54.932 92.592C55.508 90.792 56.12 88.272 56.372 86.4ZM95.468 93.492H111.056V97.56H95.468V93.492ZM104.36 95.04C105.476 100.692 107.852 105.48 112.28 107.712C111.344 108.54 110.012 110.232 109.364 111.42C104.468 108.396 102.056 102.816 100.724 95.652L104.36 95.04ZM84.02 95.688L85.892 93.276C87.836 94.14 90.32 95.616 91.616 96.624L89.672 99.324C88.448 98.244 85.964 96.696 84.02 95.688ZM104.792 88.452L107.888 86.76C109.184 88.2 110.696 90.18 111.344 91.548L108.068 93.42C107.456 92.088 106.052 89.964 104.792 88.452ZM80.528 99.576L82.868 97.344C84.884 98.532 87.44 100.296 88.7 101.556L86.216 104.004C85.028 102.708 82.544 100.836 80.528 99.576ZM85.928 86.076L90.032 87.156C87.98 92.268 84.668 97.848 80.528 101.304C79.808 100.44 78.476 99.18 77.612 98.532C81.464 95.508 84.524 90.36 85.928 86.076ZM92.372 89.424H93.2L93.92 89.28L96.656 90.396C94.352 101.16 88.808 108 81.752 111.42C81.176 110.448 79.664 108.792 78.728 108.108C85.568 105.156 90.644 99.288 92.372 90.252V89.424ZM88.916 112.932L92.912 112.464C93.38 114.66 93.812 117.504 93.848 119.268L89.6 119.88C89.6 118.116 89.348 115.164 88.916 112.932ZM96.08 113.004L100.148 112.32C101.048 114.444 101.948 117.288 102.272 119.052L97.952 119.916C97.7 118.152 96.908 115.236 96.08 113.004ZM103.316 112.824L107.456 111.528C109.112 113.724 111.128 116.784 112.064 118.8L107.636 120.276C106.844 118.296 104.936 115.128 103.316 112.824ZM82.328 111.672L86.504 112.68C85.712 115.452 84.2 118.368 82.472 120.276L78.332 118.62C79.952 117.072 81.5 114.3 82.328 111.672ZM86.792 89.424H93.848V92.844H84.452L86.792 89.424ZM100.292 86.94H104.36V94.356C104.36 100.26 102.992 106.884 94.424 111.276C93.74 110.304 92.408 109.044 91.4 108.252C99.212 104.292 100.292 98.856 100.292 94.284V86.94Z" fill="white"/>
<defs>
<clipPath id="clip0_1252_2108">
<rect width="62" height="49" fill="white" transform="translate(46 24)"/>
</clipPath>
</defs>
</svg>
