<svg width="154" height="154" viewBox="0 0 154 154" fill="none" xmlns="http://www.w3.org/2000/svg">
<rect width="154" height="154" rx="10" fill="#BDA8DD"/>
<g clip-path="url(#clip0_1252_2104)">
<path d="M61.8448 26.1215C62.527 24.7809 64.0849 24.1622 65.477 24.6778L77.0004 28.9528L88.5238 24.6778C89.9159 24.1622 91.4738 24.7809 92.156 26.1215L99.4204 40.4559C102.075 45.6872 100.37 51.9215 95.8712 55.1372L98.7659 63.2184L102.546 61.8122C104.076 61.2497 105.772 62.0465 106.325 63.6028C106.878 65.159 106.095 66.884 104.564 67.4465L98.0099 69.8747L91.4554 72.3122C89.9251 72.884 88.2288 72.0778 87.6757 70.5215C87.1226 68.9653 87.9062 67.2403 89.4365 66.6778L93.2162 65.2715L90.3307 57.1903C84.8548 57.6778 79.6185 54.0028 78.3463 48.2653L77.0004 42.1997L75.6545 48.2653C74.3823 54.0122 69.146 57.6778 63.6701 57.1903L60.7846 65.2715L64.5643 66.6778C66.0946 67.2403 66.8874 68.9653 66.3251 70.5215C65.7627 72.0778 64.0757 72.884 62.5454 72.3122L56.0001 69.884L49.4455 67.4559C47.9152 66.884 47.1224 65.1684 47.6848 63.6122C48.2471 62.0559 49.9341 61.2497 51.4645 61.8215L55.2441 63.2278L58.1296 55.1465C53.6309 51.9215 51.9346 45.6872 54.5896 40.4559L61.8448 26.1215ZM65.901 31.2215L63.3935 36.1715L71.6166 39.2184L72.8243 33.7903L65.901 31.2215ZM88.109 31.2215L81.1857 33.7903L82.3934 39.2184L90.6165 36.1715L88.109 31.2215Z" fill="#F7F4FB"/>
</g>
<path d="M51.512 87.88H75.488V91.804H51.512V87.88ZM54.536 108.22H72.104V111.856H54.536V108.22ZM54.536 114.484H72.104V118.192H54.536V114.484ZM52.412 95.152H74.516V119.668H70.412V98.896H56.336V119.704H52.412V95.152ZM43.052 89.68L45.5 86.512C47.336 87.484 50.108 88.924 51.512 89.86L48.956 93.388C47.66 92.38 44.924 90.796 43.052 89.68ZM41.864 99.292L44.276 96.088C46.112 96.952 48.956 98.32 50.36 99.22L47.876 102.82C46.544 101.884 43.772 100.336 41.864 99.292ZM42.44 116.752C44.024 113.944 46.256 109.372 47.948 105.16L51.404 107.608C49.892 111.46 48.092 115.672 46.364 119.2L42.44 116.752ZM58.28 89.896H62.024V97.708H58.28V89.896ZM64.4 89.896H68.252V97.744H64.4V89.896ZM58.928 97.384H62.204V99.796C62.204 102.352 61.376 105.268 57.776 107.14C57.272 106.528 55.94 105.34 55.256 104.872C58.388 103.324 58.928 101.452 58.928 99.724V97.384ZM64.256 97.42H67.496V101.776C67.496 102.46 67.604 102.532 68.216 102.532C68.432 102.532 69.512 102.532 69.836 102.532C70.304 102.532 70.412 102.46 70.52 102.352C71.096 102.82 72.5 103.396 73.508 103.612C73.04 105.34 72.068 105.88 70.304 105.88C69.728 105.88 68.216 105.88 67.676 105.88C64.904 105.88 64.256 104.944 64.256 101.848V97.42ZM89.132 100.444H111.92V104.08H89.132V100.444ZM93.056 105.808H107.852V109.192H93.056V105.808ZM94.424 101.776L98.132 102.712C96.296 106.888 93.056 110.488 89.636 112.72C89.024 112 87.584 110.704 86.756 110.128C90.068 108.256 92.948 105.268 94.424 101.776ZM107.168 105.808H111.2C111.2 105.808 111.164 106.78 111.092 107.284C110.588 114.34 110.012 117.256 109.04 118.336C108.356 119.128 107.564 119.416 106.628 119.524C105.8 119.632 104.432 119.668 102.956 119.632C102.92 118.588 102.56 117.112 102.02 116.212C103.136 116.32 104.108 116.356 104.576 116.356C105.08 116.356 105.368 116.284 105.656 115.924C106.232 115.276 106.772 112.792 107.168 106.384V105.808ZM96.116 94.36V96.088H105.44V94.36H96.116ZM96.116 89.824V91.552H105.44V89.824H96.116ZM92.3 86.836H109.436V99.076H92.3V86.836ZM78.584 93.496H89.6V97.6H78.584V93.496ZM82.22 86.368H86.252V108.76H82.22V86.368ZM77.792 109.516C80.564 108.472 84.956 106.636 89.132 104.836L90.032 108.544C86.432 110.416 82.544 112.36 79.376 113.872L77.792 109.516ZM103.064 106.492L105.98 108.076C104.612 112.396 101.588 117.4 98.384 119.884C97.628 119.056 96.368 118.084 95.288 117.472C98.78 115.312 101.732 110.668 103.064 106.492ZM97.592 106.528L100.436 108.22C98.636 111.928 94.856 116.104 91.436 118.3C90.752 117.4 89.6 116.356 88.592 115.744C92.156 113.944 95.864 110.056 97.592 106.528Z" fill="white"/>
<defs>
<clipPath id="clip0_1252_2104">
<rect width="59" height="48" fill="white" transform="translate(47.5 24.5)"/>
</clipPath>
</defs>
</svg>
