<svg width="154" height="154" viewBox="0 0 154 154" fill="none" xmlns="http://www.w3.org/2000/svg">
<rect width="154" height="154" rx="10" fill="#BDA8DD"/>
<g clip-path="url(#clip0_1252_2094)">
<path d="M54.5 24.5H66.5C66.9969 24.5 67.4656 24.7531 67.7469 25.1656L75.35 36.5656C70.7094 36.95 66.5375 38.9656 63.3875 42.0312L53.2531 26.8344C52.9438 26.375 52.9156 25.7844 53.1781 25.2969C53.4406 24.8094 53.9469 24.5 54.5 24.5ZM100.747 26.8344L90.6125 42.0406C87.4719 38.975 83.2906 36.9594 78.65 36.575L86.2531 25.1656C86.5344 24.7437 87.0031 24.5 87.5 24.5H99.5C100.053 24.5 100.559 24.8 100.822 25.2969C101.084 25.7938 101.056 26.375 100.747 26.8344ZM93.5 56C93.5 65.1125 86.1125 72.5 77 72.5C67.8875 72.5 60.5 65.1125 60.5 56C60.5 46.8875 67.8875 39.5 77 39.5C86.1125 39.5 93.5 46.8875 93.5 56ZM77.7875 47.1031C77.4688 46.4469 76.5406 46.4469 76.2125 47.1031L74.1125 51.3594C73.9813 51.6219 73.7375 51.8 73.4563 51.8375L68.75 52.5219C68.0281 52.625 67.7469 53.5062 68.2625 54.0219L71.6656 57.3406C71.8719 57.5469 71.9656 57.8281 71.9188 58.1188L71.1125 62.7969C70.9906 63.5094 71.7406 64.0625 72.3875 63.725L76.5875 61.5125C76.8406 61.3812 77.15 61.3812 77.4031 61.5125L81.6031 63.725C82.25 64.0625 83 63.5187 82.8781 62.7969L82.0719 58.1188C82.025 57.8375 82.1188 57.5469 82.325 57.3406L85.7281 54.0219C86.2531 53.5156 85.9625 52.6344 85.2406 52.5219L80.5438 51.8375C80.2625 51.8 80.0094 51.6125 79.8875 51.3594L77.7875 47.1031Z" fill="#F7F4FB"/>
</g>
<path d="M35.3396 92.128C35.0516 92.524 34.4036 93.604 34.0796 94.36C32.6036 97.78 29.9396 102.676 26.8436 106.276C22.8116 110.92 17.3756 115.384 11.7956 118.012L8.05156 114.124C13.8836 111.964 19.4276 107.572 22.8116 103.828C25.1876 101.128 27.3836 97.564 28.2116 95.008C26.6996 95.008 17.5196 95.008 15.9716 95.008C14.4956 95.008 12.5156 95.188 11.7236 95.26V90.112C12.6956 90.256 14.9276 90.364 15.9716 90.364C17.8796 90.364 27.0956 90.364 28.6796 90.364C30.2636 90.364 31.6676 90.184 32.4236 89.932L35.3396 92.128ZM27.3116 103.288C31.0196 106.312 36.1316 111.676 38.4716 114.556L34.3676 118.12C31.7036 114.412 27.7796 110.128 23.9276 106.636L27.3116 103.288ZM69.2516 89.536C69.2516 90.616 70.1156 91.48 71.1956 91.48C72.2756 91.48 73.1756 90.616 73.1756 89.536C73.1756 88.456 72.2756 87.556 71.1956 87.556C70.1156 87.556 69.2516 88.456 69.2516 89.536ZM67.0556 89.536C67.0556 87.232 68.8916 85.36 71.1956 85.36C73.4996 85.36 75.3716 87.232 75.3716 89.536C75.3716 91.84 73.4996 93.676 71.1956 93.676C68.8916 93.676 67.0556 91.84 67.0556 89.536ZM62.0876 88.096C61.9796 88.6 61.7636 90.364 61.7636 91.264C61.7636 93.388 61.7636 96.448 61.7636 98.536C61.7636 101.452 61.7636 112.18 61.7636 115.204C61.7636 117.292 60.5396 118.588 57.9836 118.588C56.0756 118.588 53.9516 118.516 52.1516 118.3L51.7196 113.836C53.2316 114.124 54.8156 114.232 55.7156 114.232C56.6516 114.232 56.9756 113.908 57.0116 112.972C57.0476 111.604 57.0476 100.228 57.0476 98.536C57.0476 97.276 57.0476 93.424 57.0476 91.228C57.0476 90.292 56.8676 88.744 56.7596 88.096H62.0876ZM44.4476 93.856C45.5276 94 46.7876 94.108 47.9036 94.108C50.0996 94.108 67.5596 94.108 70.1516 94.108C71.1596 94.108 72.7076 94 73.6796 93.892V98.608C72.5636 98.5 71.1596 98.464 70.1876 98.464C67.5956 98.464 50.2796 98.464 47.9036 98.464C46.8236 98.464 45.4556 98.5 44.4476 98.608V93.856ZM53.6276 103.612C51.9716 106.78 48.6236 111.496 46.6796 113.62L42.7556 110.992C45.1676 108.688 48.0476 104.728 49.5236 101.668L53.6276 103.612ZM69.0716 101.56C70.9076 103.864 73.7876 108.4 75.2276 111.028L71.0156 113.368C69.4676 110.272 66.9116 105.916 65.1476 103.684L69.0716 101.56ZM80.6276 99.832C81.9596 99.94 84.5516 100.084 86.4236 100.084C90.6716 100.084 102.552 100.084 105.756 100.084C107.448 100.084 109.032 99.904 110.004 99.832V105.52C109.14 105.484 107.304 105.304 105.792 105.304C102.516 105.304 90.6716 105.304 86.4236 105.304C84.4076 105.304 81.9956 105.412 80.6276 105.52V99.832ZM129.676 88.456C130.54 90.256 132.736 95.8 133.456 98.104L128.92 99.688C128.236 97.42 126.22 92.164 125.176 89.932L129.676 88.456ZM146.092 91.336C145.696 92.236 145.372 93.352 145.156 94.144C144.148 98.068 142.096 103.792 139.144 107.68C135.364 112.684 130.108 116.32 124.996 118.264L120.964 114.196C125.86 112.792 131.476 109.552 135.184 104.908C137.884 101.488 140.116 95.332 140.728 89.824L146.092 91.336ZM119.632 90.688C120.748 92.992 122.98 98.356 123.808 100.768L119.2 102.46C118.444 100.156 116.068 94.216 115.06 92.308L119.632 90.688Z" fill="white"/>
<defs>
<clipPath id="clip0_1252_2094">
<rect width="48" height="48" fill="white" transform="translate(53 24.5)"/>
</clipPath>
</defs>
</svg>
